<svg width="829" height="805" viewBox="0 0 829 805" fill="none" xmlns="http://www.w3.org/2000/svg">
    <path d="M640.915 528.939C642.214 535.417 642.377 542.139 641.389 548.695C640.403 555.25 638.291 561.498 635.179 567.058C632.068 572.619 628.023 577.375 623.295 581.033C618.567 584.691 613.253 587.178 607.679 588.337C607.679 588.337 484.297 622.006 484.297 607.824C484.297 578.933 579.105 531.508 579.105 531.508L560.874 429.542L563.152 327.161L570.217 326.961C570.217 326.961 596.16 331.427 610.86 398.429C625.56 465.431 640.915 528.939 640.915 528.939Z"
          fill="#0BA360" fill-opacity="0.5"/>
    <path d="M431.879 327.194L422.914 323.154C416.876 327.084 395.139 347.296 392.556 364.047L349.179 476.688L258.72 369.921C258.72 369.921 253.089 353.839 245.208 348.145C242.51 346.201 232.862 338.095 229.748 336.844C223.813 334.375 225.627 343.789 224.781 347.865C223.937 351.942 210.062 342.694 172.933 343.063C167.311 343.12 161.329 341.323 162.165 346.135C162.886 350.301 165.63 348.447 165.63 348.447C165.63 348.447 161.765 349.675 161.709 353.059C161.67 353.487 161.712 353.923 161.832 354.331C161.952 354.739 162.146 355.113 162.401 355.423C162.657 355.733 162.966 355.974 163.309 356.131C163.652 356.284 164.02 356.348 164.387 356.318C164.387 356.318 160.759 358.251 161.329 361.255C162.022 364.906 168.242 365.901 168.242 365.901C168.242 365.901 165.612 369.129 165.849 371.315C166.086 373.505 166.324 373.851 169.866 377.202C172.591 379.781 225.949 401.444 235.597 404.772C235.928 404.918 236.198 405.21 236.348 405.587C248.465 430.657 261.435 455.148 277.806 476.622L322.742 535.561C326.983 541.124 332.307 545.395 338.26 548.008C344.213 550.62 350.615 551.494 356.918 550.559C363.222 549.623 369.238 546.9 374.451 542.629C379.665 538.358 383.918 532.664 386.849 526.037L400.731 494.701L457.547 361.099C470.926 329.64 456.864 338.149 428.46 334.242C424.472 333.626 435.421 324.851 431.879 327.194Z"
          fill="#0BA360" fill-opacity="0.5"/>
    <path d="M162.165 343.176C162.165 343.176 172.307 342.328 172.934 345.276C173.56 348.222 167.236 347.609 167.236 347.609C167.236 347.609 173.171 344.079 174.434 347.476C175.697 350.87 169.107 354.933 169.107 354.933C169.107 354.933 222.977 369.239 224.022 372.802C225.066 376.363 172.934 364.047 172.934 364.047C172.934 364.047 224.829 376.912 225.684 380.34C226.539 383.767 173.598 371.338 173.598 371.338"
          fill="#0BA360" fill-opacity="0.5"/>
    <path d="M165.628 348.411C166.379 348.188 168.325 347.719 170.766 347.296L165.628 348.411Z" fill="#C27C38"/>
    <path d="M164.387 356.317C164.387 356.317 166.875 355.615 170.237 354.933L164.387 356.317Z" fill="#C27C38"/>
    <path d="M563.861 636.711C576.205 639.839 597.544 641.47 605.148 635.137C605.747 634.648 606.364 634.199 606.991 633.786C615.651 628.202 626.382 633.999 629.107 645.143C630.484 650.794 636.544 666.427 647.767 677.528C659.723 689.377 676.91 696.602 679.436 698.466C685.513 702.934 681.734 713.966 674.688 712.192L567.858 694.289"
          fill="#0BA360" fill-opacity="0.5"/>
    <path d="M593.375 640.834L611.067 701.57L629.109 704.598L663.997 710.448L675.392 712.348C678.934 712.938 682.722 714.099 686.275 714.245C689.2 714.368 690.727 709.5 690.481 706.618C690.168 702.955 687.831 699.919 685.429 697.684C674.832 688.216 649.706 676.244 644.995 670.683C642.495 667.827 640.197 664.735 638.13 661.436L642.44 657.685L624.551 630.884C624.551 630.884 600.364 630.079 593.375 640.834Z"
          fill="#334C5B"/>
    <path d="M627.857 701.817C627.76 701.817 627.664 701.781 627.581 701.717C622.672 697.63 625.122 684.173 625.236 683.604C625.264 683.458 625.338 683.332 625.442 683.253C625.547 683.171 625.673 683.14 625.797 683.168C625.858 683.184 625.917 683.214 625.967 683.255C626.019 683.299 626.062 683.353 626.095 683.414C626.13 683.476 626.152 683.545 626.162 683.619C626.173 683.691 626.171 683.766 626.158 683.837C626.158 683.971 623.726 697.138 628.132 700.812C628.234 700.896 628.301 701.024 628.323 701.17C628.345 701.314 628.317 701.463 628.247 701.581C628.201 701.655 628.143 701.714 628.075 701.755C628.008 701.793 627.934 701.817 627.857 701.817Z"
          fill="white"/>
    <path d="M638.13 703.983C638.03 703.983 637.932 703.944 637.854 703.87C632.945 699.783 635.404 686.327 635.508 685.757C635.534 685.611 635.61 685.481 635.719 685.399C635.826 685.314 635.956 685.286 636.083 685.317C636.209 685.347 636.32 685.437 636.389 685.563C636.461 685.691 636.485 685.845 636.459 685.993C636.459 686.127 634.026 699.304 638.424 702.968C638.476 703.009 638.52 703.062 638.552 703.124C638.587 703.188 638.609 703.257 638.62 703.329C638.631 703.403 638.628 703.478 638.615 703.55C638.6 703.621 638.574 703.688 638.537 703.75C638.491 703.824 638.428 703.883 638.359 703.924C638.287 703.965 638.208 703.985 638.13 703.983Z"
          fill="white"/>
    <path d="M647.057 705.167C646.959 705.167 646.863 705.131 646.781 705.067C641.872 700.968 644.322 687.511 644.435 686.942C644.45 686.868 644.477 686.798 644.511 686.737C644.548 686.675 644.596 686.624 644.648 686.583C644.703 686.542 644.764 686.514 644.827 686.501C644.888 686.488 644.953 686.491 645.016 686.506C645.077 686.521 645.136 686.552 645.19 686.596C645.242 686.639 645.286 686.693 645.321 686.757C645.356 686.819 645.38 686.891 645.39 686.965C645.401 687.039 645.399 687.114 645.386 687.188C645.386 687.321 642.956 700.488 647.362 704.149C647.444 704.219 647.508 704.316 647.538 704.429C647.571 704.542 647.573 704.665 647.542 704.777C647.512 704.89 647.451 704.99 647.368 705.059C647.286 705.131 647.188 705.167 647.085 705.167H647.057Z"
          fill="white"/>
    <path d="M563.309 431.519L563.404 432.111C562.595 396.875 564.89 361.637 570.252 326.961C558.276 321.857 545.969 319.78 537.67 317.021C520.207 311.215 522.476 312.443 522.476 312.443L494.284 299.714H488.148L468.15 312.443C468.15 312.443 462.318 311.215 444.857 317.021C439.026 318.965 431.21 320.562 422.92 323.118C426.062 359.453 427.35 395.975 426.776 432.49L427.603 430.547L435.684 514.3L414.478 580.185C414.478 580.185 491.32 618.253 491.273 615.92C491.225 613.584 567.858 577.036 567.858 577.036L546.892 514.267L563.309 431.519Z"
          fill="#0BA360" fill-opacity="0.5"/>
    <path d="M567.858 694.29L338.739 655.296C332.433 654.209 326.393 651.578 321.004 647.576C315.616 643.572 311.003 638.286 307.461 632.056C292.372 605.445 300.337 573.775 324.552 559.134L328.504 556.745C334.144 553.33 340.33 551.338 346.661 550.897C352.995 550.453 359.336 551.571 365.28 554.176L563.89 636.814"
          fill="#334C5B"/>
    <path d="M418.421 636.711C406.078 639.839 384.73 641.47 377.123 635.137C376.532 634.648 375.916 634.196 375.28 633.786C366.629 628.203 364.645 650.84 361.921 661.984C360.535 667.635 353.422 673.375 342.188 684.496C330.243 696.333 313.595 697.148 311.069 699.014C304.992 703.48 300.623 714.168 307.594 712.415L414.472 694.323"
          fill="#0BA360" fill-opacity="0.5"/>
    <path d="M414.47 694.289L643.533 655.306C649.838 654.216 655.881 651.586 661.268 647.581C666.658 643.577 671.27 638.288 674.813 632.056C678.37 625.775 680.761 618.678 681.825 611.236C682.892 603.794 682.609 596.169 680.994 588.863C679.382 581.559 676.473 574.734 672.463 568.843C668.453 562.949 663.429 558.119 657.719 554.668L653.779 552.279C648.139 548.864 641.953 546.872 635.621 546.431C629.287 545.987 622.945 547.105 617 549.71L418.393 636.814"
          fill="#334C5B"/>
    <path d="M398.072 639.447L380.381 700.176L362.282 703.201L327.375 709.108C320.804 710.225 314.202 711.174 307.679 712.658C306.75 712.94 305.788 713.043 304.831 712.961C301.924 712.515 300.662 707.969 301.032 705.011C301.46 701.493 303.634 698.478 305.98 696.389C316.576 686.919 341.703 674.949 346.413 669.388C348.913 666.532 351.211 663.44 353.278 660.141L348.968 656.388L366.858 629.587C366.858 629.587 391.081 628.705 398.072 639.447Z"
          fill="#334C5B"/>
    <path d="M363.594 700.432C363.518 700.432 363.444 700.409 363.376 700.37C363.309 700.329 363.25 700.27 363.204 700.196C363.135 700.076 363.107 699.93 363.128 699.783C363.15 699.64 363.217 699.512 363.32 699.427C367.726 695.753 365.313 682.586 365.293 682.453C365.28 682.381 365.278 682.307 365.289 682.235C365.3 682.163 365.324 682.096 365.356 682.035C365.389 681.973 365.435 681.92 365.485 681.879C365.537 681.838 365.594 681.809 365.654 681.794C365.776 681.763 365.905 681.791 366.009 681.871C366.114 681.95 366.188 682.076 366.216 682.217C366.329 682.789 368.779 696.243 363.87 700.332C363.788 700.396 363.692 700.432 363.594 700.432Z"
          fill="white"/>
    <path d="M353.252 702.599C353.176 702.596 353.102 702.575 353.034 702.534C352.965 702.493 352.908 702.434 352.862 702.365C352.791 702.242 352.762 702.091 352.784 701.945C352.806 701.801 352.873 701.67 352.975 701.583C357.373 697.92 354.971 684.742 354.942 684.609C354.919 684.463 354.945 684.314 355.014 684.191C355.082 684.068 355.191 683.981 355.312 683.95C355.434 683.919 355.56 683.948 355.665 684.027C355.771 684.107 355.845 684.23 355.872 684.373C355.976 684.942 358.437 698.399 353.526 702.499C353.445 702.563 353.35 702.599 353.252 702.599Z"
          fill="white"/>
    <path d="M344.389 703.78C344.289 703.783 344.189 703.744 344.109 703.675C344.026 703.606 343.965 703.506 343.935 703.393C343.904 703.28 343.904 703.157 343.937 703.044C343.97 702.932 344.033 702.834 344.115 702.765C348.521 699.102 346.108 685.937 346.091 685.804C346.076 685.732 346.074 685.655 346.084 685.583C346.095 685.511 346.119 685.442 346.152 685.378C346.185 685.317 346.23 685.263 346.28 685.222C346.332 685.178 346.389 685.147 346.452 685.132C346.511 685.117 346.574 685.114 346.635 685.127C346.696 685.14 346.755 685.165 346.807 685.206C346.859 685.245 346.905 685.296 346.94 685.358C346.974 685.417 346.998 685.486 347.011 685.558C347.124 686.127 349.574 699.594 344.666 703.68C344.585 703.747 344.49 703.78 344.389 703.78Z"
          fill="white"/>
    <path d="M521.576 312.443L498.225 258.764C498.225 258.764 535.619 225.262 515.062 190.052C494.502 154.843 459.157 172.855 450.706 177.969C440.813 183.977 435.162 200.304 435.151 200.304C426.206 227.272 423.663 288.188 458.333 280.45C464.029 292.889 463.973 310.712 464.828 312.455L521.576 312.443Z"
          fill="#C27C38" fill-opacity="0.56"/>
    <path d="M536.369 140.705C536.369 140.705 550.225 150.376 548.715 162.369C547.205 174.362 546.274 178.84 547.642 192.632C549.009 206.423 530.975 222.604 530.975 222.604L499.991 176.696L462.216 150.755L450.63 138.382C450.63 138.382 464.581 116.372 479.384 115.836C494.188 115.3 519.163 112.452 536.369 140.705Z"
          fill="#0BA360" fill-opacity="0.5"/>
    <path d="M510.144 245.106C510.144 245.106 516.791 232.956 525.849 226.066C527.02 225.157 528.245 224.351 529.515 223.654C530.484 223.128 531.358 222.393 532.098 221.487C539.067 212.9 532.866 190.22 525.403 185.876C517.189 181.04 514.008 159.734 490.696 160.27C467.382 160.806 478.057 135.021 461.002 135.557C443.946 136.093 451.106 144.87 445.808 149.348C440.51 153.826 437.583 165.105 437.583 165.105L488.54 192.676L510.144 245.106Z"
          fill="#69C8C2"/>
    <path d="M477.972 270.242L464.677 312.679C464.166 291.359 458.343 280.461 458.343 280.461C458.343 280.461 471.496 276.118 477.972 270.242Z"
          fill="#1A1C18"/>
    <path d="M446.252 181.588C446.252 181.588 454.096 180.326 458.313 188.02C462.528 195.714 461.977 204.983 468.92 212.197C475.861 219.41 476.375 218.584 476.375 218.584L482.974 241.868L498.225 258.764C498.225 258.764 512.154 244.883 513.978 238.294C515.801 231.705 510.636 209.505 504.093 201.633C497.55 193.76 502.981 190.566 492.498 181.532C482.015 172.498 475.785 173.715 465.186 171.482C454.59 169.248 455.208 169.248 448.208 166.233C441.211 163.218 436.633 161.934 437.705 167.484C438.778 173.034 446.252 181.588 446.252 181.588Z"
          fill="#334C5B"/>
    <path d="M480.439 238.294L481.856 237.401C481.856 237.401 488.825 233.101 488.503 225.686C488.179 218.271 485.189 214.765 481.856 214.765C479.414 214.765 477.165 217.199 475.853 219.399C474.98 220.884 474.506 223.52 473.176 224.715"
          fill="#0BA360" fill-opacity="0.5"/>
    <path d="M481.24 236.451C481.24 236.451 488.836 243.609 491.856 252.923C494.876 262.235 490.326 283.722 490.326 283.722C490.326 283.722 486.377 262.594 481.962 257.759C477.545 252.923 481.24 236.451 481.24 236.451Z"
          fill="#FBDB95"/>
    <path d="M446.914 147.111L446.831 149.152L474.151 150.661L474.232 148.62L446.914 147.111Z" fill="#FBDB95"/>
    <path d="M449.481 140.113L449.394 142.156L472.223 143.498L472.31 141.455L449.481 140.113Z" fill="#FBDB95"/>
    <path d="M521.672 229.048L523.391 228.791C523.267 227.674 520.247 201.309 511.293 187.863C509.546 185.239 508.073 182.782 506.639 180.415C500.875 170.834 496.327 163.262 481.114 157.221H480.896L441.468 154.105L441.354 156.138L480.668 159.153C495.253 164.982 499.432 171.928 505.224 181.554C506.658 183.944 508.149 186.423 509.972 189.081C518.584 202.124 521.643 228.78 521.672 229.048Z"
          fill="#FBDB95"/>
    <path d="M537.103 207.127C537.274 207.127 537.444 207.066 537.588 206.953C537.731 206.839 537.845 206.679 537.91 206.49C538.195 205.653 544.994 185.876 544.557 169.896C544.091 153.726 534.046 142.648 533.617 142.19C533.534 142.099 533.436 142.029 533.33 141.982C533.223 141.936 533.108 141.915 532.995 141.92C532.881 141.925 532.77 141.957 532.666 142.012C532.562 142.069 532.47 142.148 532.392 142.246C532.316 142.344 532.255 142.46 532.216 142.585C532.176 142.711 532.157 142.844 532.161 142.978C532.166 143.112 532.194 143.243 532.242 143.365C532.29 143.486 532.357 143.596 532.44 143.687C532.535 143.798 542.381 154.664 542.819 169.974C543.265 185.496 536.391 205.519 536.315 205.709C536.271 205.833 536.25 205.967 536.25 206.101C536.252 206.236 536.276 206.368 536.319 206.492C536.365 206.616 536.43 206.728 536.513 206.821C536.596 206.915 536.691 206.988 536.798 207.038C536.894 207.091 536.996 207.121 537.103 207.127Z"
          fill="#FBDB95"/>
    <path d="M532.277 156.127C532.41 156.126 532.54 156.091 532.66 156.022C532.777 155.954 532.882 155.854 532.962 155.732C533.045 155.609 533.102 155.467 533.128 155.315C533.156 155.162 533.154 155.005 533.123 154.854C533.123 154.731 530.169 141.911 516.03 141.688C515.908 141.673 515.786 141.688 515.669 141.733C515.553 141.777 515.445 141.85 515.355 141.946C515.264 142.043 515.19 142.161 515.14 142.292C515.092 142.424 515.066 142.566 515.066 142.71C515.066 142.854 515.092 142.996 515.14 143.128C515.19 143.259 515.264 143.377 515.355 143.473C515.445 143.57 515.553 143.642 515.669 143.687C515.786 143.731 515.908 143.746 516.03 143.732C528.793 143.933 531.357 154.898 531.452 155.368C531.5 155.582 531.609 155.772 531.757 155.909C531.905 156.046 532.088 156.123 532.277 156.127Z"
          fill="#FBDB95"/>
    <path d="M483.716 244.76C486.06 247.057 487.926 249.952 489.175 253.225C490.742 258.015 488.388 269.06 488.388 269.06C488.388 269.06 486.355 258.195 484.086 255.715C481.817 253.236 483.716 244.76 483.716 244.76Z"
          fill="#0BA360" fill-opacity="0.5"/>
    <path d="M494.994 602.548L428.795 632.43L429.137 633.473L495.333 603.591L494.994 602.548Z" fill="white"/>
    <path d="M332.388 194.519H101.407V316.842H332.388V194.519Z" fill="#0BA360" fill-opacity="0.5"/>
    <path d="M319.533 180.225H88.5513V302.549H319.533V180.225Z" fill="#0BA360" fill-opacity="0.5"/>
    <path d="M143.988 216.954H140.189V264.178H143.988V216.954Z" fill="#334C5B"/>
    <path d="M154.936 222.315L126.54 255.708L129.225 258.867L157.622 225.473L154.936 222.315Z" fill="#334C5B"/>
    <path d="M162.172 238.327H122.014V242.794H162.172V238.327Z" fill="#334C5B"/>
    <path d="M129.234 222.301L126.548 225.459L154.944 258.854L157.63 255.694L129.234 222.301Z" fill="#334C5B"/>
    <path d="M205.94 216.954H202.142V264.178H205.94V216.954Z" fill="#334C5B"/>
    <path d="M216.901 222.313L188.504 255.707L191.19 258.866L219.587 225.472L216.901 222.313Z" fill="#334C5B"/>
    <path d="M224.124 238.327H183.966V242.794H224.124V238.327Z" fill="#334C5B"/>
    <path d="M191.19 222.288L188.504 225.446L216.901 258.841L219.587 255.681L191.19 222.288Z" fill="#334C5B"/>
    <path d="M267.893 216.954H264.094V264.178H267.893V216.954Z" fill="#334C5B"/>
    <path d="M278.844 222.32L250.449 255.713L253.134 258.872L281.531 225.478L278.844 222.32Z" fill="#334C5B"/>
    <path d="M286.068 238.327H245.911V242.794H286.068V238.327Z" fill="#334C5B"/>
    <path d="M253.134 222.286L250.449 225.444L278.844 258.838L281.531 255.679L253.134 222.286Z" fill="#334C5B"/>
    <g opacity="0.33">
        <path opacity="0.33"
              d="M94.5823 229.137C117.553 229.137 136.175 207.239 136.175 180.225C136.175 153.212 117.553 131.314 94.5823 131.314C71.6114 131.314 52.9897 153.212 52.9897 180.225C52.9897 207.239 71.6114 229.137 94.5823 229.137Z"
              fill="#F2835A"/>
    </g>
    <path d="M105.453 233.878C131.401 233.878 152.436 211.908 152.436 184.806C152.436 157.704 131.401 135.733 105.453 135.733C79.5042 135.733 58.4688 157.704 58.4688 184.806C58.4688 211.908 79.5042 233.878 105.453 233.878Z"
          fill="#2B4271"/>
    <path d="M101.209 196.291C101.209 196.291 101.037 194.917 101.209 189.673C101.364 184.996 105.31 183.005 110.307 180.471C111.72 179.765 113.323 178.946 114.994 177.95C116.353 177.227 117.41 176.241 118.046 175.103C118.682 173.966 118.872 172.721 118.595 171.508C117.803 168.181 113.84 165.433 107.688 163.945C95.6263 161.071 88.906 169.706 88.6304 170.071L85.6147 168.811C85.7008 168.697 93.9546 157.983 108.756 161.5C116.149 163.252 120.973 166.718 121.99 171.004C122.365 172.662 122.107 174.364 121.244 175.921C120.38 177.478 118.945 178.83 117.096 179.828C115.373 180.811 113.65 181.643 112.271 182.349C107.43 184.795 104.759 186.131 104.655 189.534C104.5 194.576 104.655 195.837 104.655 195.837L101.209 196.291Z"
          fill="white"/>
    <path d="M107.351 204.643H105.452V210.595H107.351V204.643Z" fill="white"/>
</svg>
