<svg version="1.1" id="Layer_1" xmlns="http://www.w3.org/2000/svg" xmlns:xlink="http://www.w3.org/1999/xlink" x="0px" y="0px"
	 width="100%" viewBox="0 0 222 205" enable-background="new 0 0 222 205" xml:space="preserve">
<path fill="#DCF2E8" opacity="1.000000" stroke="none" 
	d="
M165.000000,206.000000 
	C110.368889,206.000000 55.737778,206.000000 1.053333,206.000000 
	C1.053333,137.746704 1.053333,69.493355 1.053333,1.120000 
	C74.999886,1.120000 148.999908,1.120000 222.999969,1.117642 
	C223.000000,28.097752 223.000000,55.080215 222.639206,82.585052 
	C221.469543,84.378380 220.777969,85.746468 219.824615,86.897789 
	C218.352432,88.675659 216.701141,90.305222 215.034119,91.600647 
	C214.711441,89.895592 214.530136,88.576530 214.241821,87.281281 
	C211.534073,75.117317 201.124100,66.469391 189.053558,66.334885 
	C176.678131,66.196983 165.967392,74.713295 163.078644,86.987511 
	C162.782196,88.247009 162.482895,89.505844 162.208496,90.665390 
	C136.639877,90.665390 111.396385,90.665390 86.138855,90.470222 
	C86.124825,90.275055 85.926636,89.937599 85.911087,89.478233 
	C85.926094,87.187302 85.928207,85.354744 85.992088,83.524338 
	C86.279938,75.276772 83.719963,68.792732 75.236450,65.513062 
	C75.231956,60.220097 75.463860,55.368458 75.079041,50.566238 
	C73.967682,36.697464 62.618290,26.097736 48.146912,25.121752 
	C34.501812,24.201494 21.622061,33.310837 19.070993,46.612465 
	C17.865387,52.898666 18.393627,59.517399 17.820839,66.143364 
	C10.066687,69.222359 6.884727,74.733376 7.045069,82.648239 
	C7.243785,92.457397 6.636647,102.303932 7.282250,112.074547 
	C7.632051,117.368477 8.851103,123.121094 11.456875,127.641373 
	C16.729315,136.787567 26.052227,138.957947 36.077229,139.415222 
	C36.199730,141.705872 36.263329,143.534348 36.264244,145.362839 
	C36.273205,163.243668 43.911003,170.936081 61.678165,170.941574 
	C91.454803,170.950775 121.231445,170.959030 151.091202,171.345322 
	C151.189545,179.030899 158.836044,180.498962 161.843277,185.539215 
	C162.093460,185.958557 163.400284,185.856552 164.206757,185.814804 
	C166.805557,185.680206 169.399979,185.460449 171.995209,185.673950 
	C171.246399,188.658188 170.629044,191.288940 169.720779,193.815109 
	C168.247498,197.912811 166.583496,201.941925 165.000000,206.000000 
z"/>
<path fill="#D8EFE5" opacity="1.000000" stroke="none" 
	d="
M165.468658,206.000000 
	C166.583496,201.941925 168.247498,197.912811 169.720779,193.815109 
	C170.629044,191.288940 171.246399,188.658188 172.367218,185.561615 
	C175.637573,185.847015 178.541855,186.866852 180.408768,183.147079 
	C180.586227,182.793488 182.070923,183.095993 183.138901,183.378189 
	C185.175186,184.855331 187.021301,186.048187 188.867432,187.241043 
	C189.417603,187.036148 189.967789,186.831238 190.517960,186.626328 
	C190.517960,181.083923 190.517960,175.541519 190.861450,169.983093 
	C192.511307,168.661377 194.128342,167.544113 195.058609,166.010315 
	C196.925903,162.931549 198.380142,159.605103 200.073181,156.417191 
	C203.680618,149.624603 207.376007,142.878418 210.950104,136.068466 
	C213.536163,131.141098 215.827179,126.051704 218.580368,121.223038 
	C219.547501,119.526810 221.498337,118.391457 223.000000,117.000000 
	C223.000000,126.354225 223.000000,135.708450 222.649384,145.577484 
	C220.933060,147.651672 219.201385,149.018158 218.261169,150.801834 
	C212.268219,162.170883 206.339752,173.577148 200.614975,185.083069 
	C197.198303,191.950058 194.191208,199.020828 191.000000,206.000000 
	C182.645767,206.000000 174.291534,206.000000 165.468658,206.000000 
z"/>
<path fill="#D9F0E6" opacity="1.000000" stroke="none" 
	d="
M223.000000,116.531342 
	C221.498337,118.391457 219.547501,119.526810 218.580368,121.223038 
	C215.827179,126.051704 213.536163,131.141098 210.950104,136.068466 
	C207.376007,142.878418 203.680618,149.624603 200.073181,156.417191 
	C198.380142,159.605103 196.925903,162.931549 195.058609,166.010315 
	C194.128342,167.544113 192.511307,168.661377 190.776352,169.521790 
	C190.330368,153.612625 190.241913,138.147980 190.409134,122.686081 
	C190.425262,121.194565 191.785431,118.661491 192.931305,118.398827 
	C207.073792,115.156837 213.886185,105.972519 215.125824,91.997688 
	C216.701141,90.305222 218.352432,88.675659 219.824615,86.897789 
	C220.777969,85.746468 221.469543,84.378380 222.639206,83.053711 
	C223.000000,94.020897 223.000000,105.041786 223.000000,116.531342 
z"/>
<path fill="#D5EEE3" opacity="1.000000" stroke="none" 
	d="
M191.468658,206.000000 
	C194.191208,199.020828 197.198303,191.950058 200.614975,185.083069 
	C206.339752,173.577148 212.268219,162.170883 218.261169,150.801834 
	C219.201385,149.018158 220.933060,147.651672 222.649384,146.046143 
	C223.000000,165.904419 223.000000,185.808823 223.000000,206.000000 
	C212.647537,206.000000 202.292419,206.000000 191.468658,206.000000 
z"/>
<path fill="#284867" opacity="1.000000" stroke="none" 
	d="
M215.034119,91.600647 
	C213.886185,105.972519 207.073792,115.156837 192.931305,118.398827 
	C191.785431,118.661491 190.425262,121.194565 190.409134,122.686081 
	C190.241913,138.147980 190.330368,153.612625 190.432861,169.537811 
	C190.517960,175.541519 190.517960,181.083923 190.517960,186.626328 
	C189.967789,186.831238 189.417603,187.036148 188.867432,187.241043 
	C187.021301,186.048187 185.175186,184.855331 183.204559,183.029053 
	C190.174454,175.616623 190.174454,175.616623 186.972778,168.449829 
	C187.013443,152.915009 187.091980,137.842545 186.987640,122.771324 
	C186.977127,121.254311 186.268646,118.961128 185.173889,118.390358 
	C182.664337,117.081970 179.715698,116.615768 177.117416,115.857819 
	C177.477234,122.235291 177.808243,128.102036 177.790176,133.908783 
	C176.065536,133.516449 174.689987,133.184113 173.146622,132.521332 
	C172.716003,131.264618 171.980164,130.143753 172.268021,129.444046 
	C173.990097,125.258362 171.150284,122.851715 169.466812,119.795944 
	C166.123154,122.147987 166.298019,124.441475 167.536255,127.441216 
	C168.161255,128.955353 167.178665,131.133057 166.682953,132.973236 
	C166.130142,132.802246 165.812485,132.789413 165.361847,132.501724 
	C162.692657,122.088539 164.361252,115.616806 170.073380,111.724434 
	C167.870865,107.438469 165.103973,103.393906 163.708115,98.921448 
	C162.555740,95.229149 161.171036,94.056519 157.289276,94.077072 
	C124.988411,94.248154 92.686249,94.161934 60.384487,94.179832 
	C46.638031,94.187454 39.781525,100.982216 39.757046,114.712952 
	C39.737164,125.866493 39.870220,137.020309 39.936783,148.173996 
	C40.011150,160.635651 46.529030,167.201645 59.108284,167.260208 
	C82.749344,167.370255 106.390831,167.388367 130.032135,167.443771 
	C137.350784,167.460922 144.669449,167.475037 151.978729,167.797470 
	C151.648941,169.058838 151.328506,170.013260 151.008087,170.967682 
	C121.231445,170.959030 91.454803,170.950775 61.678165,170.941574 
	C43.911003,170.936081 36.273205,163.243668 36.264244,145.362839 
	C36.263329,143.534348 36.199730,141.705872 36.135681,138.954712 
	C36.128239,129.927368 36.118523,121.822472 36.179665,113.718102 
	C36.278786,100.578278 42.977009,92.891991 56.568367,90.835037 
	C66.733475,90.822906 76.443184,90.744148 86.152893,90.665390 
	C111.396385,90.665390 136.639877,90.665390 162.208496,90.665390 
	C162.482895,89.505844 162.782196,88.247009 163.078644,86.987511 
	C165.967392,74.713295 176.678131,66.196983 189.053558,66.334885 
	C201.124100,66.469391 211.534073,75.117317 214.241821,87.281281 
	C214.530136,88.576530 214.711441,89.895592 215.034119,91.600647 
M171.262299,92.435043 
	C170.727295,92.746506 169.702530,93.283142 169.727371,93.337189 
	C171.120972,96.368172 172.602142,99.358902 174.427414,103.071259 
	C176.474808,99.312988 178.052795,96.416382 179.770676,93.263000 
	C175.776901,91.984222 176.264069,89.550392 177.863419,86.720505 
	C180.735260,81.639023 186.904800,79.284409 192.501770,81.235893 
	C197.904099,83.119507 201.091293,88.857819 200.061890,94.847412 
	C199.091049,100.496323 194.363403,104.465210 188.410568,104.316330 
	C186.029465,104.256775 183.663162,103.604668 181.290131,103.222282 
	C181.044632,103.722534 180.799133,104.222778 180.553635,104.723030 
	C182.394257,105.795166 184.124420,107.475563 186.094772,107.833405 
	C194.319138,109.327110 202.032242,103.685562 203.699539,95.338547 
	C205.275101,87.450768 200.154938,79.453995 192.222900,77.414062 
	C184.313339,75.379913 176.127441,79.851921 173.537323,87.609482 
	C173.027008,89.137894 172.466400,90.649513 171.262299,92.435043 
z"/>
<path fill="#72CBA4" opacity="1.000000" stroke="none" 
	d="
M56.112976,90.768394 
	C42.977009,92.891991 36.278786,100.578278 36.179665,113.718102 
	C36.118523,121.822472 36.128239,129.927368 36.047691,138.492554 
	C26.052227,138.957947 16.729315,136.787567 11.456875,127.641373 
	C8.851103,123.121094 7.632051,117.368477 7.282250,112.074547 
	C6.636647,102.303932 7.243785,92.457397 7.045069,82.648239 
	C6.884727,74.733376 10.066687,69.222359 18.256916,66.150589 
	C21.900787,65.981636 24.793135,65.963348 28.174831,65.980713 
	C41.117607,66.000443 53.571033,65.984520 66.478516,65.975922 
	C69.685432,65.981148 72.438293,65.979050 75.191154,65.976952 
	C83.719963,68.792732 86.279938,75.276772 85.992088,83.524338 
	C85.928207,85.354744 85.926094,87.187302 85.450912,89.501465 
	C81.885666,89.998390 78.762970,89.945030 75.644867,90.041107 
	C69.132950,90.241753 62.623463,90.521278 56.112976,90.768394 
M19.955107,83.618675 
	C19.811893,81.123817 19.668682,78.628960 19.497141,75.640625 
	C15.265731,78.454132 14.753584,95.692642 18.453545,100.026718 
	C21.143713,94.826462 19.429712,89.551926 19.955107,83.618675 
z"/>
<path fill="#284867" opacity="1.000000" stroke="none" 
	d="
M27.685484,65.945068 
	C24.793135,65.963348 21.900787,65.981636 18.572361,65.992691 
	C18.393627,59.517399 17.865387,52.898666 19.070993,46.612465 
	C21.622061,33.310837 34.501812,24.201494 48.146912,25.121752 
	C62.618290,26.097736 73.967682,36.697464 75.079041,50.566238 
	C75.463860,55.368458 75.231956,60.220097 75.236450,65.513062 
	C72.438293,65.979050 69.685432,65.981148 66.442535,65.514206 
	C65.910622,61.384781 65.926109,57.722683 65.816093,54.064354 
	C65.489784,43.214764 57.643108,35.053162 47.485958,34.938480 
	C35.879414,34.807426 28.396095,41.816158 27.848665,53.469368 
	C27.653620,57.621326 27.731943,61.786129 27.685484,65.945068 
z"/>
<path fill="#3C616A" opacity="1.000000" stroke="none" 
	d="
M186.958969,168.912506 
	C190.174454,175.616623 190.174454,175.616623 183.014404,182.744781 
	C182.070923,183.095993 180.586227,182.793488 180.408768,183.147079 
	C178.541855,186.866852 175.637573,185.847015 172.368088,185.161194 
	C169.399979,185.460449 166.805557,185.680206 164.206757,185.814804 
	C163.400284,185.856552 162.093460,185.958557 161.843277,185.539215 
	C158.836044,180.498962 151.189545,179.030899 151.091202,171.345322 
	C151.328506,170.013260 151.648941,169.058838 152.409241,167.686920 
	C155.278931,166.647141 157.708771,166.024872 160.505310,165.303650 
	C167.581238,164.801804 174.290466,164.398956 181.026001,164.396118 
	C180.857468,166.188141 180.662643,167.580170 180.436157,169.198441 
	C182.797241,169.094955 184.878098,169.003738 186.958969,168.912506 
z"/>
<path fill="#97B6BA" opacity="1.000000" stroke="none" 
	d="
M56.568367,90.835037 
	C62.623463,90.521278 69.132950,90.241753 75.644867,90.041107 
	C78.762970,89.945030 81.885666,89.998390 85.466461,89.960831 
	C85.926636,89.937599 86.124825,90.275055 86.138855,90.470222 
	C76.443184,90.744148 66.733475,90.822906 56.568367,90.835037 
z"/>
<path fill="#D7EFE6" opacity="1.000000" stroke="none" 
	d="
M160.138596,165.402618 
	C157.708771,166.024872 155.278931,166.647141 152.418610,167.379974 
	C144.669449,167.475037 137.350784,167.460922 130.032135,167.443771 
	C106.390831,167.388367 82.749344,167.370255 59.108284,167.260208 
	C46.529030,167.201645 40.011150,160.635651 39.936783,148.173996 
	C39.870220,137.020309 39.737164,125.866493 39.757046,114.712952 
	C39.781525,100.982216 46.638031,94.187454 60.384487,94.179832 
	C92.686249,94.161934 124.988411,94.248154 157.289276,94.077072 
	C161.171036,94.056519 162.555740,95.229149 163.708115,98.921448 
	C165.103973,103.393906 167.870865,107.438469 170.073380,111.724434 
	C164.361252,115.616806 162.692657,122.088539 164.894684,132.539581 
	C163.012344,133.080429 161.469101,133.187866 159.526672,133.279449 
	C158.073593,133.185394 157.019684,133.107208 155.829636,132.790253 
	C155.127090,131.872162 154.560654,131.192825 154.340332,130.343079 
	C156.766327,129.346848 158.846191,128.521042 161.213501,127.581108 
	C160.068985,125.653748 159.182236,124.160446 158.135574,122.397850 
	C155.472061,124.093353 153.174866,125.555672 150.763336,126.991074 
	C150.648972,126.964149 150.423950,127.031830 150.365356,126.652245 
	C150.722061,123.738457 151.137329,121.204247 151.591492,118.432755 
	C149.230957,118.432755 147.373413,118.432755 145.203568,118.432755 
	C145.378784,120.220047 145.519318,121.653641 145.317688,122.939484 
	C143.655487,121.047966 142.335464,119.304207 140.021988,116.248055 
	C140.021988,119.353432 140.021988,121.146156 139.626450,122.852966 
	C137.907593,124.135139 136.584290,125.503235 134.930374,127.213112 
	C138.029327,128.705048 140.274506,129.785950 143.201614,131.195145 
	C140.049194,132.643173 137.830811,133.662155 135.281113,134.833313 
	C136.382446,136.738663 137.348892,138.410675 138.481735,140.370514 
	C140.999771,138.582245 143.241547,136.990173 146.000778,135.030609 
	C145.767990,138.357193 145.580017,141.043350 145.391769,143.733276 
	C147.545349,143.733276 149.274261,143.733276 150.897141,143.733276 
	C150.897141,141.234131 150.897141,139.090652 151.178772,137.078247 
	C152.497772,137.850571 153.535141,138.491837 154.663910,139.473709 
	C156.500198,141.214050 158.245087,142.613785 160.225296,144.327713 
	C160.966461,149.378479 161.472305,154.115051 161.569763,158.927795 
	C157.498230,160.605804 158.790756,162.999786 160.138596,165.402618 
M102.925621,133.586639 
	C97.901947,136.399643 103.316681,137.817902 103.370483,140.531937 
	C106.127609,138.519440 108.328331,136.913071 111.132645,134.866119 
	C110.811905,138.313644 110.570480,140.908630 110.315521,143.649048 
	C112.404724,143.649048 114.240433,143.649048 116.202797,143.649048 
	C116.202797,140.847916 116.202797,138.484833 116.202797,135.524246 
	C118.814041,137.312881 120.899612,138.741455 123.158379,140.288666 
	C124.286896,138.163696 125.119423,136.596069 126.083488,134.780777 
	C123.304977,133.584885 120.867935,132.535965 117.732002,131.186249 
	C120.985756,129.741486 123.459702,128.642975 126.195175,127.428345 
	C125.019257,125.542061 124.096710,124.062210 123.032722,122.355484 
	C120.503601,124.061340 118.400574,125.479805 115.899994,127.166412 
	C115.899994,123.838737 115.899994,121.261658 115.899994,118.604065 
	C113.874466,118.604065 112.165359,118.604065 110.290947,118.604065 
	C110.570885,121.508537 110.815826,124.049973 111.143883,127.453735 
	C108.085625,125.382149 105.815758,123.844597 103.294876,122.137016 
	C102.313095,124.032265 101.446869,125.704437 100.499290,127.533653 
	C103.224442,128.877914 105.400558,129.951340 108.147179,131.306183 
	C106.217842,132.131912 104.906204,132.693268 102.925621,133.586639 
M89.910652,125.354424 
	C85.895172,118.518272 84.323540,128.658508 80.752281,126.182259 
	C80.910904,123.905128 81.100433,121.184326 81.299782,118.322594 
	C79.154800,118.322594 77.409393,118.322594 75.564667,118.322594 
	C75.754486,121.332115 75.925682,124.046417 76.151566,127.627792 
	C73.112495,125.583595 70.857536,124.066818 68.389328,122.406616 
	C67.331810,124.279739 66.460434,125.823158 65.514557,127.498528 
	C68.250488,128.726151 70.616440,129.787750 73.689316,131.166550 
	C70.553635,132.630295 68.144730,133.754776 65.468231,135.004166 
	C66.647964,136.920868 67.574295,138.425858 68.642647,140.161606 
	C71.022972,138.443100 73.207748,136.865784 76.146896,134.743835 
	C75.831230,138.438660 75.610329,141.024292 75.375801,143.769318 
	C77.376686,143.769318 79.076576,143.769318 81.059174,143.769318 
	C81.059174,140.745041 81.059174,138.101257 81.059174,134.946350 
	C83.652939,136.863068 85.704826,138.379364 88.116081,140.161209 
	C89.176903,138.120193 89.981682,136.571823 90.895615,134.813431 
	C88.115166,133.580750 85.689461,132.505325 82.371605,131.034393 
	C85.103317,129.943207 86.866707,129.444855 88.393227,128.544754 
	C89.193024,128.073166 89.577240,126.896767 89.910652,125.354424 
z"/>
<path fill="#74C9A4" opacity="1.000000" stroke="none" 
	d="
M159.925842,133.295319 
	C161.469101,133.187866 163.012344,133.080429 165.022781,132.935150 
	C165.812485,132.789413 166.130142,132.802246 166.757767,132.962540 
	C167.072617,132.989319 167.212357,133.045044 167.139771,133.426453 
	C168.092575,135.818863 169.117996,137.829865 170.143417,139.840866 
	C171.069092,138.888214 171.994751,137.935562 172.960693,136.568909 
	C173.105438,135.053879 173.209930,133.952820 173.314423,132.851776 
	C174.689987,133.184113 176.065536,133.516449 178.067719,134.034988 
	C179.463440,135.139771 180.232529,136.058380 180.985107,137.439148 
	C180.951218,141.594681 180.933823,145.288071 180.629410,149.157440 
	C180.126556,151.926224 179.910721,154.518997 179.451599,157.393951 
	C173.464935,158.067947 167.721542,158.459778 161.978149,158.851608 
	C161.472305,154.115051 160.966461,149.378479 160.231476,143.894409 
	C159.976837,139.863052 159.951340,136.579178 159.925842,133.295319 
z"/>
<path fill="#BFDEDB" opacity="1.000000" stroke="none" 
	d="
M171.595642,92.301956 
	C172.466400,90.649513 173.027008,89.137894 173.537323,87.609482 
	C176.127441,79.851921 184.313339,75.379913 192.222900,77.414062 
	C200.154938,79.453995 205.275101,87.450768 203.699539,95.338547 
	C202.032242,103.685562 194.319138,109.327110 186.094772,107.833405 
	C184.124420,107.475563 182.394257,105.795166 180.553635,104.723030 
	C180.799133,104.222778 181.044632,103.722534 181.290131,103.222282 
	C183.663162,103.604668 186.029465,104.256775 188.410568,104.316330 
	C194.363403,104.465210 199.091049,100.496323 200.061890,94.847412 
	C201.091293,88.857819 197.904099,83.119507 192.501770,81.235893 
	C186.904800,79.284409 180.735260,81.639023 177.863419,86.720505 
	C176.264069,89.550392 175.776901,91.984222 179.770676,93.263000 
	C178.052795,96.416382 176.474808,99.312988 174.427414,103.071259 
	C172.602142,99.358902 171.120972,96.368172 169.727371,93.337189 
	C169.702530,93.283142 170.727295,92.746506 171.595642,92.301956 
z"/>
<path fill="#D6EEE4" opacity="1.000000" stroke="none" 
	d="
M181.001617,136.976990 
	C180.232529,136.058380 179.463440,135.139771 178.416794,134.094971 
	C177.808243,128.102036 177.477234,122.235291 177.117416,115.857819 
	C179.715698,116.615768 182.664337,117.081970 185.173889,118.390358 
	C186.268646,118.961128 186.977127,121.254311 186.987640,122.771324 
	C187.091980,137.842545 187.013443,152.915009 186.972778,168.449829 
	C184.878098,169.003738 182.797241,169.094955 180.436157,169.198441 
	C180.662643,167.580170 180.857468,166.188141 181.077072,164.488495 
	C181.101852,164.180878 181.304138,164.119492 181.625656,163.988464 
	C186.855286,159.102448 185.241730,153.508850 184.099319,147.549850 
	C183.138870,143.750839 182.070251,140.363922 181.001617,136.976990 
z"/>
<path fill="#C0B1B4" opacity="1.000000" stroke="none" 
	d="
M173.146622,132.521332 
	C173.209930,133.952820 173.105438,135.053879 172.601654,136.564514 
	C170.539032,135.664413 168.875702,134.354721 167.212357,133.045044 
	C167.212357,133.045044 167.072617,132.989319 166.997803,133.000031 
	C167.178665,131.133057 168.161255,128.955353 167.536255,127.441216 
	C166.298019,124.441475 166.123154,122.147987 169.466812,119.795944 
	C171.150284,122.851715 173.990097,125.258362 172.268021,129.444046 
	C171.980164,130.143753 172.716003,131.264618 173.146622,132.521332 
z"/>
<path fill="#D9F0E7" opacity="1.000000" stroke="none" 
	d="
M28.174831,65.980713 
	C27.731943,61.786129 27.653620,57.621326 27.848665,53.469368 
	C28.396095,41.816158 35.879414,34.807426 47.485958,34.938480 
	C57.643108,35.053162 65.489784,43.214764 65.816093,54.064354 
	C65.926109,57.722683 65.910622,61.384781 65.988480,65.506882 
	C53.571033,65.984520 41.117607,66.000443 28.174831,65.980713 
z"/>
<path fill="#C8EADC" opacity="1.000000" stroke="none" 
	d="
M19.958138,84.100075 
	C19.429712,89.551926 21.143713,94.826462 18.453545,100.026718 
	C14.753584,95.692642 15.265731,78.454132 19.497141,75.640625 
	C19.668682,78.628960 19.811893,81.123817 19.958138,84.100075 
z"/>
<path fill="#5996BB" opacity="1.000000" stroke="none" 
	d="
M161.569763,158.927795 
	C167.721542,158.459778 173.464935,158.067947 179.683075,157.728409 
	C180.539932,159.893631 180.922028,162.006561 181.304138,164.119492 
	C181.304138,164.119492 181.101852,164.180878 181.050781,164.088501 
	C174.290466,164.398956 167.581238,164.801804 160.505310,165.303650 
	C158.790756,162.999786 157.498230,160.605804 161.569763,158.927795 
z"/>
<path fill="#1981AD" opacity="1.000000" stroke="none" 
	d="
M103.260101,133.420624 
	C104.906204,132.693268 106.217842,132.131912 108.147179,131.306183 
	C105.400558,129.951340 103.224442,128.877914 100.499290,127.533653 
	C101.446869,125.704437 102.313095,124.032265 103.294876,122.137016 
	C105.815758,123.844597 108.085625,125.382149 111.143883,127.453735 
	C110.815826,124.049973 110.570885,121.508537 110.290947,118.604065 
	C112.165359,118.604065 113.874466,118.604065 115.899994,118.604065 
	C115.899994,121.261658 115.899994,123.838737 115.899994,127.166412 
	C118.400574,125.479805 120.503601,124.061340 123.032722,122.355484 
	C124.096710,124.062210 125.019257,125.542061 126.195175,127.428345 
	C123.459702,128.642975 120.985756,129.741486 117.732002,131.186249 
	C120.867935,132.535965 123.304977,133.584885 126.083488,134.780777 
	C125.119423,136.596069 124.286896,138.163696 123.158379,140.288666 
	C120.899612,138.741455 118.814041,137.312881 116.202797,135.524246 
	C116.202797,138.484833 116.202797,140.847916 116.202797,143.649048 
	C114.240433,143.649048 112.404724,143.649048 110.315521,143.649048 
	C110.570480,140.908630 110.811905,138.313644 111.132645,134.866119 
	C108.328331,136.913071 106.127609,138.519440 103.370483,140.531937 
	C103.316681,137.817902 97.901947,136.399643 103.260101,133.420624 
z"/>
<path fill="#1780AB" opacity="1.000000" stroke="none" 
	d="
M90.029892,125.696541 
	C89.577240,126.896767 89.193024,128.073166 88.393227,128.544754 
	C86.866707,129.444855 85.103317,129.943207 82.371605,131.034393 
	C85.689461,132.505325 88.115166,133.580750 90.895615,134.813431 
	C89.981682,136.571823 89.176903,138.120193 88.116081,140.161209 
	C85.704826,138.379364 83.652939,136.863068 81.059174,134.946350 
	C81.059174,138.101257 81.059174,140.745041 81.059174,143.769318 
	C79.076576,143.769318 77.376686,143.769318 75.375801,143.769318 
	C75.610329,141.024292 75.831230,138.438660 76.146896,134.743835 
	C73.207748,136.865784 71.022972,138.443100 68.642647,140.161606 
	C67.574295,138.425858 66.647964,136.920868 65.468231,135.004166 
	C68.144730,133.754776 70.553635,132.630295 73.689316,131.166550 
	C70.616440,129.787750 68.250488,128.726151 65.514557,127.498528 
	C66.460434,125.823158 67.331810,124.279739 68.389328,122.406616 
	C70.857536,124.066818 73.112495,125.583595 76.151566,127.627792 
	C75.925682,124.046417 75.754486,121.332115 75.564667,118.322594 
	C77.409393,118.322594 79.154800,118.322594 81.299782,118.322594 
	C81.100433,121.184326 80.910904,123.905128 80.752281,126.182259 
	C84.323540,128.658508 85.895172,118.518272 90.029892,125.696541 
z"/>
<path fill="#1981AD" opacity="1.000000" stroke="none" 
	d="
M150.897141,136.947159 
	C150.897141,139.090652 150.897141,141.234131 150.897141,143.733276 
	C149.274261,143.733276 147.545349,143.733276 145.391769,143.733276 
	C145.580017,141.043350 145.767990,138.357193 146.000778,135.030609 
	C143.241547,136.990173 140.999771,138.582245 138.481735,140.370514 
	C137.348892,138.410675 136.382446,136.738663 135.281113,134.833313 
	C137.830811,133.662155 140.049194,132.643173 143.201614,131.195145 
	C140.274506,129.785950 138.029327,128.705048 134.930374,127.213112 
	C136.584290,125.503235 137.907593,124.135139 139.815033,123.127594 
	C143.898499,127.974487 147.397812,132.460831 150.897141,136.947159 
z"/>
<path fill="#C5BABC" opacity="1.000000" stroke="none" 
	d="
M151.178772,137.078247 
	C147.397812,132.460831 143.898499,127.974487 140.210571,123.213516 
	C140.021988,121.146156 140.021988,119.353432 140.021988,116.248055 
	C142.335464,119.304207 143.655487,121.047966 145.443115,123.218369 
	C147.415131,124.773949 148.919540,125.902885 150.423950,127.031830 
	C150.423950,127.031830 150.648972,126.964149 150.718262,127.365234 
	C151.856445,128.682037 152.925339,129.597778 153.994217,130.513504 
	C154.560654,131.192825 155.127090,131.872162 155.814026,133.179260 
	C155.480530,135.582397 155.026520,137.357742 154.572510,139.133087 
	C153.535141,138.491837 152.497772,137.850571 151.178772,137.078247 
z"/>
<path fill="#215D76" opacity="1.000000" stroke="none" 
	d="
M154.663910,139.473709 
	C155.026520,137.357742 155.480530,135.582397 155.950134,133.418045 
	C157.019684,133.107208 158.073593,133.185394 159.526672,133.279449 
	C159.951340,136.579178 159.976837,139.863052 159.996155,143.580200 
	C158.245087,142.613785 156.500198,141.214050 154.663910,139.473709 
z"/>
<path fill="#2185AE" opacity="1.000000" stroke="none" 
	d="
M150.365356,126.652245 
	C148.919540,125.902885 147.415131,124.773949 145.785294,123.366119 
	C145.519318,121.653641 145.378784,120.220047 145.203568,118.432755 
	C147.373413,118.432755 149.230957,118.432755 151.591492,118.432755 
	C151.137329,121.204247 150.722061,123.738457 150.365356,126.652245 
z"/>
<path fill="#1981AD" opacity="1.000000" stroke="none" 
	d="
M154.340332,130.343079 
	C152.925339,129.597778 151.856445,128.682037 150.832611,127.392151 
	C153.174866,125.555672 155.472061,124.093353 158.135574,122.397850 
	C159.182236,124.160446 160.068985,125.653748 161.213501,127.581108 
	C158.846191,128.521042 156.766327,129.346848 154.340332,130.343079 
z"/>
<path fill="#C8BDBD" opacity="1.000000" stroke="none" 
	d="
M181.625641,163.988464 
	C180.922028,162.006561 180.539932,159.893631 179.926361,157.446243 
	C179.910721,154.518997 180.126556,151.926224 180.958130,149.135864 
	C182.379623,148.612839 183.185379,148.287384 183.991135,147.961929 
	C185.241730,153.508850 186.855286,159.102448 181.625641,163.988464 
z"/>
<path fill="#2C5E70" opacity="1.000000" stroke="none" 
	d="
M184.099319,147.549850 
	C183.185379,148.287384 182.379623,148.612839 181.245148,148.959869 
	C180.933823,145.288071 180.951218,141.594681 180.985107,137.439148 
	C182.070251,140.363922 183.138870,143.750839 184.099319,147.549850 
z"/>
<path fill="#B3ADAE" opacity="1.000000" stroke="none" 
	d="
M167.139771,133.426453 
	C168.875702,134.354721 170.539032,135.664413 172.561401,136.978500 
	C171.994751,137.935562 171.069092,138.888214 170.143417,139.840866 
	C169.117996,137.829865 168.092575,135.818863 167.139771,133.426453 
z"/>
</svg>