<svg width="836" height="862" viewBox="0 0 836 862" fill="none" xmlns="http://www.w3.org/2000/svg">
<g clip-path="url(#clip0_219_990)">
<path d="M533.647 863.39C355.765 863.39 178.579 863.39 1.39355 863.39C1.39355 576.057 1.39355 288.724 1.39355 1.39038C280.06 1.39038 558.727 1.39038 837.394 1.39038C837.394 288.724 837.394 576.057 837.394 863.39C736.377 863.39 635.36 863.39 533.647 863.39ZM583.851 363.547C583.851 363.547 583.805 364.047 582.5 364.007C503.824 363.998 425.148 363.994 346.472 363.957C343.712 363.956 340.952 363.623 338.572 362.502C338.58 362.163 338.588 361.825 338.701 360.186C338.71 348.851 339.436 337.453 338.462 326.203C337.867 319.332 335.466 312.298 332.442 306.026C326.987 294.714 316.451 289.16 305.171 283.716C305.164 270.977 305.293 258.236 305.126 245.499C304.481 196.247 270.03 158.813 221.014 153.985C173.339 149.288 129.573 182.094 122.617 229.558C119.954 247.727 121.445 266.502 120.185 285.473C96.8397 294.095 86.5537 308.927 86.5704 333.897C86.5842 354.477 86.4245 375.059 86.6164 395.637C86.7865 413.869 85.8092 432.288 88.0616 450.285C91.7709 479.924 109.019 500.295 136.651 511.848C150.511 517.643 165.115 517.295 179.938 518.47C179.946 529.125 179.955 539.78 179.963 550.435C179.993 592.154 208.594 620.653 250.35 620.648C364.792 620.635 479.233 620.683 593.675 620.543C598.925 620.537 602.833 622.053 606.8 625.341C624.646 640.134 642.633 654.76 660.788 669.172C663.38 671.23 667.173 671.782 670.41 673.031C671.506 669.751 673.549 666.474 673.557 663.191C673.735 593.238 673.685 523.286 674.761 453.138C677.512 452.725 680.273 452.368 683.014 451.891C729.259 443.843 760.203 397.896 750.141 352.237C741.343 312.314 705.666 284.366 665.513 285.943C623.904 287.576 591.192 317.115 584.339 359.399C584.242 360.628 584.146 361.857 583.851 363.547ZM434.643 851.671C434.85 852.238 435.057 852.804 435.265 853.371C435.529 853.25 435.792 853.129 436.056 853.007C435.623 852.234 435.189 851.46 434.643 851.671Z" fill="white"/>
<path d="M179.699 517.18C165.115 517.294 150.51 517.643 136.65 511.848C109.018 500.295 91.7703 479.923 88.0609 450.284C85.8086 432.288 86.7859 413.869 86.6158 395.637C86.4238 375.059 86.5836 354.477 86.5698 333.897C86.5531 308.927 96.8391 294.094 121.279 285.266C132.228 285.042 142.083 285.026 152.582 284.943C193.525 284.908 233.823 284.939 274.796 284.964C285.354 284.978 295.237 284.999 305.119 285.019C316.45 289.16 326.987 294.713 332.441 306.026C335.465 312.298 337.866 319.332 338.461 326.203C339.436 337.453 338.709 348.851 337.993 360.836C307.54 361.486 277.795 361.43 248.05 361.592C245.717 361.605 243.392 363.13 240.513 364.143C203.952 369.39 180.142 396.511 180.004 432.644C179.896 460.823 179.8 489.002 179.699 517.18ZM115.484 356.618C115.487 366.541 115.157 376.484 115.734 386.374C115.873 388.742 119.029 390.935 120.797 393.208C122.734 390.982 126.309 388.788 126.352 386.527C126.762 365.073 126.667 343.607 126.464 322.147C126.43 318.532 124.608 314.605 120.218 315.878C118.158 316.476 115.819 320.261 115.709 322.697C115.218 333.521 115.488 344.381 115.484 356.618ZM126.075 423.549C126.243 419.45 127.106 415.21 126.303 411.31C125.865 409.184 122.603 407.637 120.614 405.829C118.914 407.783 116.503 409.49 115.708 411.76C114.85 414.211 115.169 417.243 115.601 419.921C115.969 422.194 116.771 425.71 118.204 426.181C120.226 426.845 123.006 425.207 126.075 423.549Z" fill="#0BA360" fill-opacity="0.5"/>
<path d="M179.819 517.825C179.801 489.002 179.896 460.823 180.004 432.644C180.143 396.511 203.952 369.391 241.085 364.209C257.056 364.036 271.906 364.03 286.756 363.928C303.901 363.811 321.047 363.61 338.192 363.445C340.952 363.623 343.712 363.955 346.472 363.957C425.148 363.994 503.824 363.998 583.309 364.635C584.016 368.573 583.913 371.883 583.158 375.211C472.249 375.227 361.994 375.225 251.739 375.232C248.49 375.232 245.204 375.035 241.999 375.438C224.066 377.697 209.453 385.326 200.42 401.685C200.482 401.741 200.585 401.609 200.133 401.598C199.409 402.107 199.139 402.627 198.575 403.07C198.282 402.992 197.693 403.136 197.203 403.198C194.179 404.405 192.459 405.652 196.03 408.095C194.403 414.276 192.921 419.935 191.364 426.199C191.206 430.069 191.123 433.334 190.503 436.769C190.323 441.444 190.68 445.948 191.116 451.101C191.203 485.326 191.126 518.904 191.307 552.481C191.335 557.743 191.941 563.157 193.294 568.232C200.152 593.966 221.84 609.532 250.534 609.54C358.912 609.568 467.294 610.068 575.662 609.1C596.433 608.915 613.194 612.805 627.956 627.825C638.015 638.059 650.195 646.218 662.634 656.283C662.634 587.572 662.634 520.48 663.314 453.267C667.222 453.208 670.451 453.27 673.679 453.333C673.685 523.285 673.735 593.238 673.557 663.191C673.549 666.474 671.505 669.751 670.41 673.031C667.173 671.782 663.38 671.23 660.788 669.172C642.633 654.76 624.646 640.133 606.8 625.341C602.833 622.053 598.925 620.536 593.675 620.543C479.233 620.682 364.791 620.635 250.349 620.648C208.594 620.653 179.993 592.154 179.963 550.435C179.955 539.78 179.946 529.125 179.819 517.825ZM190.186 412.504C189.663 413.104 189.124 413.693 188.66 414.335C188.632 414.372 189.207 414.844 189.502 415.113C189.889 414.441 190.277 413.768 190.186 412.504Z" fill="#283565"/>
<path d="M583.811 375.194C583.913 371.883 584.016 368.573 583.962 364.654C583.805 364.047 583.851 363.547 584.327 363.009C584.85 361.213 584.898 359.953 584.946 358.694C591.192 317.115 623.903 287.576 665.513 285.943C705.666 284.366 741.342 312.314 750.14 352.236C760.202 397.896 729.259 443.843 683.014 451.891C680.273 452.367 677.512 452.725 674.22 453.236C670.451 453.27 667.222 453.208 662.78 453.179C657.52 452.198 653.474 451.183 649.665 449.828C650.162 448.25 651.003 446.735 650.568 445.833C649.499 443.62 647.842 441.689 646.433 439.19C645.982 438.027 645.517 437.32 645.082 436.593C645.11 436.572 645.055 436.603 644.925 436.286C644.523 435.57 644.15 435.322 643.697 435.199C643.718 435.173 643.666 435.215 643.539 434.894C643.14 434.167 642.764 433.92 642.305 433.807C642.327 433.784 642.28 433.822 642.122 433.476C641.52 432.902 641.076 432.675 640.377 432.311C639.805 431.93 639.593 431.615 639.488 430.781C639.021 429.647 638.554 428.959 638.115 428.25C638.143 428.229 638.088 428.263 637.961 427.943C637.565 427.217 637.19 426.971 636.731 426.859C636.752 426.832 636.697 426.872 636.572 426.548C636.174 425.813 635.794 425.565 635.327 425.468C635.345 425.456 635.299 425.489 635.331 424.956C635.335 423.355 635.308 422.287 635.298 421.243C635.314 421.267 635.312 421.213 635.679 421.006C636.273 420.011 636.5 419.223 636.744 418.46C636.759 418.485 636.701 418.478 637.042 418.317C637.628 417.727 637.872 417.298 638.235 416.609C638.572 416.019 638.869 415.787 639.636 415.536C640.322 414.974 640.613 414.529 640.947 413.789C640.989 413.494 641.118 412.912 641.452 412.914C641.785 412.917 642.445 412.815 642.866 413.089C646.649 414.702 649.927 416.329 653.385 417.337C680.206 425.15 708.06 409.414 715.238 382.498C722.363 355.781 706.328 327.927 680.024 321.327C652.119 314.325 624.497 331.073 618.376 358.76C617.597 362.285 617.136 365.88 616.536 369.396C612.501 369.623 608.966 369.821 605.067 370.04C607.539 375.036 609.67 379.344 611.363 384.049C610.739 399.485 610.555 414.525 610.346 429.569C610.322 429.574 610.368 429.532 609.913 429.423C606.875 426.024 604.292 422.733 601.797 418.863C605.992 411.322 600.625 410.507 594.256 407.364C592.106 406.303 594.231 403.426 591.541 402.766C591.034 402.312 590.742 402.034 590.357 401.33C588.165 392.279 585.988 383.736 583.811 375.194Z" fill="#283565"/>
<path d="M305.145 284.368C295.237 284.999 285.355 284.978 274.858 284.319C274.251 270.257 274.49 256.83 274.219 243.413C273.615 213.522 249.158 187.055 220.328 184.789C186.53 182.132 157.913 202.172 153.389 233.794C150.986 250.593 152.301 267.921 151.937 285.01C142.083 285.026 132.229 285.042 121.709 285.03C121.445 266.502 119.954 247.727 122.616 229.558C129.573 182.094 173.339 149.288 221.014 153.985C270.029 158.813 304.481 196.247 305.126 245.498C305.293 258.236 305.164 270.977 305.145 284.368Z" fill="#283565"/>
<path d="M338.382 362.973C321.047 363.61 303.901 363.811 286.756 363.929C271.906 364.03 257.056 364.036 241.635 364.018C243.392 363.131 245.717 361.605 248.051 361.592C277.795 361.43 307.541 361.486 337.941 361.486C338.588 361.825 338.58 362.163 338.382 362.973Z" fill="#B2C4D4"/>
<path d="M434.699 851.179C435.189 851.461 435.623 852.234 436.056 853.007C435.793 853.129 435.529 853.25 435.265 853.371C435.058 852.804 434.85 852.238 434.699 851.179Z" fill="#191A1A"/>
<path d="M584.642 359.047C584.898 359.953 584.85 361.213 584.426 362.779C584.146 361.857 584.242 360.628 584.642 359.047Z" fill="#A5B9D1"/>
<path d="M152.582 284.943C152.301 267.921 150.986 250.593 153.389 233.794C157.913 202.172 186.53 182.132 220.329 184.789C249.158 187.055 273.615 213.522 274.219 243.413C274.49 256.83 274.251 270.257 274.183 284.325C233.823 284.939 193.525 284.908 152.582 284.943Z" fill="#FDFEFE"/>
<path d="M115.485 355.923C115.489 344.381 115.219 333.522 115.709 322.697C115.82 320.261 118.158 316.476 120.219 315.878C124.609 314.605 126.43 318.532 126.464 322.147C126.667 343.607 126.763 365.073 126.353 386.527C126.309 388.788 122.734 390.982 120.798 393.208C119.029 390.935 115.873 388.742 115.735 386.374C115.158 376.484 115.488 366.541 115.485 355.923Z" fill="#F9FBFC"/>
<path d="M125.769 424.051C123.007 425.207 120.226 426.845 118.205 426.181C116.772 425.71 115.969 422.194 115.602 419.921C115.169 417.243 114.85 414.211 115.708 411.76C116.503 409.49 118.915 407.784 120.615 405.829C122.603 407.637 125.865 409.184 126.303 411.311C127.107 415.21 126.244 419.451 125.769 424.051Z" fill="#F9FBFC"/>
<path d="M191.364 426.199C197.291 427.45 203.257 429.023 208.938 431.304C211.143 432.189 212.704 434.671 214.559 436.426C212.692 438.109 211.015 440.912 208.923 441.264C202.851 442.284 196.56 442.528 191.463 436.855C191.123 433.334 191.206 430.069 191.364 426.199Z" fill="#F9FBFC"/>
<path d="M197.203 403.198C197.358 404.409 197.024 405.683 196.432 407.265C192.459 405.652 194.179 404.405 197.203 403.198Z" fill="#191A1A"/>
<path d="M190.426 412.8C190.277 413.768 189.89 414.441 189.502 415.113C189.208 414.844 188.633 414.372 188.66 414.335C189.125 413.693 189.664 413.104 190.426 412.8Z" fill="#191A1A"/>
<path d="M200.133 401.598C200.264 402.011 199.943 402.414 199.245 402.982C199.138 402.627 199.409 402.107 200.133 401.598Z" fill="#FDFEFE"/>
<path d="M188.731 419.235C188.681 419.157 188.781 419.312 188.731 419.235V419.235Z" fill="#191A1A"/>
<path d="M611.801 383.653C609.67 379.344 607.538 375.036 605.066 370.04C608.966 369.821 612.501 369.623 616.535 369.396C617.136 365.88 617.597 362.285 618.376 358.76C624.497 331.073 652.119 314.325 680.024 321.327C706.328 327.927 722.363 355.781 715.238 382.499C708.06 409.414 680.206 425.15 653.385 417.337C649.926 416.329 646.649 414.703 643.03 412.666C645.412 409.516 648.053 407.064 651.179 404.802C669.21 411.939 687.334 407.137 698.238 392.655C708.695 378.766 708.423 359.463 697.575 345.615C686.808 331.871 668.2 327.095 651.893 333.889C637.415 339.921 627.302 355.558 629.181 369.411C632.706 369.582 636.297 369.755 640.511 369.959C634.84 380.385 629.472 390.256 623.685 400.141C622.668 399.317 622.07 398.48 621.89 397.254C622.31 392.678 622.31 388.489 622.31 384.371C621.069 384.107 622.546 404.814 621.89 404.802C619.621 404.762 615.222 383.849 612.67 383.773C612.389 383.687 611.801 383.653 611.801 383.653Z" fill="#EFFAFD"/>
<path d="M614.46 387.734C614.09 399.133 613.814 410.535 613.277 421.929C613.159 424.451 608.826 427.045 607.534 429.61C607.079 415.069 610.591 400.371 611.339 385.389C611.865 385.004 612.57 385.038 613.05 385.45C613.84 386.486 614.15 387.11 614.46 387.734Z" fill="#257FBB"/>
<path d="M618.301 436.478C607.5 424.393 598.749 413.233 589.937 400.668C602.782 402.275 616.946 404.381 628.362 408.469C662.161 420.574 664.565 429.865 639.353 445.946C632.582 444.025 626.467 440.714 618.301 436.478Z" fill="#283565"/>
<path d="M635.331 424.956C635.007 424.078 634.715 422.667 634.852 421.238C635.309 422.287 635.336 423.355 635.331 424.956Z" fill="#257FBB"/>
<path d="M635.679 421.006C635.553 420.443 635.794 419.674 636.382 418.669C636.501 419.223 636.273 420.011 635.679 421.006Z" fill="#257FBB"/>
<path d="M639.488 430.781C639.025 430.529 638.563 429.83 638.094 428.701C638.554 428.959 639.022 429.647 639.488 430.781Z" fill="#257FBB"/>
<path d="M646.433 439.19C645.959 438.927 645.497 438.209 645.044 437.052C645.518 437.32 645.982 438.027 646.433 439.19Z" fill="#257FBB"/>
<path d="M636.572 426.548C636.206 426.794 635.828 426.546 635.436 425.803C635.795 425.565 636.174 425.814 636.572 426.548Z" fill="#257FBB"/>
<path d="M639.636 415.536C639.575 415.264 639.907 414.873 640.572 414.284C640.613 414.529 640.322 414.974 639.636 415.536Z" fill="#257FBB"/>
<path d="M637.042 418.317C636.969 418.078 637.237 417.679 637.811 417.074C637.872 417.298 637.628 417.727 637.042 418.317Z" fill="#257FBB"/>
<path d="M637.961 427.943C637.706 428.023 637.323 427.783 636.825 427.214C637.19 426.971 637.565 427.217 637.961 427.943Z" fill="#257FBB"/>
<path d="M642.122 433.476C641.871 433.568 641.463 433.314 640.844 432.754C641.077 432.675 641.52 432.903 642.122 433.476Z" fill="#257FBB"/>
<path d="M643.539 434.894C643.28 434.975 642.894 434.735 642.396 434.163C642.764 433.92 643.14 434.168 643.539 434.894Z" fill="#257FBB"/>
<path d="M644.925 436.286C644.667 436.367 644.278 436.131 643.783 435.56C644.15 435.322 644.523 435.57 644.925 436.286Z" fill="#257FBB"/>
<path d="M443.975 495.648C452.039 498.702 459.617 501.523 468.002 504.645C464.585 510.854 461.423 516.6 457.84 523.109C449.746 516.838 442.015 510.85 432.839 503.742C434.32 515.033 435.587 524.69 436.914 534.815C430.189 534.815 423.816 534.815 416.593 534.815C417.77 524.91 418.926 515.181 420.285 503.742C411.378 510.805 403.696 516.898 395.4 523.477C391.734 517.101 388.338 511.193 384.604 504.695C393.388 501.128 401.723 497.744 412.062 493.547C401.692 489.173 393.426 485.688 384.724 482.018C388.177 475.921 391.437 470.164 394.95 463.96C403.476 470.452 411.515 476.574 420.613 483.501C419.142 472.281 417.859 462.489 416.506 452.167C423.446 452.167 430.033 452.167 437.167 452.167C435.749 462.175 434.368 471.922 432.748 483.353C441.801 476.482 449.632 470.538 457.947 464.227C461.302 470.125 464.478 475.707 468.077 482.034C458.526 485.686 449.376 489.185 439.314 493.033C441.253 494.139 442.371 494.777 443.975 495.648Z" fill="#0E73B5"/>
<path d="M564.245 468.559C566.29 467.08 567.936 465.877 570.12 464.28C573.505 470.252 576.656 475.811 580.194 482.054C570.565 485.721 561.36 489.226 550.361 493.414C561.011 497.442 570.171 500.906 580.096 504.659C576.665 510.887 573.501 516.632 569.947 523.085C561.763 516.739 553.995 510.715 544.876 503.643C546.382 514.853 547.698 524.641 549.073 534.873C542.079 534.873 535.71 534.873 528.681 534.873C529.908 524.747 531.093 514.977 532.453 503.753C523.673 510.688 515.927 516.806 507.535 523.434C503.953 517.268 500.525 511.367 496.626 504.655C506.321 500.859 515.642 497.209 526.092 493.117C515.652 489.268 506.573 485.922 496.749 482.301C500.253 476.02 503.451 470.287 506.956 464.005C515.441 470.38 523.467 476.409 532.644 483.304C531.216 472.032 529.981 462.281 528.689 452.077C535.583 452.077 541.986 452.077 549.265 452.077C547.842 462.212 546.448 472.142 544.849 483.528C551.853 478.111 557.849 473.474 564.245 468.559Z" fill="#0D73B5"/>
<path d="M351.095 474.101C351.095 474.101 351.424 474.343 351.365 475.072C351.919 476.493 352.531 477.185 353.143 477.878C353.143 477.878 352.664 478.026 352.674 478.412C350.357 481.055 348.03 483.312 345.703 485.568C345.703 485.568 345.689 485.426 345.195 485.37C339.942 487.284 335.183 489.253 330.425 491.223C330.425 491.223 330.394 491.056 329.938 490.986C324.183 491.529 325.336 494.614 328.412 495.856C335.794 498.836 343.573 500.839 351.192 503.236C351.192 503.236 351.136 503.304 351.188 503.787C351.836 505.929 352.434 507.587 353.031 509.246C353.031 509.246 352.62 508.925 352.356 509.16C350.553 512.614 349.013 515.833 347.473 519.051C347.473 519.051 347.166 519.144 346.677 518.97C344.434 518.878 342.681 518.959 340.928 519.041C340.928 519.041 341.132 518.715 341.009 518.482C340.398 518.097 339.909 517.945 339.42 517.793C339.42 517.793 339.93 517.546 339.68 517.229C338.624 516.585 337.82 516.259 337.015 515.932C337.015 515.932 337.144 515.855 337.081 515.426C335.991 514.499 334.964 514.002 333.938 513.504C333.938 513.504 334.126 513.176 334.015 512.942C333.411 512.6 332.918 512.491 332.425 512.382C332.425 512.382 332.423 512.214 332.45 511.777C330.624 510.194 328.771 509.048 326.917 507.902C326.917 507.902 327.127 507.814 327.026 507.49C326.436 507.063 325.946 506.96 325.456 506.857C325.456 506.857 325.445 506.722 325.464 506.235C323.679 505.373 321.877 504.998 320.074 504.623C320.423 506.497 320.771 508.371 321.12 510.244C321.302 510.866 321.485 511.489 321.272 513.022C321.911 519.199 322.944 524.465 323.978 529.731C324.15 530.318 324.322 530.905 323.892 532.061C320.149 533.045 317.012 533.504 313.865 533.867C307.967 534.548 305.443 533.071 307.234 526.245C308.828 520.167 308.827 513.647 309.253 507.303C309.43 504.67 308.904 501.958 305.494 505.271C305.494 505.271 305.436 505.041 305.057 505.09C303.17 506.601 301.663 508.062 300.156 509.524C300.156 509.524 299.726 509.54 299.516 509.462C299.079 509.846 298.852 510.309 298.624 510.772C298.624 510.772 298.399 510.515 298.083 510.586C297.009 511.522 296.252 512.387 295.494 513.251C295.494 513.251 295.478 513.12 295.181 513.23C294.602 513.735 294.321 514.131 294.04 514.527C294.04 514.527 294.006 514.428 293.594 514.473C292.665 515.139 292.147 515.76 291.629 516.382C291.629 516.382 291.527 516.19 291.134 516.217C289.528 517.531 288.316 518.819 287.103 520.107C287.103 520.107 287.048 519.991 286.583 519.989C283.892 518.739 281.665 517.492 279.438 516.244C279.438 516.244 279.944 515.955 279.86 515.607C276.94 510.208 273.89 505.129 281.534 501.4C281.534 501.4 281.693 501.372 282.36 501.539C287.534 499.761 292.04 497.816 296.547 495.871C296.547 495.871 296.585 496.036 297.016 496.116C298.791 495.286 300.135 494.375 301.479 493.464C300.604 492.268 299.957 490.362 298.815 489.996C293.461 488.282 287.971 486.992 282.53 485.551C282.53 485.551 282.688 485.476 282.488 485.103C280.353 483.764 278.417 482.799 276.601 481.894C276.716 479.426 276.816 477.289 276.917 475.152C276.917 475.152 277.021 475.319 277.438 475.175C278.963 472.563 280.072 470.096 281.181 467.63C281.181 467.63 281.138 467.333 281.781 467.255C284.135 467.481 285.846 467.785 287.557 468.089C287.557 468.089 287.344 468.136 287.446 468.503C288.355 469.184 289.163 469.5 289.97 469.815C289.97 469.815 289.862 469.885 290.021 470.181C290.638 470.678 291.095 470.879 291.552 471.08C291.552 471.08 291.382 471.127 291.511 471.435C292.127 471.903 292.615 472.063 293.103 472.223C293.103 472.223 292.88 472.331 292.996 472.688C293.907 473.372 294.702 473.699 295.497 474.027C295.497 474.027 295.411 474.091 295.574 474.455C296.7 475.384 297.662 475.95 298.625 476.516C298.625 476.516 298.455 476.585 298.551 476.91C299.141 477.376 299.634 477.517 300.127 477.658C300.127 477.658 299.572 477.837 299.843 478.191C300.92 478.874 301.726 479.203 302.532 479.531C302.532 479.531 302.401 479.612 302.466 480.044C303.57 480.94 304.611 481.404 305.651 481.869C305.651 481.869 305.426 482.345 305.5 482.481C306.499 482.668 307.424 482.72 308.35 482.771C308.275 482.066 308.2 481.36 308.526 479.699C307.93 473.024 306.933 467.306 305.937 461.587C305.744 460.967 305.551 460.347 305.747 458.835C307.939 452.672 312.587 451.646 323.13 454.441C321.986 461.053 320.68 467.699 319.768 474.398C319.488 476.456 320.286 478.659 320.591 480.796C321.189 480.878 321.787 480.96 322.982 481.365C323.916 481.431 324.251 481.176 324.587 480.92C324.587 480.92 324.624 481.03 325.03 480.994C325.992 480.357 326.547 479.755 327.103 479.154C327.103 479.154 327.177 479.364 327.557 479.311C329.159 477.995 330.382 476.732 331.605 475.469C331.605 475.469 331.613 475.492 332.047 475.459C333.021 474.825 333.559 474.225 334.098 473.624C334.098 473.624 334.168 473.823 334.552 473.768C335.942 472.686 336.95 471.658 337.958 470.631C337.958 470.631 337.907 470.75 338.375 470.772C339.087 470.34 339.332 469.885 339.577 469.431C339.577 469.431 339.679 469.59 340.069 469.561C344.289 467.247 347.161 467.437 348.588 472.352C348.809 473.113 350.229 473.527 351.095 474.101Z" fill="#0C73B6"/>
<path d="M304.822 451.26C304.83 450.753 304.734 450.69 304.738 450.747C311.296 451.17 317.85 451.537 325.436 451.961C323.784 461.445 322.192 470.58 320.596 480.256C320.287 478.659 319.488 476.456 319.768 474.398C320.68 467.699 321.986 461.054 323.131 454.442C312.587 451.646 307.94 452.672 305.805 458.346C305.254 456.422 305.034 454.095 304.822 451.26Z" fill="#2574A3"/>
<path d="M624.599 440.953C624.39 437.805 610.134 428.968 610.281 426.134C601.224 419.878 590.077 319.774 621.427 403.889C648.597 360.093 646.925 444.243 650.687 449.769C646.261 448.29 629.364 443.222 624.599 440.953Z" fill="#283565"/>
<path d="M306.003 505.182C308.904 501.958 309.43 504.67 309.253 507.303C308.827 513.647 308.828 520.167 307.234 526.245C305.443 533.071 307.967 534.548 313.865 533.867C317.012 533.504 320.149 533.045 323.845 532.523C323.335 533.377 322.313 535.105 321.199 535.166C315.916 535.459 310.608 535.297 304.282 535.297C305.333 527.082 306.431 519.416 307.224 511.719C307.447 509.558 306.775 507.305 306.003 505.182Z" fill="#2574A3"/>
<path d="M350.829 502.909C343.573 500.839 335.794 498.836 328.412 495.856C325.337 494.614 324.183 491.529 330.016 491.02C327.141 493.56 329.156 494.535 331.682 495.477C337.954 497.818 344.206 500.21 350.829 502.909Z" fill="#2574A3"/>
<path d="M282.848 485.922C287.972 486.992 293.462 488.282 298.815 489.996C299.957 490.362 300.604 492.268 301.479 493.464C300.135 494.375 298.791 495.286 296.94 496.079C297.474 495.158 298.514 494.355 300.491 492.829C294.286 490.489 288.726 488.391 282.848 485.922Z" fill="#2574A3"/>
<path d="M305.844 462.147C306.934 467.306 307.93 473.025 308.589 479.171C307.417 473.968 306.584 468.338 305.844 462.147Z" fill="#2574A3"/>
<path d="M324.047 529.17C322.945 524.465 321.911 519.199 321.219 513.511C322.412 518.263 323.263 523.436 324.047 529.17Z" fill="#2574A3"/>
<path d="M280.977 501.45C273.891 505.129 276.94 510.208 279.623 515.776C277.216 512.629 274.962 508.965 272.241 504.543C275.417 503.362 277.919 502.431 280.977 501.45Z" fill="#2574A3"/>
<path d="M351.029 473.62C350.23 473.527 348.809 473.113 348.588 472.352C347.162 467.437 344.289 467.247 339.977 469.545C341.332 467.897 343.17 466.235 345.755 463.898C347.68 467.314 349.321 470.226 351.029 473.62Z" fill="#2574A3"/>
<path d="M330.967 491.195C335.183 489.253 339.942 487.284 345.259 485.401C341.048 487.381 336.279 489.274 330.967 491.195Z" fill="#2574A3"/>
<path d="M276.521 475.434C276.817 477.289 276.716 479.426 276.601 481.894C278.417 482.799 280.353 483.764 282.48 485.19C279.499 484.72 276.327 483.79 272.431 482.648C273.907 479.878 275.016 477.797 276.521 475.434Z" fill="#2574A3"/>
<path d="M296.007 495.914C292.041 497.816 287.534 499.761 282.433 501.576C286.381 499.617 290.924 497.787 296.007 495.914Z" fill="#2574A3"/>
<path d="M346.237 485.54C348.031 483.312 350.358 481.055 352.902 478.306C353.948 479.075 354.777 480.337 355.947 482.116C352.571 483.365 349.671 484.439 346.237 485.54Z" fill="#2574A3"/>
<path d="M321.209 509.661C320.771 508.371 320.423 506.497 320.074 504.623C321.877 504.998 323.68 505.373 325.404 506.267C322.765 505.419 320.798 505.091 321.209 509.661Z" fill="#2574A3"/>
<path d="M347.852 518.791C349.013 515.833 350.553 512.614 352.578 509.299C351.452 512.312 349.841 515.422 347.852 518.791Z" fill="#2574A3"/>
<path d="M279.544 516.723C281.665 517.492 283.892 518.739 286.635 520.027C285.98 521.082 284.808 522.096 283.226 523.464C281.881 521.109 280.765 519.156 279.544 516.723Z" fill="#2574A3"/>
<path d="M341.145 519.435C342.681 518.959 344.434 518.878 346.836 518.949C346.123 525.043 343.614 521.368 341.145 519.435Z" fill="#2574A3"/>
<path d="M353.408 508.956C352.434 507.587 351.836 505.929 351.205 503.748C355.402 503.433 356.327 505.221 353.408 508.956Z" fill="#2574A3"/>
<path d="M280.775 467.921C280.072 470.096 278.964 472.563 277.347 475.137C278.015 472.9 279.192 470.557 280.775 467.921Z" fill="#2574A3"/>
<path d="M287.35 467.685C285.846 467.785 284.135 467.481 281.9 467.164C283.429 461.416 285.231 466.765 287.35 467.685Z" fill="#2574A3"/>
<path d="M327.115 508.303C328.77 509.048 330.624 510.194 332.391 511.837C330.641 511.124 328.977 509.915 327.115 508.303Z" fill="#2574A3"/>
<path d="M300.578 509.377C301.663 508.062 303.17 506.601 305.168 505.133C304.105 506.494 302.553 507.862 300.578 509.377Z" fill="#2574A3"/>
<path d="M287.532 519.99C288.316 518.819 289.528 517.531 291.24 516.241C290.48 517.451 289.22 518.662 287.532 519.99Z" fill="#2574A3"/>
<path d="M331.179 475.595C330.382 476.732 329.16 477.995 327.448 479.287C328.224 478.119 329.488 476.92 331.179 475.595Z" fill="#2574A3"/>
<path d="M337.546 470.766C336.951 471.659 335.943 472.686 334.448 473.747C335.019 472.821 336.076 471.861 337.546 470.766Z" fill="#2574A3"/>
<path d="M334.126 513.873C334.964 514.002 335.991 514.499 337.046 515.493C336.155 515.407 335.235 514.824 334.126 513.873Z" fill="#2574A3"/>
<path d="M305.461 481.503C304.611 481.404 303.571 480.94 302.5 479.975C303.403 480.028 304.337 480.582 305.461 481.503Z" fill="#2574A3"/>
<path d="M295.908 513.149C296.252 512.387 297.009 511.522 298.228 510.678C297.899 511.481 297.111 512.264 295.908 513.149Z" fill="#2574A3"/>
<path d="M307.894 482.603C307.424 482.72 306.498 482.668 305.582 482.231C306.207 482.041 306.822 482.238 307.894 482.603Z" fill="#2574A3"/>
<path d="M298.438 476.134C297.663 475.95 296.701 475.384 295.585 474.402C296.371 474.575 297.311 475.164 298.438 476.134Z" fill="#2574A3"/>
<path d="M337.187 516.301C337.82 516.259 338.625 516.585 339.44 517.38C338.753 517.456 338.055 517.063 337.187 516.301Z" fill="#2574A3"/>
<path d="M295.293 473.678C294.702 473.699 293.907 473.372 293.068 472.587C293.713 472.53 294.401 472.93 295.293 473.678Z" fill="#2574A3"/>
<path d="M289.775 469.456C289.163 469.5 288.356 469.184 287.5 468.408C288.161 468.33 288.87 468.713 289.775 469.456Z" fill="#2574A3"/>
<path d="M292.023 516.275C292.147 515.76 292.665 515.139 293.639 514.5C293.536 515.045 292.977 515.606 292.023 516.275Z" fill="#2574A3"/>
<path d="M333.699 473.717C333.559 474.225 333.021 474.825 332.036 475.453C332.16 474.923 332.729 474.366 333.699 473.717Z" fill="#2574A3"/>
<path d="M353.072 477.419C352.531 477.185 351.919 476.493 351.359 475.275C351.942 475.487 352.471 476.223 353.072 477.419Z" fill="#2574A3"/>
<path d="M326.7 479.251C326.548 479.756 325.992 480.357 324.98 480.965C325.115 480.431 325.706 479.889 326.7 479.251Z" fill="#2574A3"/>
<path d="M302.36 479.163C301.726 479.203 300.92 478.874 300.11 478.076C300.801 478.002 301.494 478.399 302.36 479.163Z" fill="#2574A3"/>
<path d="M339.573 518.121C339.909 517.945 340.398 518.097 340.943 518.662C340.574 518.866 340.15 518.657 339.573 518.121Z" fill="#2574A3"/>
<path d="M294.401 514.43C294.321 514.131 294.602 513.735 295.246 513.242C295.326 513.54 295.044 513.936 294.401 514.43Z" fill="#2574A3"/>
<path d="M332.597 512.683C332.918 512.491 333.411 512.6 333.959 513.123C333.523 513.521 333.108 513.337 332.597 512.683Z" fill="#2574A3"/>
<path d="M298.967 510.678C298.852 510.309 299.079 509.846 299.728 509.435C299.87 509.852 299.59 510.218 298.967 510.678Z" fill="#2574A3"/>
<path d="M325.619 507.155C325.947 506.96 326.436 507.063 326.962 507.583C326.518 507.98 326.113 507.797 325.619 507.155Z" fill="#2574A3"/>
<path d="M324.244 480.958C324.252 481.176 323.916 481.431 323.422 481.474C323.264 481.262 323.901 480.996 324.244 480.958Z" fill="#2574A3"/>
<path d="M299.966 477.333C299.634 477.517 299.141 477.376 298.58 476.823C298.944 476.611 299.375 476.81 299.966 477.333Z" fill="#2574A3"/>
<path d="M292.939 471.884C292.615 472.063 292.127 471.903 291.528 471.349C291.87 471.151 292.323 471.348 292.939 471.884Z" fill="#2574A3"/>
<path d="M339.233 469.518C339.333 469.886 339.088 470.34 338.423 470.73C338.299 470.312 338.594 469.959 339.233 469.518Z" fill="#2574A3"/>
<path d="M291.401 470.729C291.096 470.879 290.639 470.678 290.036 470.118C290.344 469.965 290.797 470.171 291.401 470.729Z" fill="#2574A3"/>
<path d="M651.179 404.802C648.051 403.437 645.409 402.263 642.43 401.394C636.009 406.403 629.924 411.108 624.182 415.546C624.182 411.751 624.182 406.598 624.143 400.786C629.472 390.256 634.84 380.385 640.511 369.959C636.297 369.755 632.706 369.581 629.181 369.411C627.302 355.558 637.415 339.921 651.893 333.889C668.2 327.094 686.808 331.871 697.575 345.615C708.423 359.463 708.695 378.765 698.238 392.654C687.335 407.137 669.21 411.939 651.179 404.802Z" fill="#283565"/>
<path d="M399.755 422.732C395.948 422.731 392.779 422.731 389.61 422.731C389.701 413.751 391.902 411.233 398.672 411.54C404.89 411.822 406.817 414.375 406.288 422.297C404.381 422.437 402.387 422.585 399.755 422.732Z" fill="#FDFEFE"/>
</g>
<defs>
<clipPath id="clip0_219_990">
<rect width="836" height="862" fill="white"/>
</clipPath>
</defs>
</svg>
