<svg width="899" height="1009" viewBox="0 0 899 1009" fill="none" xmlns="http://www.w3.org/2000/svg">
<path d="M761.025 628.47C761.872 629.313 762.719 630.155 763.875 632.164C764.77 633.862 765.356 634.395 765.942 634.927C765.942 634.927 765.855 634.949 765.869 635.637C766.488 646.947 767.406 657.549 767.537 668.201C767.586 672.152 765.788 676.219 764.827 680.521C764.821 680.808 764.845 681.38 764.51 681.157C763.496 681.005 762.817 681.075 762.076 680.226C761.827 665.926 760.49 661.171 756.142 661.314C746.766 661.621 737.391 662.528 728.026 663.597C727.12 663.701 726.278 666.658 725.092 668.122C723.405 666.718 722.033 665.484 720.569 663.32C719.936 651.134 719.394 639.877 719.188 628.594C720.767 627.874 722.011 627.18 723.255 626.486C725.994 625.696 728.734 624.906 732.276 624.119C733.859 624.28 734.639 624.438 735.432 625.382C736.386 632.178 736.768 639.231 738.449 643.858C739.742 647.417 742.754 649.809 744.848 649.323C747.638 648.676 750.715 632.535 750.625 624.582C754.362 625.803 757.694 627.136 761.025 628.47Z" fill="#0BA360" fill-opacity="0.5"/>
<path d="M764.951 743.875C764.951 743.875 764.864 744.872 764.804 746.175C763.856 750.156 763.221 753.948 762.039 755.326C755.704 762.715 749.232 769.502 742.474 776.197C740.751 775.384 739.36 774.871 737.777 773.769C734.223 769.134 730.861 765.087 727.316 760.452C724.677 755.944 722.221 752.025 719.773 747.385C719.785 745.703 719.789 744.743 719.818 743.461C719.837 742.694 719.774 742.291 719.497 741.232C719.277 739.493 719.216 738.456 719.319 737.423C719.482 737.427 719.803 737.302 720.042 737.272C720.28 737.242 720.757 737.212 720.84 738.078C722.82 739.835 724.7 741.145 726.616 741.54C732.917 742.838 739.231 743.806 745.857 744.955C745.83 745.638 745.919 743.393 745.991 741.621C748.074 741.621 749.954 741.403 751.821 741.665C756.201 742.28 760.575 743.124 764.951 743.875Z" fill="#334C5B"/>
<path d="M761.061 627.481C757.694 627.136 754.363 625.802 750.313 624.42C748.551 621.409 747.508 618.446 746.556 614.679C749.698 604.355 749.174 598.119 745.256 590.418C743.44 586.849 742.192 581.793 740.673 576.69C740.402 574.652 740.144 573.336 739.899 572.029C739.913 572.038 739.891 572.045 740.16 571.681C740.756 568.492 743.375 564.848 739.899 563.372C739.92 563.355 739.919 563.456 739.821 562.811C739.138 560.352 738.552 558.539 737.967 556.726C739.656 555.329 741.345 553.933 743.389 553.645C743.746 561.467 743.561 568.221 743.84 574.876C743.956 577.665 745.056 580.242 746.098 582.912C750.674 583.073 753.567 580.167 753.43 568.962C753.406 567.001 754.39 564.976 754.909 562.981C759.812 582.727 760.974 604.349 761.061 627.481Z" fill="#283565"/>
<path d="M679.817 575.822C682.66 581.903 685.181 589.118 688.41 593.838C695.989 604.918 703.908 614.804 711.744 626.459C710.658 634.599 709.515 641.453 708.151 647.732C706.135 644.969 704.114 643.397 702.584 640.493C694.185 624.548 685.859 608.399 677.658 591.936C676.817 590.249 676.969 586.018 676.665 582.884C676.669 582.799 676.704 582.648 677.074 582.726C678.236 580.476 679.027 578.149 679.817 575.822Z" fill="#EABEC8"/>
<path d="M742.807 776.497C749.232 769.502 755.704 762.715 762.04 755.326C763.221 753.948 763.856 750.156 764.811 746.683C767.107 754.689 769.518 744.768 772.119 747.096C771.114 751.321 769.867 754.823 768.478 758.005C767.754 759.663 766.617 760.433 765.948 762.165C764.139 766.847 762.33 771.6 760.815 776.768C759.68 780.638 759.002 785.197 757.772 789.598C756.063 790.467 754.702 791.187 753.023 791.572C750.054 789.274 747.401 787.312 744.57 784.721C743.864 781.56 743.335 779.029 742.807 776.497Z" fill="#334C5B"/>
<path d="M774.306 673.978C774.734 682.88 775.001 691.84 775.624 700.671C776.75 716.638 775.56 722.15 769.254 728.56C768.582 729.243 768.044 730.601 767.141 731.513C766.774 730.493 766.709 729.605 766.713 728.168C766.813 727.246 766.847 726.874 767.143 726.065C767.48 721.353 767.554 717.078 767.635 711.92C766.709 701.151 765.777 691.266 764.845 681.38C764.845 681.38 764.821 680.808 765.206 680.664C768.497 678.339 771.402 676.159 774.306 673.978Z" fill="#EABEC8"/>
<path d="M766.645 728.718C766.71 729.605 766.774 730.493 766.922 732.02C766.516 736.145 766.026 739.63 765.243 743.495C760.575 743.124 756.201 742.28 751.821 741.665C749.954 741.403 748.074 741.621 745.991 741.621C745.919 743.393 745.829 745.638 745.857 744.955C739.231 743.806 732.917 742.838 726.616 741.54C724.7 741.145 722.82 739.835 721.085 737.465C722.597 734.999 723.944 733.181 725.298 733.159C737.423 732.963 749.55 733.251 761.674 732.915C763.338 732.869 764.989 730.182 766.645 728.718Z" fill="#334C5B"/>
<path d="M779.12 748.23C786.485 759.171 786.844 770.944 779.506 780.75C775.1 786.636 769.936 789.599 764.579 793.492C763.976 792.719 763.906 792.33 763.855 791.104C765.056 785.867 766.329 777.593 767.402 777.724C772.614 778.36 773.767 768.381 776.102 762.197C777.281 759.072 776.957 753.026 777.614 748.277C778.317 748.244 778.718 748.237 779.12 748.23Z" fill="#334C5B"/>
<path d="M777.312 748.302C776.957 753.027 777.281 759.073 776.102 762.197C773.767 768.381 772.613 778.36 767.402 777.724C766.329 777.593 765.056 785.867 763.502 790.913C761.459 790.856 759.79 790.153 758.12 789.449C759.001 785.197 759.68 780.638 760.814 776.768C762.329 771.6 764.139 766.847 765.947 762.165C766.616 760.433 767.754 759.663 768.478 758.005C769.867 754.823 771.113 751.321 772.468 747.212C773.839 746.384 775.162 746.295 776.882 746.832C777.28 747.457 777.312 748.302 777.312 748.302Z" fill="#334C5B"/>
<path d="M730.291 585.985C730.332 585.101 730.657 584.935 731.134 584.901C732.146 584.196 732.681 583.524 733.215 582.9C733.213 582.948 733.174 582.913 733.473 582.89C734.225 582.135 734.679 581.405 735.132 580.725C735.131 580.776 735.088 580.745 735.385 580.731C736.133 579.987 736.583 579.257 737.035 578.559C737.037 578.59 737.02 578.535 737.332 578.632C738.128 579.524 738.611 580.319 738.932 581.755C737.308 585.542 735.846 588.688 733.753 593.191C735.984 600.534 738.246 607.978 740.342 616.17C738.591 619.476 737.005 622.036 735.42 624.596C734.639 624.438 733.859 624.28 732.688 624.132C729.491 612.318 728.514 599.977 730.291 585.985Z" fill="#283565"/>
<path d="M774.391 673.12C771.402 676.159 768.498 678.34 765.213 680.377C765.789 676.219 767.586 672.152 767.538 668.201C767.407 657.549 766.489 646.947 765.879 635.54C770.98 644.615 773.724 657.262 774.391 673.12Z" fill="#1F4167"/>
<path d="M755.25 563.168C754.848 566.07 753.591 568.315 753.621 570.489C753.796 582.914 750.103 586.136 744.253 584.841C743.751 573.319 743.75 562.91 743.75 552.5C746.128 553.308 748.507 554.117 751.335 554.888C752.853 557.394 753.921 559.936 755.25 563.168Z" fill="#283565"/>
<path d="M708.374 648.307C709.516 641.453 710.658 634.599 711.957 627.034C715.645 626.186 719.176 626.048 722.981 626.198C722.011 627.18 720.767 627.874 718.798 628.578C716.878 628.887 715.684 629.185 715.176 629.312C714.75 639.439 714.37 648.464 713.699 657.389C711.73 654.296 710.052 651.301 708.374 648.307Z" fill="#1B3C60"/>
<path d="M757.772 789.598C759.79 790.152 761.46 790.856 763.483 791.75C763.906 792.33 763.976 792.719 764.235 793.571C764.313 794.895 764.201 795.757 764.011 797.272C763.901 798.85 763.868 799.776 763.44 801.527C758.88 801.452 754.454 808.746 750.854 800.204C751.897 797.382 752.618 794.644 753.34 791.906C754.701 791.187 756.063 790.467 757.772 789.598Z" fill="#34456B"/>
<path d="M730.333 587.281C731.104 580.778 731.875 574.274 732.594 566.767C733.722 563.264 734.903 560.764 736.441 559.021C737.836 560.943 738.873 562.108 739.91 563.274C739.91 563.274 739.912 563.152 739.916 564.222C739.907 568.099 739.894 570.905 739.88 573.711C739.88 573.711 739.904 573.702 739.579 573.948C738.42 576.661 737.585 579.128 736.75 581.596C736.75 581.596 736.769 581.664 736.45 581.638C735.636 582.502 735.14 583.392 734.644 584.281C734.644 584.281 734.691 584.32 734.376 584.325C733.559 585.192 733.059 586.054 732.558 586.917C732.558 586.917 732.601 586.959 732.222 586.916C731.34 587.009 730.837 587.145 730.333 587.281Z" fill="#283565"/>
<path d="M745.141 552.909C745.657 562.669 745.657 572.285 745.666 582.933C744.435 581.226 742.348 578.586 742.126 575.729C741.597 568.912 741.949 561.993 741.935 554.1C741.926 553.084 742.754 552.648 743.188 552.501C743.957 552.491 744.291 552.628 745.141 552.909Z" fill="#283565"/>
<path d="M679.756 574.998C679.027 578.149 678.236 580.476 677.056 581.933C676.072 576.403 675.476 571.744 674.881 567.085C676.867 568.116 679.778 565.913 679.756 574.998Z" fill="#D0ADBA"/>
<path d="M669.877 998.834C669.787 993.14 670.025 987.383 670.264 981.626C673.284 987.946 673.56 993.668 669.877 998.834Z" fill="#E1EAF5"/>
<path d="M674.754 566.689C675.476 571.744 676.072 576.403 676.686 581.856C676.704 582.649 676.67 582.799 676.305 582.85C675.091 583.676 674.243 584.452 673.251 585.215C673.108 585.203 672.825 585.084 672.825 585.084C672.85 584.169 672.875 583.253 672.919 581.652C673.195 576.408 673.452 571.849 673.779 566.395C674.15 565.558 674.409 565.822 674.754 566.689Z" fill="#BCBDBF"/>
<path d="M667.687 981.917C667.214 983.24 666.646 983.966 666.078 984.693C666.028 983.787 665.853 982.178 665.948 982.092C666.459 981.626 667.037 981.538 667.687 981.917Z" fill="#E1EAF5"/>
<path d="M739.821 562.811C738.967 562.497 738.016 561.538 737.053 559.82C737.173 558.361 737.306 557.663 737.702 556.845C738.552 558.539 739.138 560.352 739.821 562.811Z" fill="#283565"/>
<path d="M666.526 994.359C666.192 994.783 665.808 994.687 665.423 994.591C665.516 993.986 665.609 993.381 665.702 992.776C665.96 993.13 666.217 993.484 666.526 994.359Z" fill="#E1EAF5"/>
<path d="M667.073 998.641C667.178 999.007 667.126 999.379 667.074 999.75C667.021 999.382 666.968 999.015 667.073 998.641Z" fill="#E1EAF5"/>
<path d="M765.784 634.316C765.356 634.394 764.77 633.862 764.061 632.633C764.5 632.527 765.064 633.116 765.784 634.316Z" fill="#1F4167"/>
<path d="M777.613 748.277C777.312 748.302 777.28 747.458 777.27 747.037C777.77 746.83 778.281 747.043 778.956 747.744C778.718 748.237 778.316 748.244 777.613 748.277Z" fill="#334C5B"/>
<path d="M612.601 195.331C612.301 195.579 612.02 195.141 611.633 194.163C611.891 193.964 612.255 194.304 612.601 195.331Z" fill="#113253"/>
<path d="M647.435 489.3C647.233 488.802 647.105 487.607 647.172 486.095C647.415 486.719 647.462 487.662 647.435 489.3Z" fill="#0BA360" fill-opacity="0.5"/>
<path d="M647.376 467.567C647.173 467.096 647.032 465.925 647.067 464.411C647.308 465.001 647.373 465.934 647.376 467.567Z" fill="#264872"/>
<path d="M725.566 669.899C725.566 669.899 725.376 669.151 725.391 668.72C726.278 666.658 727.12 663.701 728.026 663.597C737.391 662.528 746.766 661.621 756.142 661.314C760.49 661.171 761.827 665.926 762.041 680.192C762.067 681.078 762.091 680.914 761.67 680.86C756.034 680.065 750.812 678.576 745.604 678.779C739.478 679.017 733.363 680.723 727.515 681.745C726.633 676.388 726.1 673.143 725.566 669.899Z" fill="#0BA360" fill-opacity="0.5"/>
<path d="M735.433 625.382C737.005 622.036 738.591 619.476 740.708 616.19C742.981 615.47 744.723 615.476 746.464 615.482C747.507 618.446 748.551 621.409 749.907 624.534C750.715 632.535 747.639 648.675 744.848 649.323C742.754 649.809 739.742 647.417 738.449 643.858C736.769 639.231 736.386 632.177 735.433 625.382Z" fill="#D0ADBA"/>
<path d="M720.569 663.32C718.611 662.398 716.562 660.548 714.251 658.093C714.369 648.464 714.749 639.439 715.176 629.312C715.683 629.185 716.877 628.887 718.462 628.604C719.394 639.877 719.936 651.134 720.569 663.32Z" fill="#1D4C7C"/>
<path d="M764.51 681.157C765.777 691.266 766.709 701.152 767.264 711.935C765.492 712.197 764.097 711.562 762.705 710.028C762.503 699.723 762.297 690.318 762.091 680.914C762.091 680.914 762.067 681.078 762.102 681.112C762.817 681.075 763.496 681.004 764.51 681.157Z" fill="#F0F7FD"/>
<path d="M762.702 710.927C764.097 711.562 765.492 712.197 767.258 712.818C767.555 717.078 767.481 721.353 766.684 726.031C757.949 726.085 749.939 725.554 741.927 725.45C736.58 725.381 731.203 726.812 725.891 725.947C720.154 725.012 719.93 724.644 719.804 737.302C719.804 737.302 719.482 737.427 719.319 737.423C718.529 729.404 716.016 721.474 719.625 713.265C720.539 713.149 720.773 713.069 721.008 712.988C721.895 712.929 722.782 712.869 724.276 712.881C725.08 712.283 725.275 711.613 725.471 710.943C725.505 709.378 725.538 707.813 725.765 705.453C725.959 704.657 726.243 704.603 726.305 705.593C726.41 708.578 726.452 710.574 726.67 713.248C727.407 714.453 727.967 715.431 728.529 715.437C737.896 715.54 747.263 715.584 756.629 715.411C757.395 715.397 758.155 713.715 759.274 712.457C760.655 711.713 761.679 711.32 762.702 710.927Z" fill="#6496CC"/>
<path d="M719.86 791.81C716.759 789.348 713.658 786.886 710.554 783.172C713.398 780.247 716.231 777.348 719.098 777.164C724.615 776.811 730.15 778.163 735.681 778.347C736.435 778.372 737.206 775.753 737.969 774.358C739.36 774.871 740.751 775.384 742.475 776.198C743.335 779.029 743.864 781.56 744.45 785.394C743.772 790.085 743.036 793.472 742.585 795.548C744.887 798.22 746.747 800.38 748.17 802.567C742.916 801.806 738.101 801.018 732.987 800.024C728.412 797.149 724.136 794.48 719.86 791.81Z" fill="#334C5B"/>
<path d="M737.777 773.769C737.206 775.753 736.434 778.372 735.68 778.347C730.15 778.163 724.615 776.811 719.098 777.164C716.231 777.348 713.398 780.247 710.329 782.559C707.276 778.519 704.444 773.839 701.849 768.443C705.637 766.796 709.19 765.872 712.741 764.937C717.661 763.643 722.58 762.34 727.499 761.04C730.861 765.087 734.223 769.134 737.777 773.769Z" fill="#334C5B"/>
<path d="M727.316 760.452C722.58 762.339 717.661 763.642 712.742 764.937C709.19 765.872 705.638 766.796 701.698 767.774C701.163 762.25 701.018 756.677 701.536 750.658C707.741 749.525 713.282 748.837 718.822 748.149C718.822 748.149 719.294 748.128 719.53 748.117C722.221 752.025 724.677 755.944 727.316 760.452Z" fill="#334C5B"/>
<path d="M720.042 737.272C719.929 724.644 720.154 725.012 725.891 725.947C731.203 726.812 736.58 725.381 741.927 725.45C749.939 725.554 757.949 726.085 766.421 726.468C766.847 726.874 766.814 727.246 766.713 728.168C764.989 730.182 763.339 732.869 761.674 732.915C749.55 733.251 737.423 732.963 725.298 733.159C723.945 733.181 722.597 734.999 721.002 736.598C720.757 737.212 720.28 737.242 720.042 737.272Z" fill="#5C8DC5"/>
<path d="M719.817 743.461C719.571 743.521 719.461 743.108 719.557 742.239C719.773 742.291 719.835 742.694 719.817 743.461Z" fill="#6496CC"/>
<path d="M731.057 583.539C731.595 583.101 732.057 582.989 732.867 582.865C732.681 583.524 732.146 584.196 731.284 584.732C730.956 584.598 730.981 583.864 731.057 583.539Z" fill="#44567E"/>
<path d="M746.555 614.679C744.723 615.476 742.981 615.47 740.874 615.443C738.246 607.978 735.984 600.534 733.753 593.191C735.846 588.688 737.308 585.541 739.122 581.442C739.878 579.462 740.282 578.437 740.687 577.411C742.192 581.793 743.44 586.849 745.256 590.418C749.173 598.119 749.698 604.355 746.555 614.679Z" fill="#EABEC8"/>
<path d="M740.875 576.589C740.314 578.361 739.734 579.401 738.881 580.76C737.917 580.271 737.224 579.464 736.083 578.559C736.733 576.4 737.831 574.339 739.338 572.064C740.115 573.186 740.485 574.521 740.875 576.589Z" fill="#283565"/>
<path d="M738.296 576.412C737.042 571.857 737.103 566.451 737.042 559.021C754.012 560.416 741.209 568.946 738.296 576.412Z" fill="#283565"/>
<path d="M748.607 802.54C746.747 800.38 744.887 798.22 742.585 795.548C743.036 793.472 743.772 790.085 744.628 786.024C747.401 787.313 750.054 789.275 753.023 791.572C752.618 794.644 751.897 797.382 750.597 800.413C749.548 801.317 749.078 801.928 748.607 802.54Z" fill="#EABEC8"/>
<path d="M735.385 580.731C735.542 580.012 735.997 579.28 736.742 578.537C736.582 579.257 736.132 579.987 735.385 580.731Z" fill="#44567E"/>
<path d="M733.473 582.89C733.634 582.203 734.093 581.494 734.843 580.729C734.679 581.405 734.225 582.135 733.473 582.89Z" fill="#44567E"/>
<path d="M726.495 712.57C726.452 710.574 726.409 708.578 726.358 704.773C726.15 699.843 725.95 696.723 725.75 693.602C725.61 686.218 725.47 678.835 725.448 670.675C726.1 673.143 726.633 676.388 727.515 681.745C733.363 680.722 739.478 679.017 745.604 678.778C750.813 678.576 756.034 680.065 761.67 680.86C762.297 690.318 762.503 699.723 762.705 710.028C761.678 711.32 760.655 711.713 758.856 712.162C747.553 712.335 737.024 712.452 726.495 712.57Z" fill="#0BA360" fill-opacity="0.5"/>
<path d="M721.177 802.177C720.784 802.023 720.79 801.275 720.713 800.36C720.373 799.044 720.11 798.642 719.848 798.24C719.848 798.24 719.875 798.279 719.891 798.296C719.814 796.679 719.721 795.045 719.744 792.61C724.136 794.48 728.412 797.15 732.986 800.024C729.655 808.798 725.486 801.939 721.177 802.177Z" fill="#34456B"/>
<path d="M718.602 747.543C713.282 748.837 707.741 749.525 701.782 750.134C705.966 739.215 710.78 738.333 718.602 747.543Z" fill="#334C5B"/>
<path d="M725.652 694.504C725.95 696.723 726.149 699.844 726.295 703.784C726.242 704.603 725.958 704.657 725.816 704.678C725.634 701.601 725.594 698.504 725.652 694.504Z" fill="#7EAEDB"/>
<path d="M720.852 712.658C720.773 713.066 720.538 713.146 719.948 713.152C719.961 712.828 720.328 712.579 720.852 712.658Z" fill="#7EAEDB"/>
<path d="M673.67 797.551C673.608 798.312 673.447 798.385 673.035 797.725C672.766 796.584 672.748 796.176 672.73 795.768C672.73 795.768 672.987 795.617 673.119 795.613C673.358 796.026 673.465 796.444 673.67 797.551Z" fill="#739FCE"/>
<path d="M725.278 711.295C725.275 711.613 725.079 712.283 724.604 713.017C724.579 712.603 724.832 712.126 725.278 711.295Z" fill="#7EAEDB"/>
<path d="M726.67 713.248C737.024 712.452 747.553 712.335 758.5 712.513C758.154 713.715 757.394 715.397 756.628 715.411C747.262 715.584 737.895 715.54 728.529 715.437C727.967 715.431 727.407 714.453 726.67 713.248Z" fill="#7EAEDB"/>
<path d="M633.562 572.096C633.704 570.854 633.862 569.641 634.257 568.067C634.493 567.706 634.51 567.734 634.501 568.391C634.2 570.093 633.907 571.137 633.615 572.182C633.615 572.182 633.58 572.125 633.562 572.096Z" fill="#0BA360" fill-opacity="0.5"/>
<path d="M656.537 576.068C656.492 575.121 656.747 573.931 657.238 572.354C657.262 573.252 657.05 574.538 656.537 576.068Z" fill="#8BB5DF"/>
<path d="M719.921 798.764C720.111 798.642 720.374 799.044 720.711 799.987C720.522 800.114 720.258 799.701 719.921 798.764Z" fill="#0BA360" fill-opacity="0.5"/>
<g clip-path="url(#clip0_493_588)">
<path d="M119.718 385.98C119.73 386.003 119.747 386.033 119.769 386.07C119.912 386.309 120.17 386.648 120.612 387.133C120.728 387.261 120.846 387.387 120.966 387.513C121.148 387.345 121.323 387.181 121.496 387.013C121.944 386.577 122.21 386.272 122.36 386.065C122.761 364.798 122.666 343.507 122.464 322.185C122.458 321.597 122.379 321.033 122.244 320.56C122.106 320.076 121.942 319.793 121.838 319.661C121.829 319.65 121.821 319.641 121.815 319.633C121.756 319.634 121.656 319.641 121.506 319.675C121.477 319.699 121.438 319.732 121.39 319.777C121.166 319.986 120.88 320.323 120.592 320.769C120.308 321.208 120.073 321.676 119.912 322.102C119.742 322.551 119.707 322.816 119.704 322.878C119.352 330.66 119.398 338.42 119.447 346.83C119.466 349.988 119.485 353.239 119.484 356.617L119.718 385.98ZM119.718 385.98C119.315 378.941 119.376 371.927 119.438 364.762C119.461 362.072 119.485 359.361 119.484 356.619L119.718 385.98ZM179.73 521.18L183.685 521.149L183.699 517.194C183.73 508.511 183.761 499.828 183.791 491.145C183.86 471.649 183.929 452.155 184.004 432.66C184.134 398.556 206.437 373.075 241.081 368.103L241.47 368.047L241.841 367.917C242.938 367.53 244.122 367.012 245.041 366.609C245.418 366.444 245.751 366.298 246.014 366.189C247.161 365.715 247.723 365.594 248.072 365.592C255.076 365.554 262.085 365.528 269.107 365.502C291.871 365.417 314.773 365.332 338.078 364.835L341.766 364.756L341.986 361.075L342.049 360.011C342.741 348.464 343.421 337.11 342.446 325.858C341.795 318.345 339.197 310.826 336.044 304.289C329.875 291.495 318.029 285.478 306.492 281.262L305.831 281.02L305.127 281.019L305.029 281.019C295.18 280.999 285.326 280.978 274.802 280.964L274.799 280.964C271.122 280.962 267.45 280.96 263.782 280.957C226.587 280.934 189.85 280.911 152.578 280.943L152.564 280.943L152.55 280.943C150.052 280.963 147.587 280.979 145.131 280.995C137.295 281.046 129.56 281.096 121.197 281.266L120.539 281.28L119.92 281.503C107.208 286.096 97.7314 292.412 91.4901 301.215C85.2436 310.025 82.5611 320.87 82.5698 333.899C82.5744 340.674 82.56 347.461 82.5456 354.255C82.5165 368.05 82.4872 381.872 82.616 395.674C82.6592 400.305 82.6255 405.005 82.5914 409.744C82.494 423.316 82.3943 437.217 84.0919 450.781C87.9996 482.005 106.311 503.499 135.107 515.539C149.234 521.445 164.026 521.316 177.883 521.196C178.5 521.19 179.116 521.185 179.73 521.18ZM121.578 319.622C121.578 319.622 121.576 319.623 121.574 319.624C121.576 319.623 121.578 319.622 121.578 319.622ZM121.88 319.638C121.88 319.638 121.876 319.638 121.868 319.636C121.876 319.637 121.88 319.638 121.88 319.638ZM121.78 319.597C121.779 319.596 121.778 319.596 121.778 319.596C121.778 319.596 121.779 319.596 121.78 319.597ZM122.46 385.909C122.46 385.909 122.458 385.913 122.453 385.922C122.458 385.913 122.46 385.909 122.46 385.909ZM121.569 411.596C122.025 411.954 122.288 412.202 122.434 412.37C122.679 413.728 122.683 415.262 122.562 417.091C122.52 417.72 122.452 418.495 122.379 419.325C122.328 419.894 122.276 420.488 122.228 421.079C121.49 421.469 120.853 421.785 120.258 422.023C120.227 422.036 120.196 422.048 120.166 422.06C119.907 421.219 119.699 420.202 119.55 419.283C119.11 416.558 118.999 414.466 119.483 413.082C119.586 412.789 119.883 412.307 120.71 411.443C120.802 411.347 120.895 411.252 120.989 411.157C121.191 411.305 121.381 411.448 121.569 411.596ZM120.585 423.122C120.607 423.152 120.609 423.159 120.591 423.132C120.589 423.13 120.587 423.126 120.585 423.122ZM122.507 412.462C122.511 412.466 122.512 412.469 122.512 412.469C122.512 412.469 122.51 412.466 122.507 412.462Z" fill="#0BA360" fill-opacity="0.5" stroke="#283565" stroke-width="8"/>
<path d="M179.819 517.825C179.801 489.002 179.896 460.823 180.004 432.644C180.143 396.511 203.952 369.391 241.085 364.209C257.056 364.036 271.906 364.03 286.756 363.928C303.901 363.811 321.047 363.61 338.192 363.445C340.952 363.623 343.712 363.955 346.472 363.957C425.148 363.994 503.824 363.998 583.309 364.635C584.016 368.573 583.913 371.883 583.158 375.211C472.249 375.227 361.994 375.225 251.739 375.232C248.49 375.232 245.204 375.035 241.999 375.438C224.066 377.697 209.453 385.326 200.42 401.685C200.482 401.741 200.585 401.609 200.133 401.598C199.409 402.107 199.139 402.627 198.575 403.07C198.282 402.992 197.693 403.136 197.203 403.198C194.179 404.405 192.459 405.652 196.03 408.095C194.403 414.276 192.921 419.935 191.364 426.199C191.206 430.069 191.123 433.334 190.503 436.769C190.323 441.444 190.68 445.948 191.116 451.101C191.203 485.326 191.126 518.904 191.307 552.481C191.335 557.743 191.941 563.157 193.294 568.232C200.152 593.966 221.84 609.532 250.534 609.54C358.912 609.568 467.294 610.068 575.662 609.1C596.433 608.915 613.194 612.805 627.956 627.825C638.015 638.059 650.195 646.218 662.634 656.283C662.634 587.572 662.634 520.48 663.314 453.267C667.222 453.208 670.451 453.27 673.679 453.333C673.685 523.285 673.735 593.238 673.557 663.191C673.549 666.474 671.505 669.751 670.41 673.031C667.173 671.782 663.38 671.23 660.788 669.172C642.633 654.76 624.646 640.133 606.8 625.341C602.833 622.053 598.925 620.536 593.675 620.543C479.233 620.682 364.791 620.635 250.349 620.648C208.594 620.653 179.993 592.154 179.963 550.435C179.955 539.78 179.946 529.125 179.819 517.825ZM190.186 412.504C189.663 413.104 189.124 413.693 188.66 414.335C188.632 414.372 189.207 414.844 189.502 415.113C189.889 414.441 190.277 413.768 190.186 412.504Z" fill="#283565"/>
<path d="M583.811 375.194C583.913 371.883 584.016 368.573 583.962 364.654C583.805 364.047 583.851 363.547 584.327 363.009C584.85 361.213 584.898 359.953 584.946 358.694C591.192 317.115 623.903 287.576 665.513 285.943C705.666 284.366 741.342 312.314 750.14 352.236C760.202 397.896 729.259 443.843 683.014 451.891C680.273 452.367 677.512 452.725 674.22 453.236C670.451 453.27 667.222 453.208 662.78 453.179C657.52 452.198 653.474 451.183 649.665 449.828C650.162 448.25 651.003 446.735 650.568 445.833C649.499 443.62 647.842 441.689 646.433 439.19C645.982 438.027 645.517 437.32 645.082 436.593C645.11 436.572 645.055 436.603 644.925 436.286C644.523 435.57 644.15 435.322 643.697 435.199C643.718 435.173 643.666 435.215 643.539 434.894C643.14 434.167 642.764 433.92 642.305 433.807C642.327 433.784 642.28 433.822 642.122 433.476C641.52 432.902 641.076 432.675 640.377 432.311C639.805 431.93 639.593 431.615 639.488 430.781C639.021 429.647 638.554 428.959 638.115 428.25C638.143 428.229 638.088 428.263 637.961 427.943C637.565 427.217 637.19 426.971 636.731 426.859C636.752 426.832 636.697 426.872 636.572 426.548C636.174 425.813 635.794 425.565 635.327 425.468C635.345 425.456 635.299 425.489 635.331 424.956C635.335 423.355 635.308 422.287 635.298 421.243C635.314 421.267 635.312 421.213 635.679 421.006C636.273 420.011 636.5 419.223 636.744 418.46C636.759 418.485 636.701 418.478 637.042 418.317C637.628 417.727 637.872 417.298 638.235 416.609C638.572 416.019 638.869 415.787 639.636 415.536C640.322 414.974 640.613 414.529 640.947 413.789C640.989 413.494 641.118 412.912 641.452 412.914C641.785 412.917 642.445 412.815 642.866 413.089C646.649 414.702 649.927 416.329 653.385 417.337C680.206 425.15 708.06 409.414 715.238 382.498C722.363 355.781 706.328 327.927 680.024 321.327C652.119 314.325 624.497 331.073 618.376 358.76C617.597 362.285 617.136 365.88 616.536 369.396C612.501 369.623 608.966 369.821 605.067 370.04C607.539 375.036 609.67 379.344 611.363 384.049C610.739 399.485 610.555 414.525 610.346 429.569C610.322 429.574 610.368 429.532 609.913 429.423C606.875 426.024 604.292 422.733 601.797 418.863C605.992 411.322 600.625 410.507 594.256 407.364C592.106 406.303 594.231 403.426 591.541 402.766C591.034 402.312 590.742 402.034 590.357 401.33C588.165 392.279 585.988 383.736 583.811 375.194Z" fill="#283565"/>
<path d="M305.145 284.368C295.237 284.999 285.355 284.978 274.858 284.319C274.251 270.257 274.49 256.83 274.219 243.413C273.615 213.522 249.158 187.055 220.328 184.789C186.53 182.132 157.913 202.172 153.389 233.794C150.986 250.593 152.301 267.921 151.937 285.01C142.083 285.026 132.229 285.042 121.709 285.03C121.445 266.502 119.954 247.727 122.616 229.558C129.573 182.094 173.339 149.288 221.014 153.985C270.029 158.813 304.481 196.247 305.126 245.498C305.293 258.236 305.164 270.977 305.145 284.368Z" fill="#283565"/>
<path d="M338.382 362.973C321.047 363.61 303.901 363.811 286.756 363.929C271.906 364.03 257.056 364.036 241.635 364.018C243.392 363.131 245.717 361.605 248.051 361.592C277.795 361.43 307.541 361.486 337.941 361.486C338.588 361.825 338.58 362.163 338.382 362.973Z" fill="#B2C4D4"/>
<path d="M434.699 851.179C435.189 851.461 435.623 852.234 436.056 853.007C435.793 853.129 435.529 853.25 435.265 853.371C435.058 852.804 434.85 852.238 434.699 851.179Z" fill="#191A1A"/>
<path d="M584.642 359.047C584.898 359.953 584.85 361.213 584.426 362.779C584.146 361.857 584.242 360.628 584.642 359.047Z" fill="#A5B9D1"/>
<path d="M164.066 280.935C161.547 280.936 159.026 280.938 156.501 280.94C156.442 278.456 156.369 275.983 156.297 273.522C155.904 260.171 155.52 247.143 157.349 234.36C161.524 205.176 187.951 186.256 220.015 188.777C246.708 190.875 269.656 215.571 270.22 243.494C270.421 253.417 270.34 263.327 270.258 273.567C270.24 275.822 270.221 278.093 270.206 280.383C234.966 280.884 199.753 280.909 164.066 280.935Z" fill="#0BA360" fill-opacity="0.5" stroke="#283565" stroke-width="8"/>
<path d="M115.485 355.923C115.489 344.381 115.219 333.522 115.709 322.697C115.82 320.261 118.158 316.476 120.219 315.878C124.609 314.605 126.43 318.532 126.464 322.147C126.667 343.607 126.763 365.073 126.353 386.527C126.309 388.788 122.734 390.982 120.798 393.208C119.029 390.935 115.873 388.742 115.735 386.374C115.158 376.484 115.488 366.541 115.485 355.923Z" fill="#F9FBFC"/>
<path d="M125.769 424.051C123.007 425.207 120.226 426.845 118.205 426.181C116.772 425.71 115.969 422.194 115.602 419.921C115.169 417.243 114.85 414.211 115.708 411.76C116.503 409.49 118.915 407.784 120.615 405.829C122.603 407.637 125.865 409.184 126.303 411.311C127.107 415.21 126.244 419.451 125.769 424.051Z" fill="#F9FBFC"/>
<path d="M191.364 426.199C197.291 427.45 203.257 429.023 208.938 431.304C211.143 432.189 212.704 434.671 214.559 436.426C212.692 438.109 211.015 440.912 208.923 441.264C202.851 442.284 196.56 442.528 191.463 436.855C191.123 433.334 191.206 430.069 191.364 426.199Z" fill="#F9FBFC"/>
<path d="M197.203 403.198C197.358 404.409 197.024 405.683 196.432 407.265C192.459 405.652 194.179 404.405 197.203 403.198Z" fill="#191A1A"/>
<path d="M190.426 412.8C190.277 413.768 189.89 414.441 189.502 415.113C189.208 414.844 188.633 414.372 188.66 414.335C189.125 413.693 189.664 413.104 190.426 412.8Z" fill="#191A1A"/>
<path d="M200.133 401.598C200.264 402.011 199.943 402.414 199.245 402.982C199.138 402.627 199.409 402.107 200.133 401.598Z" fill="#FDFEFE"/>
<path d="M188.731 419.235C188.781 419.312 188.681 419.157 188.731 419.235Z" fill="#191A1A"/>
<path d="M611.801 383.653C609.67 379.344 607.538 375.036 605.066 370.04C608.966 369.821 612.501 369.623 616.535 369.396C617.136 365.88 617.597 362.285 618.376 358.76C624.497 331.073 652.119 314.325 680.024 321.327C706.328 327.927 722.363 355.781 715.238 382.499C708.06 409.414 680.206 425.15 653.385 417.337C649.926 416.329 646.649 414.703 643.03 412.666C645.412 409.516 648.053 407.064 651.179 404.802C669.21 411.939 687.334 407.137 698.238 392.655C708.695 378.766 708.423 359.463 697.575 345.615C686.808 331.871 668.2 327.095 651.893 333.889C637.415 339.921 627.302 355.558 629.181 369.411C632.706 369.582 636.297 369.755 640.511 369.959C634.84 380.385 629.472 390.256 623.685 400.141C622.668 399.317 622.07 398.48 621.89 397.254C622.31 392.678 622.31 388.489 622.31 384.371C621.069 384.107 622.546 404.814 621.89 404.802C619.621 404.762 615.222 383.849 612.67 383.773C612.389 383.687 611.801 383.653 611.801 383.653Z" fill="#EFFAFD"/>
<path d="M614.46 387.734C614.09 399.133 613.814 410.535 613.277 421.929C613.159 424.451 608.826 427.045 607.534 429.61C607.079 415.069 610.591 400.371 611.339 385.389C611.865 385.004 612.57 385.038 613.05 385.45C613.84 386.486 614.15 387.11 614.46 387.734Z" fill="#257FBB"/>
<path d="M618.301 436.478C607.5 424.393 598.749 413.233 589.937 400.668C602.782 402.275 616.946 404.381 628.362 408.469C662.161 420.574 664.565 429.865 639.353 445.946C632.582 444.025 626.467 440.714 618.301 436.478Z" fill="#283565"/>
<path d="M635.331 424.956C635.007 424.078 634.715 422.667 634.852 421.238C635.309 422.287 635.336 423.355 635.331 424.956Z" fill="#257FBB"/>
<path d="M635.679 421.006C635.553 420.443 635.794 419.674 636.382 418.669C636.501 419.223 636.273 420.011 635.679 421.006Z" fill="#257FBB"/>
<path d="M639.488 430.781C639.025 430.529 638.563 429.83 638.094 428.701C638.554 428.959 639.022 429.647 639.488 430.781Z" fill="#257FBB"/>
<path d="M646.433 439.19C645.959 438.927 645.497 438.209 645.044 437.052C645.518 437.32 645.982 438.027 646.433 439.19Z" fill="#257FBB"/>
<path d="M636.572 426.548C636.206 426.794 635.828 426.546 635.436 425.803C635.795 425.565 636.174 425.814 636.572 426.548Z" fill="#257FBB"/>
<path d="M639.636 415.536C639.575 415.264 639.907 414.873 640.572 414.284C640.613 414.529 640.322 414.974 639.636 415.536Z" fill="#257FBB"/>
<path d="M637.042 418.317C636.969 418.078 637.237 417.679 637.811 417.074C637.872 417.298 637.628 417.727 637.042 418.317Z" fill="#257FBB"/>
<path d="M637.961 427.943C637.706 428.023 637.323 427.783 636.825 427.214C637.19 426.971 637.565 427.217 637.961 427.943Z" fill="#257FBB"/>
<path d="M642.122 433.476C641.871 433.568 641.463 433.314 640.844 432.754C641.077 432.675 641.52 432.903 642.122 433.476Z" fill="#257FBB"/>
<path d="M643.539 434.894C643.28 434.975 642.894 434.735 642.396 434.163C642.764 433.92 643.14 434.168 643.539 434.894Z" fill="#257FBB"/>
<path d="M644.925 436.286C644.667 436.367 644.278 436.131 643.783 435.56C644.15 435.322 644.523 435.57 644.925 436.286Z" fill="#257FBB"/>
<path d="M443.975 495.648C452.039 498.702 459.617 501.523 468.002 504.645C464.585 510.854 461.423 516.6 457.84 523.109C449.746 516.838 442.015 510.85 432.839 503.742C434.32 515.033 435.587 524.69 436.914 534.815C430.189 534.815 423.816 534.815 416.593 534.815C417.77 524.91 418.926 515.181 420.285 503.742C411.378 510.805 403.696 516.898 395.4 523.477C391.734 517.101 388.338 511.193 384.604 504.695C393.388 501.128 401.723 497.744 412.062 493.547C401.692 489.173 393.426 485.688 384.724 482.018C388.177 475.921 391.437 470.164 394.95 463.96C403.476 470.452 411.515 476.574 420.613 483.501C419.142 472.281 417.859 462.489 416.506 452.167C423.446 452.167 430.033 452.167 437.167 452.167C435.749 462.175 434.368 471.922 432.748 483.353C441.801 476.482 449.632 470.538 457.947 464.227C461.303 470.125 464.478 475.707 468.077 482.034C458.526 485.686 449.376 489.185 439.314 493.033C441.253 494.139 442.371 494.777 443.975 495.648Z" fill="#0E73B5"/>
<path d="M564.245 468.559C566.29 467.08 567.936 465.877 570.12 464.28C573.505 470.252 576.656 475.811 580.194 482.054C570.565 485.721 561.36 489.226 550.361 493.414C561.011 497.442 570.171 500.906 580.096 504.659C576.665 510.887 573.501 516.632 569.947 523.085C561.763 516.739 553.995 510.715 544.876 503.643C546.382 514.853 547.698 524.641 549.073 534.873C542.079 534.873 535.71 534.873 528.681 534.873C529.908 524.747 531.093 514.977 532.453 503.753C523.673 510.688 515.927 516.806 507.535 523.434C503.953 517.268 500.525 511.367 496.626 504.655C506.321 500.859 515.642 497.209 526.092 493.117C515.652 489.268 506.573 485.922 496.749 482.301C500.253 476.02 503.451 470.287 506.956 464.005C515.441 470.38 523.467 476.409 532.644 483.304C531.216 472.032 529.981 462.281 528.689 452.077C535.583 452.077 541.986 452.077 549.265 452.077C547.842 462.212 546.448 472.142 544.849 483.528C551.853 478.111 557.849 473.474 564.245 468.559Z" fill="#0D73B5"/>
<path d="M351.095 474.101C351.095 474.101 351.424 474.343 351.365 475.072C351.919 476.493 352.531 477.185 353.143 477.878C353.143 477.878 352.664 478.026 352.674 478.412C350.357 481.055 348.03 483.312 345.703 485.568C345.703 485.568 345.689 485.426 345.195 485.37C339.942 487.284 335.183 489.253 330.425 491.223C330.425 491.223 330.394 491.056 329.938 490.986C324.183 491.529 325.336 494.614 328.412 495.856C335.794 498.836 343.573 500.839 351.192 503.236C351.192 503.236 351.136 503.304 351.188 503.787C351.836 505.929 352.434 507.587 353.031 509.246C353.031 509.246 352.62 508.925 352.356 509.16C350.553 512.614 349.013 515.833 347.473 519.051C347.473 519.051 347.166 519.144 346.677 518.97C344.434 518.878 342.681 518.959 340.928 519.041C340.928 519.041 341.132 518.715 341.01 518.482C340.398 518.097 339.909 517.945 339.42 517.793C339.42 517.793 339.93 517.546 339.68 517.229C338.624 516.585 337.82 516.259 337.015 515.932C337.015 515.932 337.144 515.855 337.081 515.426C335.991 514.499 334.964 514.002 333.938 513.504C333.938 513.504 334.126 513.176 334.015 512.942C333.411 512.6 332.918 512.491 332.425 512.382C332.425 512.382 332.423 512.214 332.45 511.777C330.624 510.194 328.771 509.048 326.917 507.902C326.917 507.902 327.127 507.814 327.026 507.49C326.436 507.063 325.946 506.96 325.456 506.857C325.456 506.857 325.445 506.722 325.464 506.235C323.679 505.373 321.877 504.998 320.074 504.623C320.423 506.497 320.771 508.371 321.12 510.244C321.302 510.866 321.485 511.489 321.272 513.022C321.911 519.199 322.944 524.465 323.978 529.731C324.15 530.318 324.322 530.905 323.892 532.061C320.149 533.045 317.012 533.504 313.865 533.867C307.967 534.548 305.443 533.071 307.234 526.245C308.828 520.167 308.827 513.647 309.253 507.303C309.43 504.67 308.904 501.958 305.494 505.271C305.494 505.271 305.436 505.041 305.057 505.09C303.17 506.601 301.663 508.062 300.156 509.524C300.156 509.524 299.726 509.54 299.516 509.462C299.079 509.846 298.852 510.309 298.624 510.772C298.624 510.772 298.399 510.515 298.083 510.586C297.009 511.522 296.252 512.387 295.494 513.251C295.494 513.251 295.478 513.12 295.181 513.23C294.602 513.735 294.321 514.131 294.04 514.527C294.04 514.527 294.006 514.428 293.594 514.473C292.665 515.139 292.147 515.76 291.629 516.382C291.629 516.382 291.527 516.19 291.134 516.217C289.528 517.531 288.316 518.819 287.103 520.107C287.103 520.107 287.048 519.991 286.583 519.989C283.892 518.739 281.665 517.492 279.438 516.244C279.438 516.244 279.944 515.955 279.86 515.607C276.94 510.208 273.89 505.129 281.534 501.4C281.534 501.4 281.693 501.372 282.36 501.539C287.534 499.761 292.04 497.816 296.547 495.871C296.547 495.871 296.585 496.036 297.016 496.116C298.791 495.286 300.135 494.375 301.479 493.464C300.604 492.268 299.957 490.362 298.815 489.996C293.461 488.282 287.971 486.992 282.53 485.551C282.53 485.551 282.688 485.476 282.488 485.103C280.353 483.764 278.417 482.799 276.601 481.894C276.716 479.426 276.816 477.289 276.917 475.152C276.917 475.152 277.021 475.319 277.438 475.175C278.963 472.563 280.072 470.096 281.181 467.63C281.181 467.63 281.138 467.333 281.781 467.255C284.135 467.481 285.846 467.785 287.557 468.089C287.557 468.089 287.344 468.136 287.446 468.503C288.355 469.184 289.163 469.5 289.97 469.815C289.97 469.815 289.862 469.885 290.021 470.181C290.638 470.678 291.095 470.879 291.552 471.08C291.552 471.08 291.382 471.127 291.511 471.435C292.127 471.903 292.615 472.063 293.103 472.223C293.103 472.223 292.88 472.331 292.996 472.688C293.907 473.372 294.702 473.699 295.497 474.027C295.497 474.027 295.411 474.091 295.574 474.455C296.7 475.384 297.662 475.95 298.625 476.516C298.625 476.516 298.455 476.585 298.551 476.91C299.141 477.376 299.634 477.517 300.127 477.658C300.127 477.658 299.572 477.837 299.843 478.191C300.92 478.874 301.726 479.203 302.532 479.531C302.532 479.531 302.401 479.612 302.466 480.044C303.57 480.94 304.611 481.404 305.651 481.869C305.651 481.869 305.426 482.345 305.5 482.481C306.499 482.668 307.424 482.72 308.35 482.771C308.275 482.066 308.2 481.36 308.526 479.699C307.93 473.024 306.933 467.306 305.937 461.587C305.744 460.967 305.551 460.347 305.747 458.835C307.939 452.672 312.587 451.646 323.13 454.441C321.986 461.053 320.68 467.699 319.768 474.398C319.488 476.456 320.286 478.659 320.591 480.796C321.189 480.878 321.787 480.96 322.982 481.365C323.916 481.431 324.251 481.176 324.587 480.92C324.587 480.92 324.624 481.03 325.03 480.994C325.992 480.357 326.547 479.755 327.103 479.154C327.103 479.154 327.177 479.364 327.557 479.311C329.159 477.995 330.382 476.732 331.605 475.469C331.605 475.469 331.613 475.492 332.047 475.459C333.021 474.825 333.559 474.225 334.098 473.624C334.098 473.624 334.168 473.823 334.552 473.768C335.942 472.686 336.95 471.658 337.958 470.631C337.958 470.631 337.907 470.75 338.375 470.772C339.087 470.34 339.332 469.885 339.577 469.431C339.577 469.431 339.679 469.59 340.069 469.561C344.289 467.247 347.161 467.437 348.588 472.352C348.809 473.113 350.229 473.527 351.095 474.101Z" fill="#0C73B6"/>
<path d="M304.822 451.26C304.83 450.753 304.734 450.69 304.738 450.747C311.296 451.17 317.85 451.537 325.436 451.961C323.784 461.445 322.192 470.58 320.596 480.256C320.287 478.659 319.488 476.456 319.768 474.398C320.68 467.699 321.986 461.054 323.131 454.442C312.587 451.646 307.94 452.672 305.805 458.346C305.254 456.422 305.034 454.095 304.822 451.26Z" fill="#2574A3"/>
<path d="M624.599 440.953C624.39 437.805 610.134 428.968 610.281 426.134C601.224 419.878 590.077 319.774 621.427 403.889C648.597 360.093 646.925 444.243 650.687 449.769C646.261 448.29 629.364 443.222 624.599 440.953Z" fill="#283565"/>
<path d="M306.003 505.182C308.904 501.958 309.43 504.67 309.253 507.303C308.827 513.647 308.828 520.167 307.234 526.245C305.443 533.071 307.967 534.548 313.865 533.867C317.012 533.504 320.149 533.045 323.845 532.523C323.335 533.377 322.313 535.105 321.199 535.166C315.916 535.459 310.608 535.297 304.282 535.297C305.333 527.082 306.431 519.416 307.224 511.719C307.447 509.558 306.775 507.305 306.003 505.182Z" fill="#2574A3"/>
<path d="M350.829 502.909C343.573 500.839 335.794 498.836 328.412 495.856C325.337 494.614 324.183 491.529 330.016 491.02C327.141 493.56 329.156 494.535 331.682 495.477C337.954 497.818 344.206 500.21 350.829 502.909Z" fill="#2574A3"/>
<path d="M282.848 485.922C287.972 486.992 293.462 488.282 298.815 489.996C299.957 490.362 300.604 492.268 301.479 493.464C300.135 494.375 298.791 495.286 296.94 496.079C297.474 495.158 298.514 494.355 300.491 492.829C294.286 490.489 288.726 488.391 282.848 485.922Z" fill="#2574A3"/>
<path d="M305.844 462.147C306.934 467.306 307.93 473.025 308.589 479.171C307.417 473.968 306.584 468.338 305.844 462.147Z" fill="#2574A3"/>
<path d="M324.047 529.17C322.945 524.465 321.911 519.199 321.219 513.511C322.412 518.263 323.263 523.436 324.047 529.17Z" fill="#2574A3"/>
<path d="M280.977 501.45C273.891 505.129 276.94 510.208 279.623 515.776C277.216 512.629 274.962 508.965 272.241 504.543C275.417 503.362 277.919 502.431 280.977 501.45Z" fill="#2574A3"/>
<path d="M351.029 473.62C350.23 473.527 348.809 473.113 348.588 472.352C347.162 467.437 344.289 467.247 339.977 469.545C341.332 467.897 343.17 466.235 345.755 463.898C347.68 467.314 349.321 470.226 351.029 473.62Z" fill="#2574A3"/>
<path d="M330.967 491.195C335.183 489.253 339.942 487.284 345.259 485.401C341.048 487.381 336.279 489.274 330.967 491.195Z" fill="#2574A3"/>
<path d="M276.521 475.434C276.817 477.289 276.716 479.426 276.601 481.894C278.417 482.799 280.353 483.764 282.48 485.19C279.499 484.72 276.327 483.79 272.431 482.648C273.907 479.878 275.016 477.797 276.521 475.434Z" fill="#2574A3"/>
<path d="M296.007 495.914C292.041 497.816 287.534 499.761 282.433 501.576C286.381 499.617 290.924 497.787 296.007 495.914Z" fill="#2574A3"/>
<path d="M346.237 485.54C348.031 483.312 350.358 481.055 352.902 478.306C353.948 479.075 354.777 480.337 355.947 482.116C352.571 483.365 349.671 484.439 346.237 485.54Z" fill="#2574A3"/>
<path d="M321.209 509.661C320.771 508.371 320.423 506.497 320.074 504.623C321.877 504.998 323.68 505.373 325.404 506.267C322.765 505.419 320.798 505.091 321.209 509.661Z" fill="#2574A3"/>
<path d="M347.852 518.791C349.013 515.833 350.553 512.614 352.578 509.299C351.452 512.312 349.841 515.422 347.852 518.791Z" fill="#2574A3"/>
<path d="M279.544 516.723C281.665 517.492 283.892 518.739 286.635 520.027C285.98 521.082 284.808 522.096 283.226 523.464C281.881 521.109 280.765 519.156 279.544 516.723Z" fill="#2574A3"/>
<path d="M341.145 519.435C342.681 518.959 344.434 518.878 346.836 518.949C346.123 525.043 343.614 521.368 341.145 519.435Z" fill="#2574A3"/>
<path d="M353.408 508.956C352.434 507.587 351.836 505.929 351.205 503.748C355.402 503.433 356.327 505.221 353.408 508.956Z" fill="#2574A3"/>
<path d="M280.775 467.921C280.072 470.096 278.964 472.563 277.347 475.137C278.015 472.9 279.192 470.557 280.775 467.921Z" fill="#2574A3"/>
<path d="M287.35 467.685C285.846 467.785 284.135 467.481 281.9 467.164C283.429 461.416 285.231 466.765 287.35 467.685Z" fill="#2574A3"/>
<path d="M327.115 508.303C328.77 509.048 330.624 510.194 332.391 511.837C330.641 511.124 328.977 509.915 327.115 508.303Z" fill="#2574A3"/>
<path d="M300.578 509.377C301.663 508.062 303.17 506.601 305.168 505.133C304.105 506.494 302.553 507.862 300.578 509.377Z" fill="#2574A3"/>
<path d="M287.532 519.99C288.316 518.819 289.528 517.531 291.24 516.241C290.48 517.451 289.22 518.662 287.532 519.99Z" fill="#2574A3"/>
<path d="M331.179 475.595C330.382 476.732 329.16 477.995 327.448 479.287C328.224 478.119 329.488 476.92 331.179 475.595Z" fill="#2574A3"/>
<path d="M337.546 470.766C336.951 471.659 335.943 472.686 334.448 473.747C335.019 472.821 336.076 471.861 337.546 470.766Z" fill="#2574A3"/>
<path d="M334.126 513.873C334.964 514.002 335.991 514.499 337.046 515.493C336.155 515.407 335.235 514.824 334.126 513.873Z" fill="#2574A3"/>
<path d="M305.461 481.503C304.611 481.404 303.571 480.94 302.5 479.975C303.403 480.028 304.337 480.582 305.461 481.503Z" fill="#2574A3"/>
<path d="M295.908 513.149C296.252 512.387 297.009 511.522 298.228 510.678C297.899 511.481 297.111 512.264 295.908 513.149Z" fill="#2574A3"/>
<path d="M307.894 482.603C307.424 482.72 306.498 482.668 305.582 482.231C306.207 482.041 306.822 482.238 307.894 482.603Z" fill="#2574A3"/>
<path d="M298.438 476.134C297.663 475.95 296.701 475.384 295.585 474.402C296.371 474.575 297.311 475.164 298.438 476.134Z" fill="#2574A3"/>
<path d="M337.187 516.301C337.82 516.259 338.625 516.585 339.44 517.38C338.753 517.456 338.055 517.063 337.187 516.301Z" fill="#2574A3"/>
<path d="M295.293 473.678C294.702 473.699 293.907 473.372 293.068 472.587C293.713 472.53 294.401 472.93 295.293 473.678Z" fill="#2574A3"/>
<path d="M289.775 469.456C289.163 469.5 288.356 469.184 287.5 468.408C288.161 468.33 288.87 468.713 289.775 469.456Z" fill="#2574A3"/>
<path d="M292.023 516.275C292.147 515.76 292.665 515.139 293.639 514.5C293.536 515.045 292.977 515.606 292.023 516.275Z" fill="#2574A3"/>
<path d="M333.699 473.717C333.559 474.225 333.021 474.825 332.036 475.453C332.16 474.923 332.729 474.366 333.699 473.717Z" fill="#2574A3"/>
<path d="M353.072 477.419C352.531 477.185 351.919 476.493 351.359 475.275C351.942 475.487 352.471 476.223 353.072 477.419Z" fill="#2574A3"/>
<path d="M326.7 479.251C326.548 479.756 325.992 480.357 324.98 480.965C325.115 480.431 325.706 479.889 326.7 479.251Z" fill="#2574A3"/>
<path d="M302.36 479.163C301.726 479.203 300.92 478.874 300.11 478.076C300.801 478.002 301.494 478.399 302.36 479.163Z" fill="#2574A3"/>
<path d="M339.573 518.121C339.909 517.945 340.398 518.097 340.943 518.662C340.574 518.866 340.15 518.657 339.573 518.121Z" fill="#2574A3"/>
<path d="M294.401 514.43C294.321 514.131 294.602 513.735 295.246 513.242C295.326 513.54 295.044 513.936 294.401 514.43Z" fill="#2574A3"/>
<path d="M332.597 512.683C332.918 512.491 333.411 512.6 333.959 513.123C333.523 513.521 333.108 513.337 332.597 512.683Z" fill="#2574A3"/>
<path d="M298.967 510.678C298.852 510.309 299.079 509.846 299.728 509.435C299.87 509.852 299.59 510.218 298.967 510.678Z" fill="#2574A3"/>
<path d="M325.619 507.155C325.947 506.96 326.436 507.063 326.962 507.583C326.518 507.98 326.113 507.797 325.619 507.155Z" fill="#2574A3"/>
<path d="M324.244 480.958C324.252 481.176 323.916 481.431 323.422 481.474C323.264 481.262 323.901 480.996 324.244 480.958Z" fill="#2574A3"/>
<path d="M299.966 477.333C299.634 477.517 299.141 477.376 298.58 476.823C298.944 476.611 299.375 476.81 299.966 477.333Z" fill="#2574A3"/>
<path d="M292.939 471.884C292.615 472.063 292.127 471.903 291.528 471.349C291.87 471.151 292.323 471.348 292.939 471.884Z" fill="#2574A3"/>
<path d="M339.233 469.518C339.333 469.886 339.088 470.34 338.423 470.73C338.299 470.312 338.594 469.959 339.233 469.518Z" fill="#2574A3"/>
<path d="M291.401 470.729C291.096 470.879 290.639 470.678 290.036 470.118C290.344 469.965 290.797 470.171 291.401 470.729Z" fill="#2574A3"/>
<path d="M651.179 404.802C648.051 403.437 645.409 402.263 642.43 401.394C636.009 406.403 629.924 411.108 624.182 415.546C624.182 411.751 624.182 406.598 624.143 400.786C629.472 390.256 634.84 380.385 640.511 369.959C636.297 369.755 632.706 369.581 629.181 369.411C627.302 355.558 637.415 339.921 651.893 333.889C668.2 327.094 686.808 331.871 697.575 345.615C708.423 359.463 708.695 378.765 698.238 392.654C687.335 407.137 669.21 411.939 651.179 404.802Z" fill="#283565"/>
<path d="M399.755 422.732C395.948 422.731 392.779 422.731 389.61 422.731C389.701 413.751 391.902 411.233 398.672 411.54C404.89 411.822 406.817 414.375 406.288 422.297C404.381 422.437 402.387 422.585 399.755 422.732Z" fill="#FDFEFE"/>
</g>
<defs>
<clipPath id="clip0_493_588">
<rect width="836" height="862" fill="white"/>
</clipPath>
</defs>
</svg>
