<svg width="680" height="808" viewBox="0 0 680 808" fill="none" xmlns="http://www.w3.org/2000/svg">
    <path d="M229.296 142.526H17.67C9.59941 142.526 3.03076 131.651 3.03076 118.29C3.03076 104.928 9.59941 94.0535 17.67 94.0535H229.296C237.367 94.0535 243.936 104.928 243.936 118.29C243.936 131.651 237.367 142.526 229.296 142.526ZM17.67 97.0493C10.5947 97.0493 4.84031 106.576 4.84031 118.29C4.84031 130.003 10.5947 139.53 17.67 139.53H229.296C236.372 139.53 242.126 130.003 242.126 118.29C242.126 106.576 236.372 97.0493 229.296 97.0493H17.67Z"
          fill="#0BA360" fill-opacity="0.5"/>
    <path d="M229.297 426.154H17.6702C9.84395 426.154 3.4834 415.624 3.4834 402.667C3.4834 389.71 9.84395 379.18 17.6702 379.18H229.297C237.123 379.18 243.483 389.71 243.483 402.667C243.483 415.624 237.123 426.154 229.297 426.154Z"
          fill="#395DA3"/>
    <path d="M159.946 46.9743H14.1868C6.36055 46.9743 0 36.444 0 23.4872C0 10.5303 6.36055 0 14.1868 0H159.946C167.772 0 174.133 10.5303 174.133 23.4872C174.133 36.444 167.772 46.9743 159.946 46.9743Z"
          fill="#0BA360" fill-opacity="0.5"/>
    <path d="M229.296 237.313H17.67C9.59941 237.313 3.03076 226.438 3.03076 213.077C3.03076 199.716 9.59941 188.841 17.67 188.841H229.296C237.367 188.841 243.936 199.716 243.936 213.077C243.936 226.438 237.367 237.313 229.296 237.313ZM17.67 191.837C10.5947 191.837 4.84031 201.363 4.84031 213.077C4.84031 224.791 10.5947 234.317 17.67 234.317H229.296C236.372 234.317 242.126 224.791 242.126 213.077C242.126 201.363 236.372 191.837 229.296 191.837H17.67Z"
          fill="#0BA360" fill-opacity="0.5"/>
    <path d="M229.296 332.116H17.67C9.59941 332.116 3.03076 321.241 3.03076 307.879C3.03076 294.518 9.59941 283.643 17.67 283.643H229.296C237.367 283.643 243.936 294.518 243.936 307.879C243.936 321.241 237.367 332.116 229.296 332.116ZM17.67 286.639C10.5947 286.639 4.84031 296.166 4.84031 307.879C4.84031 319.593 10.5947 329.12 17.67 329.12H229.296C236.372 329.12 242.126 319.593 242.126 307.879C242.126 296.166 236.372 286.639 229.296 286.639H17.67Z"
          fill="#0BA360" fill-opacity="0.5"/>
    <path d="M10.3957 76.6477H65.8583C67.1792 76.6477 68.2559 78.4152 68.2559 80.6172C68.2559 82.8041 67.1792 84.5866 65.8583 84.5866H10.3957C9.07473 84.5866 7.99805 82.8191 7.99805 80.6172C7.99805 78.4302 9.07473 76.6477 10.3957 76.6477Z"
          fill="#E2E3E4"/>
    <path d="M10.3957 173.682H65.8583C67.1792 173.682 68.2559 175.45 68.2559 177.637C68.2559 179.824 67.1792 181.606 65.8583 181.606H10.3957C9.07473 181.606 7.99805 179.839 7.99805 177.652C7.99805 175.465 9.07473 173.682 10.3957 173.682Z"
          fill="#E2E3E4"/>
    <path d="M10.3957 270.731H65.8583C67.1792 270.731 68.2559 272.499 68.2559 274.701C68.2559 276.888 67.1792 278.655 65.8583 278.655H10.3957C9.07473 278.655 7.99805 276.888 7.99805 274.686C7.99805 272.499 9.07473 270.731 10.3957 270.731Z"
          fill="#E2E3E4"/>
    <path d="M442.488 127.806L401.81 138.831V90.613H438.722L442.488 127.806Z" fill="#9F616A"/>
    <path d="M406.85 103.959C429.235 103.959 447.382 89.0176 447.382 70.586C447.382 52.1544 429.235 37.2126 406.85 37.2126C384.464 37.2126 366.317 52.1544 366.317 70.586C366.317 89.0176 384.464 103.959 406.85 103.959Z"
          fill="#9F616A"/>
    <path d="M417.983 67.2756C411.197 67.1109 406.74 61.4637 404.102 56.311C401.464 51.1582 398.754 45.2414 392.459 43.1144C387.311 41.3768 378.233 53.1354 374.176 50.0048C369.937 46.7393 374.067 29.9778 378.56 26.967C383.054 23.9562 389.203 23.372 394.988 23.1473C409.105 22.6081 423.313 23.5518 437.158 25.9334C445.726 27.4014 454.532 29.6183 460.717 34.7112C468.54 41.1821 470.541 50.9335 471.105 60.0557C471.687 69.3877 471.032 79.154 465.52 87.3176C460.007 95.4812 448.474 101.503 437.413 99.4207C436.303 94.4776 437.431 89.3997 437.867 84.3667C438.286 79.3487 437.849 73.9263 434.12 69.9269C430.409 65.9275 422.44 64.3397 418.11 67.8898"
          fill="#2F2E43"/>
    <path d="M467.849 78.8395C471.905 76.3979 476.763 74.3458 481.748 74.8551C487.132 75.3943 491.699 79.0492 493.081 83.3782C494.464 87.7071 492.918 92.4704 489.57 96.0055C486.241 99.5406 481.274 101.877 476.035 103.046C472.997 103.72 469.668 104.004 466.775 102.986C462.518 101.473 460.208 96.9941 461.881 93.4291"
          fill="#2F2E43"/>
    <path d="M312.74 392.845C310.03 403.81 314.996 413.831 323.801 415.224C332.607 416.617 341.939 408.843 344.632 397.878C345.778 393.504 345.596 388.981 344.104 384.667L377.633 212.782L335.699 206.281L319.508 380.787C316.07 384.322 313.759 388.456 312.74 392.86V392.845Z"
          fill="#9F616A"/>
    <path d="M401.374 116.707H372.757C352.527 119.238 347.033 128.121 342.43 144.538C335.408 169.583 326.439 202.926 328.222 203.42C331.078 204.199 379.798 223.073 404.63 218.759L401.374 116.707Z"
          fill="#0BA360" fill-opacity="0.5"/>
    <path d="M429.044 664.206H390.949V708.709H429.044V664.206Z" fill="#0BA360" fill-opacity="0.5"/>
    <path d="M353.855 735.641C349.853 735.641 346.287 735.566 343.595 735.356C333.48 734.592 323.82 728.436 318.962 724.841C316.779 723.223 316.088 720.647 317.216 718.43C318.034 716.842 319.654 715.644 321.673 715.18L348.416 708.888L391.714 684.832L392.205 685.551C392.387 685.821 396.644 692.127 398.063 696.381C398.609 697.999 398.463 699.347 397.644 700.395C397.08 701.114 396.28 701.534 395.643 701.773C396.425 702.447 398.881 703.825 406.449 704.814C417.492 706.252 419.821 696.83 419.912 696.441L419.985 696.126L420.312 695.946C425.57 693.16 428.808 691.887 429.918 692.157C430.609 692.322 431.773 692.621 434.921 718.28C435.23 719.089 437.431 724.991 435.939 730.638C434.32 736.779 401.719 734.667 395.188 734.188C395.006 734.203 370.592 735.641 353.873 735.641H353.855Z"
          fill="#2F2E43"/>
    <path d="M537.519 629.241L505.195 645.84L533.797 683.601L566.121 667.002L537.519 629.241Z" fill="#0BA360"
          fill-opacity="0.5"/>
    <path d="M494.592 729.544C490.116 729.544 486.005 729.095 483.076 728.676C480.201 728.256 477.946 726.369 477.473 724.002C477.145 722.295 477.745 720.572 479.164 719.299L497.812 702.313L519.097 663.037L519.97 663.427C520.297 663.577 527.956 667.067 531.904 670.063C533.414 671.201 534.16 672.414 534.124 673.658C534.105 674.526 533.705 675.215 533.305 675.71C534.397 675.949 537.362 676.039 544.42 673.583C554.717 670.003 550.642 660.985 550.46 660.611L550.315 660.311L550.479 660.027C553.153 655.368 555.063 652.882 556.191 652.627C556.9 652.462 558.065 652.208 577.221 672.624C578.004 673.163 583.661 677.223 586.026 682.66C588.592 688.577 559.575 700.994 553.735 703.421C553.553 703.541 523.19 721.71 510.71 726.878C505.762 728.93 499.904 729.559 494.573 729.559L494.592 729.544Z"
          fill="#2F2E43"/>
    <path d="M457.097 292.051H350.435L340.757 373.747L383.109 675.605H437.558L415.782 501.264L504.106 658.664L552.498 630.773L483.531 483.828C483.531 483.828 508.163 355.817 488.806 323.927C469.45 292.051 457.097 292.051 457.097 292.051Z"
          fill="#2B4271"/>
    <path d="M510.164 297.024H340.757L391.586 116.707H465.393L510.164 297.024Z" fill="#0BA360" fill-opacity="0.5"/>
    <path d="M525.409 392.845C528.12 403.81 523.153 413.831 514.348 415.224C505.543 416.617 496.211 408.843 493.518 397.878C492.372 393.504 492.554 388.981 494.046 384.667L460.517 212.782L502.451 206.281L518.642 380.787C522.08 384.322 524.391 388.456 525.409 392.86V392.845Z"
          fill="#9F616A"/>
    <path d="M436.776 116.707H465.393C485.623 119.238 491.117 128.121 495.719 144.538C502.742 169.583 511.71 202.926 509.928 203.42C507.071 204.199 458.352 223.073 433.52 218.759L436.776 116.707Z"
          fill="#0BA360" fill-opacity="0.5"/>
</svg>
