<svg width="680" height="808" viewBox="0 0 680 808" fill="none" xmlns="http://www.w3.org/2000/svg">
    <path d="M366.463 55.8115C373.994 55.8115 381.217 58.8539 386.543 64.2693C391.868 69.6847 394.86 77.0296 394.86 84.6881V168.322H338.067V84.6881C338.067 80.896 338.801 77.141 340.228 73.6375C341.655 70.1341 343.747 66.9507 346.384 64.2693C349.021 61.5878 352.151 59.4608 355.596 58.0096C359.042 56.5584 362.734 55.8115 366.463 55.8115Z"
          fill="#D6802B"/>
    <path d="M412.731 127.01H323.132V149.415H412.731V127.01Z" fill="#395DA3"/>
    <path d="M354.712 130.994L347.857 92.6573L360.587 103.609L365.972 90.6633L371.848 102.118L384.087 93.6526L377.232 130.495"
          stroke="#395DA3" stroke-width="5" stroke-miterlimit="10"/>
    <path d="M513.347 55.8115C520.878 55.8115 528.101 58.8539 533.426 64.2693C538.751 69.6847 541.743 77.0296 541.743 84.6881V168.322H484.95V84.6881C484.95 77.0296 487.942 69.6847 493.267 64.2693C498.593 58.8539 505.815 55.8115 513.347 55.8115Z"
          fill="#D6802B"/>
    <path d="M559.614 127.01H470.015V149.415H559.614V127.01Z" fill="#395DA3"/>
    <path d="M501.595 130.994L494.74 92.6573L507.471 103.609L512.859 90.6633L518.735 102.118L530.974 93.6526L524.119 130.495"
          stroke="#395DA3" stroke-width="5" stroke-miterlimit="10"/>
    <path d="M592.664 141.45H279.312C258.761 141.45 242.101 158.392 242.101 179.291V699.087C242.101 719.986 258.761 736.928 279.312 736.928H592.664C613.215 736.928 629.876 719.986 629.876 699.087V179.291C629.876 158.392 613.215 141.45 592.664 141.45Z"
          fill="#0BA360" fill-opacity="0.5"/>
    <path d="M298.904 706.983L284.958 691.289L286.404 709.609L273.303 715.388L268.128 698.036L264.979 687.468L261.788 676.775L287.252 658.442L293.228 664.693L303.969 675.937L339.907 656.455L298.904 706.983Z"
          fill="#D6802B"/>
    <path d="M293.598 664.396L303.969 675.937L268.128 698.036L264.979 687.468L293.227 664.693L293.598 664.396Z"
          fill="#A85D23"/>
    <path d="M77.9541 416.851L170.654 568.131L244.343 699.572L308.973 661.235C308.973 661.235 236.771 539.359 238.467 542.24C240.164 545.121 173.951 431.382 173.951 431.382L77.9541 416.851Z"
          fill="#334C5B"/>
    <path d="M110.492 747.69L111.344 726.556L99.7606 740.668L86.4294 735.464L94.3038 720.13L98.0813 712.769L104.792 699.694L135.589 704.737L135.489 729.133L174.559 740.804L110.492 747.69Z"
          fill="#D6802B"/>
    <path d="M97.0991 712.769L92.0544 723.72H135.142L135.386 713.017L97.0991 712.769Z" fill="#A85D23"/>
    <path d="M266.771 362.29L266.215 362.252L266.393 362.119C266.524 362.171 266.648 362.231 266.771 362.29Z"
          fill="#D6802B"/>
    <path d="M313.145 370.517C313.103 371.192 312.929 371.852 312.636 372.459C312.342 373.065 311.934 373.607 311.434 374.054C310.934 374.5 310.353 374.842 309.723 375.059C309.094 375.277 308.428 375.366 307.764 375.322L277.76 373.342C277.977 373.796 278.186 374.261 278.375 374.739L308.382 376.723C309.723 376.811 310.974 377.438 311.861 378.464C312.747 379.491 313.196 380.833 313.109 382.197C313.022 383.56 312.406 384.832 311.397 385.734C310.387 386.635 309.067 387.092 307.726 387.004L280.072 385.184C280.072 385.46 280.037 385.736 280.01 386.015C279.948 386.658 279.862 387.286 279.756 387.912L306.047 389.658C307.388 389.747 308.639 390.373 309.525 391.4C310.411 392.427 310.86 393.77 310.772 395.133C310.685 396.497 310.069 397.769 309.059 398.67C308.049 399.571 306.728 400.027 305.388 399.939L275.484 397.965C275.326 398.175 275.168 398.385 275.003 398.591L301.263 400.337C301.927 400.38 302.576 400.557 303.173 400.856C303.77 401.154 304.303 401.57 304.742 402.078C305.181 402.586 305.517 403.178 305.731 403.818C305.945 404.458 306.034 405.136 305.99 405.811C305.947 406.486 305.774 407.145 305.48 407.752C305.186 408.359 304.778 408.901 304.278 409.348C303.778 409.794 303.197 410.136 302.567 410.354C301.937 410.572 301.271 410.661 300.608 410.618L240.387 406.605L240.425 405.973L224.079 404.391L228.543 357.17L252.925 359.545L274.821 342.831C275.262 342.495 275.763 342.25 276.297 342.111C276.831 341.972 277.387 341.941 277.932 342.02C278.478 342.099 279.003 342.287 279.477 342.572C279.951 342.857 280.366 343.235 280.697 343.683L281.727 345.08C282.058 345.528 282.3 346.037 282.438 346.58C282.575 347.122 282.606 347.687 282.529 348.241C282.452 348.796 282.268 349.33 281.988 349.812C281.707 350.294 281.336 350.716 280.896 351.052L266.394 362.136L266.215 362.269L266.771 362.307L308.424 365.059C309.761 365.148 311.009 365.772 311.894 366.795C312.779 367.819 313.229 369.157 313.145 370.517Z"
          fill="#D6802B"/>
    <path d="M152.941 304.673L164.088 346.373L242.736 355.215L240.04 410.813L116.742 395.081L106.141 323.785L152.941 304.673Z"
          fill="#0BA360" fill-opacity="0.5"/>
    <path d="M242.636 358.529L248.845 407.119L239.8 406.79L242.636 358.529Z" fill="#A85D23"/>
    <path d="M275.188 365.754C275.188 365.754 286.751 383.592 273.262 404.517" stroke="black" stroke-width="2.31"
          stroke-miterlimit="10"/>
    <path d="M243.028 370.922C243.028 370.922 259.017 377.868 268.056 366.274" stroke="black" stroke-width="2.31"
          stroke-miterlimit="10"/>
    <path d="M73.9019 415.65L85.097 712.664L141.863 713.492L140.104 428.648L73.9019 415.65Z" fill="#334C5B"/>
    <path d="M92.7275 442.487L168.473 564.353" stroke="white" stroke-width="2.31" stroke-miterlimit="10"/>
    <path d="M175.16 432.873L172.213 432.416L73.0913 416.987L96.4947 332.683L110.025 283.94L110.252 283.13L158.683 285.071L161.767 285.193L175.16 432.873Z"
          fill="#0BA360" fill-opacity="0.5"/>
    <path d="M127.46 463.178L127.316 462.63L127.505 462.759C127.494 462.899 127.477 463.038 127.46 463.178Z"
          fill="#D6802B"/>
    <path d="M128.164 283.835L165.864 331.632L162.193 285.204L128.164 283.835Z" fill="#0BA360" fill-opacity="0.5"/>
    <path d="M135.877 343.83L109.599 359.147L123.628 425.236L175.283 432.702C175.283 432.702 119.229 383.162 135.877 343.83Z"
          fill="#0BA360" fill-opacity="0.5"/>
    <path d="M167.21 346.82L172.107 402.345L240.044 410.593L240.73 392.144C240.73 392.144 170.637 370.22 167.21 346.82Z"
          fill="#0BA360" fill-opacity="0.5"/>
    <path d="M163.319 261.873C162.992 265.736 161.224 269.326 158.377 271.907C155.531 274.487 151.821 275.862 148.01 275.751C147.728 275.751 147.446 275.726 147.161 275.702C144.168 275.442 141.321 274.269 138.993 272.338C136.665 270.407 134.964 267.806 134.112 264.876C134.11 264.869 134.11 264.862 134.112 264.855C133.943 264.275 133.808 263.685 133.707 263.088C133.532 262.02 133.47 260.936 133.521 259.854C133.521 259.655 133.542 259.456 133.559 259.257C133.678 257.835 133.994 256.437 134.5 255.105C134.531 255.021 134.562 254.937 134.599 254.854C134.637 254.77 134.658 254.7 134.689 254.627C134.836 254.277 134.998 253.928 135.173 253.579C136.762 250.457 139.367 247.993 142.544 246.606C145.72 245.219 149.271 244.995 152.592 245.974C155.912 246.952 158.796 249.071 160.751 251.97C162.707 254.868 163.613 258.367 163.315 261.869L163.319 261.873Z"
          fill="#D6802B"/>
    <path d="M137.708 260.364C137.622 261.375 137.245 262.337 136.623 263.13C136.002 263.923 135.164 264.513 134.215 264.824L134.102 264.859C133.859 264.933 133.611 264.988 133.36 265.023C132.986 265.076 132.607 265.085 132.23 265.051C130.981 264.944 129.815 264.37 128.958 263.44C128.101 262.509 127.613 261.289 127.59 260.014C127.566 258.74 128.008 257.502 128.83 256.539C129.653 255.577 130.797 254.959 132.041 254.805C132.393 254.759 132.749 254.752 133.102 254.784C133.766 254.842 134.412 255.033 135.003 255.346C135.594 255.658 136.119 256.086 136.548 256.605C136.976 257.124 137.299 257.724 137.5 258.37C137.7 259.016 137.773 259.696 137.714 260.371L137.708 260.364Z"
          fill="#D6802B"/>
    <path d="M135.444 253.279C135.342 253.368 135.252 253.47 135.177 253.583C134.971 253.909 134.808 254.261 134.692 254.63C134.648 254.766 134.624 254.85 134.624 254.85L134.706 254.896L134.603 254.857C134.565 254.941 134.534 255.025 134.503 255.109C134.057 254.934 133.589 254.825 133.113 254.784C132.759 254.752 132.403 254.759 132.052 254.805C132.704 256.436 133.198 258.129 133.525 259.858C133.728 260.923 133.791 262.01 133.71 263.092C133.661 263.765 133.487 264.423 133.195 265.03H133.37C133.626 265.023 133.878 264.975 134.119 264.887C134.156 264.872 134.192 264.853 134.225 264.831L135.396 257.173C135.551 256.764 135.726 256.364 135.922 255.975C136.131 255.495 136.424 255.059 136.787 254.686L137.093 254.445C136.508 254.111 135.956 253.721 135.444 253.279ZM134.163 264.705C134.181 263.888 134.225 263.13 134.291 262.428L134.163 264.705Z"
          fill="#A85D23"/>
    <path d="M164.329 245.331C164.171 247.194 163.495 248.974 162.38 250.463C161.265 251.951 159.757 253.086 158.032 253.736C156.307 254.386 154.435 254.524 152.636 254.134C150.837 253.744 149.183 252.842 147.869 251.533C147.787 251.676 147.704 251.819 147.615 251.959C146.655 253.485 145.22 254.639 143.539 255.238C141.858 255.837 140.028 255.846 138.342 255.263C136.655 254.68 135.21 253.538 134.236 252.022C133.263 250.505 132.818 248.7 132.972 246.895C132.996 246.623 133.03 246.354 133.078 246.092L133.109 245.949C133.13 245.847 133.154 245.746 133.178 245.645C131.015 244.782 129.17 243.256 127.898 241.278C126.627 239.301 125.991 236.97 126.081 234.609C126.17 232.248 126.98 229.974 128.397 228.102C129.815 226.23 131.77 224.852 133.992 224.161C135.363 223.728 136.803 223.572 138.233 223.7C139.698 223.829 141.124 224.249 142.43 224.938C143.735 225.627 144.894 226.57 145.841 227.715C146.788 228.859 147.503 230.182 147.948 231.608C148.392 233.033 148.555 234.534 148.429 236.024C148.401 236.373 148.357 236.701 148.298 237.033C149.757 235.744 151.56 234.927 153.478 234.687C155.396 234.447 157.34 234.795 159.063 235.686C160.785 236.577 162.206 237.97 163.144 239.688C164.082 241.406 164.495 243.369 164.329 245.327V245.331Z"
          fill="#395DA3"/>
    <path d="M134.617 223.994C134.188 225.663 131.1 238.367 135.582 241.584C136.235 242.045 137 242.318 137.793 242.373C137.561 243.714 137.569 245.086 137.817 246.424C138.401 249.399 140.565 252.79 147.622 251.959C146.664 253.489 145.228 254.647 143.546 255.249C141.863 255.85 140.031 255.86 138.342 255.276C136.653 254.692 135.206 253.549 134.232 252.03C133.259 250.51 132.815 248.702 132.972 246.895C132.996 246.623 133.03 246.354 133.078 246.092L133.178 245.977L133.109 245.949C133.13 245.848 133.154 245.746 133.178 245.645C131.015 244.782 129.17 243.256 127.898 241.278C126.627 239.301 125.991 236.97 126.081 234.609C126.17 232.248 126.98 229.974 128.397 228.102C129.815 226.23 131.77 224.853 133.992 224.161L134.617 223.994Z"
          fill="#2B4271"/>
    <path d="M433.04 397.145C399.602 418.796 357.349 414.955 328.365 390.569L100.094 538.43C97.0569 540.397 93.6688 541.737 90.1228 542.373C86.5769 543.008 82.9425 542.927 79.4273 542.135C75.912 541.342 72.5847 539.853 69.6354 537.753C66.6861 535.652 64.1724 532.982 62.2379 529.894C60.3035 526.806 58.9861 523.36 58.3611 519.754C57.7361 516.148 57.8156 512.453 58.5951 508.878C59.3746 505.303 60.8389 501.92 62.9043 498.921C64.9697 495.921 67.5958 493.365 70.6326 491.398L298.904 343.537C289.426 306.52 303.856 265.948 337.294 244.29C349.577 236.323 363.595 231.543 378.118 230.369C392.641 229.196 407.226 231.665 420.592 237.561L357.511 278.419L411.172 364.085L474.253 323.227C473.856 338.036 469.891 352.521 462.706 365.409C455.52 378.297 445.334 389.194 433.04 397.145Z"
          fill="#395DA3"/>
    <path d="M109.575 483.492C108.957 483.639 108.341 483.755 107.728 483.841L114.483 509.732C114.847 511.048 114.682 512.457 114.025 513.649C113.368 514.841 112.272 515.719 110.978 516.089C109.684 516.46 108.299 516.293 107.126 515.624C105.954 514.956 105.091 513.841 104.726 512.526C104.726 512.48 104.702 512.435 104.689 512.39L97.003 482.926C96.7558 482.846 96.5085 482.755 96.2647 482.664L103.023 508.534C103.387 509.849 103.223 511.258 102.566 512.45C101.909 513.642 100.814 514.519 99.5202 514.89C98.2269 515.26 96.8419 515.093 95.6698 514.425C94.4976 513.757 93.6345 512.643 93.2702 511.328C93.2702 511.283 93.2461 511.234 93.2358 511.188L77.7446 451.85L77.2089 449.698L74.6333 435.43L120.07 424.681L125.616 448.937L148.175 464.718C149.091 465.361 149.719 466.347 149.92 467.46C150.122 468.573 149.88 469.722 149.249 470.655L148.264 472.111C147.951 472.573 147.553 472.968 147.09 473.273C146.628 473.578 146.11 473.788 145.568 473.889C145.026 473.991 144.47 473.983 143.93 473.866C143.391 473.75 142.88 473.526 142.426 473.208L127.501 462.759L127.312 462.63L127.457 463.178L138.161 504.204C138.341 504.855 138.394 505.537 138.315 506.209C138.237 506.881 138.029 507.53 137.703 508.121C137.378 508.711 136.941 509.23 136.418 509.649C135.896 510.068 135.297 510.378 134.656 510.561C134.016 510.745 133.346 510.798 132.685 510.718C132.024 510.639 131.385 510.427 130.805 510.096C130.224 509.765 129.713 509.321 129.301 508.79C128.89 508.258 128.585 507.649 128.404 506.998L128.367 506.854L120.657 477.3C120.314 477.65 119.933 477.999 119.555 478.348L127.264 507.899C127.445 508.55 127.497 509.231 127.419 509.903C127.34 510.575 127.132 511.225 126.807 511.815C126.481 512.406 126.045 512.925 125.522 513.344C124.999 513.763 124.4 514.073 123.76 514.256C123.119 514.44 122.449 514.493 121.788 514.413C121.128 514.333 120.489 514.122 119.908 513.791C119.328 513.46 118.817 513.016 118.405 512.484C117.993 511.953 117.688 511.344 117.508 510.692C117.508 510.647 117.484 510.598 117.47 510.553L110.369 483.314C110.111 483.363 109.843 483.429 109.575 483.492Z"
          fill="#D6802B"/>
    <path d="M126.402 437.755L73.7165 452.866L42.9709 361.008L121.2 285.819L146.87 337.289L109.778 359.018L109.592 359.129L109.599 359.147L126.402 437.755Z"
          fill="#0BA360" fill-opacity="0.5"/>
    <path d="M109.599 359.147L93.7991 355.477L98.2703 351.824L109.778 359.018L109.592 359.129L109.599 359.147Z"
          fill="#0BA360" fill-opacity="0.5"/>
    <path d="M77.6038 451.294L123.226 438.478L123.274 438.464L123.229 438.489L79.884 460.042L77.6038 451.294Z"
          fill="#A85D23"/>
    <path d="M90.8732 446.964L61.3331 362.126L115.455 289.01L42.9709 360.635L73.7165 452.866L91.0037 447.537L90.8732 446.964Z"
          fill="#168743" fill-opacity="0.58"/>
    <path d="M442.446 223.718L393.685 255.109L396.045 313.745L447.158 340.988L495.915 309.597L493.559 250.96L442.446 223.718Z"
          fill="#395DA3"/>
    <path d="M444.802 305.253C457.24 305.253 467.323 294.999 467.323 282.351C467.323 269.703 457.24 259.449 444.802 259.449C432.364 259.449 422.281 269.703 422.281 282.351C422.281 294.999 432.364 305.253 444.802 305.253Z"
          fill="#D6802B"/>
    <path d="M560.483 446.157H423.617C415.443 446.157 408.816 452.896 408.816 461.208V663.125C408.816 671.437 415.443 678.176 423.617 678.176H560.483C568.657 678.176 575.284 671.437 575.284 663.125V461.208C575.284 452.896 568.657 446.157 560.483 446.157Z"
          fill="#395DA3"/>
    <path d="M558.007 469.81H421.687C421.148 469.81 420.712 470.254 420.712 470.801V485.248C420.712 485.796 421.148 486.24 421.687 486.24H558.007C558.546 486.24 558.982 485.796 558.982 485.248V470.801C558.982 470.254 558.546 469.81 558.007 469.81Z"
          fill="#C84348"/>
    <path d="M519.621 469.81H421.539C421.082 469.81 420.712 470.186 420.712 470.651V485.399C420.712 485.863 421.082 486.24 421.539 486.24H519.621C520.078 486.24 520.448 485.863 520.448 485.399V470.651C520.448 470.186 520.078 469.81 519.621 469.81Z"
          fill="#D6802B"/>
    <path d="M558.007 524.329H421.687C421.148 524.329 420.712 524.773 420.712 525.321V539.768C420.712 540.316 421.148 540.76 421.687 540.76H558.007C558.546 540.76 558.982 540.316 558.982 539.768V525.321C558.982 524.773 558.546 524.329 558.007 524.329Z"
          fill="#C84348"/>
    <path d="M519.621 524.329H421.539C421.082 524.329 420.712 524.706 420.712 525.171V539.918C420.712 540.383 421.082 540.76 421.539 540.76H519.621C520.078 540.76 520.448 540.383 520.448 539.918V525.171C520.448 524.706 520.078 524.329 519.621 524.329Z"
          fill="#D6802B"/>
    <path d="M558.007 578.45H421.687C421.148 578.45 420.712 578.894 420.712 579.442V593.889C420.712 594.437 421.148 594.881 421.687 594.881H558.007C558.546 594.881 558.982 594.437 558.982 593.889V579.442C558.982 578.894 558.546 578.45 558.007 578.45Z"
          fill="#C84348"/>
    <path d="M519.621 578.45H421.539C421.082 578.45 420.712 578.827 420.712 579.292V594.039C420.712 594.504 421.082 594.881 421.539 594.881H519.621C520.078 594.881 520.448 594.504 520.448 594.039V579.292C520.448 578.827 520.078 578.45 519.621 578.45Z"
          fill="#D6802B"/>
    <path d="M558.007 632.617H421.687C421.148 632.617 420.712 633.061 420.712 633.609V648.056C420.712 648.604 421.148 649.048 421.687 649.048H558.007C558.546 649.048 558.982 648.604 558.982 648.056V633.609C558.982 633.061 558.546 632.617 558.007 632.617Z"
          fill="#C84348"/>
    <path d="M519.621 632.617H421.539C421.082 632.617 420.712 632.994 420.712 633.459V648.206C420.712 648.671 421.082 649.048 421.539 649.048H519.621C520.078 649.048 520.448 648.671 520.448 648.206V633.459C520.448 632.994 520.078 632.617 519.621 632.617Z"
          fill="#D6802B"/>
    <path d="M309.066 474.042L276.359 495.1L277.939 534.432L312.228 552.706L344.935 531.649L343.355 492.316L309.066 474.042Z"
          fill="#395DA3"/>
    <path d="M310.645 528.736C318.988 528.736 325.752 521.858 325.752 513.374C325.752 504.89 318.988 498.012 310.645 498.012C302.302 498.012 295.539 504.89 295.539 513.374C295.539 521.858 302.302 528.736 310.645 528.736Z"
          fill="#D6802B"/>
    <path d="M564 172.383L531.293 193.444L532.873 232.776L567.159 251.051L599.869 229.993L598.286 190.661L564 172.383Z"
          fill="#395DA3"/>
    <path d="M565.579 227.081C573.922 227.081 580.686 220.203 580.686 211.719C580.686 203.234 573.922 196.357 565.579 196.357C557.236 196.357 550.473 203.234 550.473 211.719C550.473 220.203 557.236 227.081 565.579 227.081Z"
          fill="#D6802B"/>
    <path d="M209.15 292.377C221.958 292.377 232.341 281.819 232.341 268.794C232.341 255.77 221.958 245.212 209.15 245.212C196.343 245.212 185.96 255.77 185.96 268.794C185.96 281.819 196.343 292.377 209.15 292.377Z"
          fill="#C84348"/>
    <path d="M210.335 135.46L168.656 101.876L133.006 143.136L210.335 135.46Z" fill="#D6802B"/>
    <path d="M116.097 190.78C123.861 190.78 130.156 184.379 130.156 176.483C130.156 168.587 123.861 162.186 116.097 162.186C108.332 162.186 102.037 168.587 102.037 176.483C102.037 184.379 108.332 190.78 116.097 190.78Z"
          fill="#D6802B"/>
    <path d="M195.246 158.373L225.843 219.548L194.267 212.057L202.56 200.928C202.56 200.928 177.416 199.765 178.449 197.471C179.483 195.176 196.001 180.935 196.001 180.935L180.373 171.992C180.373 171.992 195.943 159.242 195.246 158.373Z"
          fill="#D6802B"/>
    <path d="M293.385 106.249L232.904 123.214L287.225 74.0615L293.385 106.249Z" fill="#395DA3"/>
    <path d="M528.632 551H460.368C451.881 551 445 556.636 445 563.589V612.411C445 619.364 451.881 625 460.368 625H528.632C537.119 625 544 619.364 544 612.411V563.589C544 556.636 537.119 551 528.632 551Z"
          fill="white"/>
    <path d="M516.225 513H472.775C462.406 513 454 519.901 454 528.414V563.586C454 572.099 462.406 579 472.775 579H516.225C526.594 579 535 572.099 535 563.586V528.414C535 519.901 526.594 513 516.225 513Z"
          stroke="white" stroke-width="17.66" stroke-miterlimit="10"/>
    <path d="M500.499 593.498L506.76 607.949L486.1 608L491.828 593.597C488.924 592.757 486.461 591.069 484.875 588.83C483.288 586.591 482.681 583.945 483.159 581.361C483.638 578.777 485.171 576.42 487.489 574.707C489.807 572.994 492.76 572.036 495.826 572.001C498.892 571.966 501.874 572.857 504.245 574.516C506.616 576.176 508.223 578.497 508.782 581.069C509.341 583.641 508.817 586.3 507.301 588.574C505.785 590.848 503.376 592.592 500.499 593.498Z"
          fill="#2B4271"/>
</svg>
