<svg width="844" height="745" viewBox="0 0 844 745" fill="none" xmlns="http://www.w3.org/2000/svg">
<path d="M476.909 133.865C516.564 133.865 556.219 133.865 596.902 133.865C596.902 177.032 596.902 219.56 596.902 263.915C596.936 273.09 596.97 280.437 596.891 288.456C595.804 290.704 595.04 292.538 593.824 293.822C570.431 318.526 546.569 342.683 523.68 367.97C505.13 388.463 487.735 410.297 469.234 431.466C462.105 425.542 455.57 419.69 449.524 413.495C475.347 387.242 474.758 348.208 448.696 325.905C433.682 313.056 411.974 311.8 396.409 322.88C378.733 335.462 370.778 356.767 373.635 379C375.542 393.842 383.641 403.604 391.298 414.522C384.816 420.595 378.613 426.091 372.13 431.018C348.666 404.001 325.704 377.297 302.229 351.186C283.502 330.355 264.149 310.245 245.161 288.898C245.258 280.023 245.268 272.065 245.275 263.192C244.691 252.97 244.111 243.663 243.53 234.355C243.53 201.269 243.53 168.182 243.53 134.003C283.419 134.003 322.714 134.003 363.356 134.47C366.104 135.244 367.506 135.816 368.908 135.818C402.76 135.871 436.611 135.9 470.462 135.781C472.613 135.773 474.76 134.532 476.909 133.865ZM392 209.06C369.124 209.058 346.247 209.034 323.371 209.086C320.786 209.092 317.956 208.877 315.698 209.975C313.988 210.807 311.921 213.638 312.013 215.448C312.104 217.238 314.461 219.578 316.271 220.371C318.302 221.261 320.833 220.743 323.147 220.744C372.664 220.78 422.181 220.902 471.697 220.644C475.814 220.623 483.391 224.483 483.389 215.84C483.388 207.255 475.848 211.113 471.671 210.968C445.671 210.062 419.657 209.655 392 209.06ZM361.093 183.278C346.887 183.259 332.678 183.039 318.48 183.425C316.236 183.485 314.049 186.278 311.835 187.808C314.098 189.613 316.325 192.927 318.628 192.996C349.877 193.943 381.137 194.599 412.396 194.776C415.229 194.792 418.079 191.006 420.922 188.986C418.084 187.107 415.286 183.699 412.402 183.604C395.89 183.059 379.358 183.303 361.093 183.278ZM529.028 265.267C527.684 253.052 521.712 244.762 512.732 242.643C503.01 240.349 494.624 244.235 489.383 253.462C483.969 262.996 484.117 272.676 490.824 281.669C496.333 289.057 503.673 292.795 512.398 290.245C522.812 287.2 527.671 280.087 529.028 265.267ZM315.15 280.216C323.925 291.871 332.08 293.994 343.355 287.557C351.561 282.871 356.291 271.751 354.17 262.199C352.042 252.619 347.376 245.129 338.695 242.856C330.031 240.587 322.038 242.898 316.152 251.374C310.056 260.153 309.894 269.309 315.15 280.216ZM444.431 290.194C459.343 293.458 474.072 278.023 470.812 262.549C468.007 249.237 460.212 242.146 448.614 242.357C438.344 242.544 430.024 250.255 428.25 261.231C426.232 273.711 431.686 284.175 444.431 290.194ZM403.384 286.716C414.265 275.454 415.635 258.852 406.514 248.792C397.669 239.037 381.787 240.332 374.109 251.434C368.301 259.831 368.192 272.062 373.851 280.5C380.75 290.786 390.339 293.147 403.384 286.716Z" fill="#C3E0DE" fill-opacity="0.51"/>
<path d="M242.949 234.63C244.11 243.663 244.69 252.97 244.756 263.469C239.959 270.377 235.676 276.094 231.301 282.732C231.115 306.488 231.02 329.322 230.18 352.283C228.279 352.462 227.107 352.686 225.972 352.541C203.942 349.736 196.101 365.558 196.378 385.788C197.178 444.04 196.597 502.317 195.951 560.35C182.811 552.775 170.696 544.264 157.664 538.338C129.714 525.628 101.29 514.253 73.0607 502.332C70.4662 455.121 81.2761 411.425 101.801 370.939C116.268 342.4 134.737 317.38 157.007 295.624C177.271 275.828 199.473 259.872 222.736 245.452C229.079 241.52 235.814 238.398 242.949 234.63Z" fill="#334C5B"/>
<path d="M737.625 655.673C735.546 662.492 733.467 669.311 731.074 677.159C740.88 685.093 754.72 690.496 755.382 709.885C741.989 708.278 729.038 706.807 716.106 705.144C708.221 704.13 700.393 702.401 692.491 701.743C680.18 700.717 667.828 700.345 655.494 699.664C644.028 699.031 632.56 697.73 621.101 697.833C599.191 698.03 577.264 698.505 555.389 699.818C533.438 701.135 511.499 703.152 489.632 705.712C466.5 708.42 443.482 712.369 420.37 715.329C401.978 717.684 383.538 719.639 365.085 721.284C339.995 723.521 314.81 724.584 289.784 727.458C263.377 730.492 237.445 727.086 211.378 723.436C179.816 719.015 150.011 708.546 121.956 691.733C113.076 686.412 104.558 680.317 96.333 672.394C105.26 672.394 114.187 672.394 124.805 672.394C122.676 669.083 121.623 667.445 121.011 665.043C125.614 664.86 129.776 665.442 134.197 666.706C136.398 674.513 141.503 673.877 146.513 673.875C234.948 673.837 323.383 673.847 411.819 673.847C505.763 673.847 599.708 673.921 693.651 673.607C697.912 673.593 702.163 670.068 707.078 668.092C717.701 663.895 727.663 659.784 737.625 655.673Z" fill="#0BA360" fill-opacity="0.5"/>
<path d="M469.827 431.536C487.734 410.297 505.129 388.463 523.68 367.97C546.569 342.683 570.431 318.526 593.824 293.822C595.04 292.538 595.803 290.704 597.486 288.358C601.852 284.943 605.508 282.297 609.165 279.65C609.714 282.617 610.717 285.579 610.738 288.551C610.884 308.649 610.823 328.75 610.837 350.659C610.854 357.876 610.862 363.283 610.818 369.6C610.741 431.518 610.714 492.525 609.98 553.648C602.297 555.853 595.321 557.943 587.925 560.019C587.504 560.005 586.662 559.995 586.393 559.388C555.238 524.925 524.357 491.062 493.458 457.22C485.61 448.624 477.706 440.095 469.827 431.536Z" fill="#334C5B"/>
<path d="M72.4058 502.423C101.291 514.254 129.714 525.628 157.664 538.338C170.696 544.264 182.812 552.776 195.974 561.058C196.81 563.905 197.013 565.811 197.037 568.273C196.697 569.597 196.538 570.363 195.926 571.564C190.645 580.597 185.818 589.197 180.554 597.891C180.386 599.09 180.655 600.195 180.727 601.796C180.11 603.248 179.689 604.203 178.698 605.187C177.023 604.895 175.919 604.575 174.495 603.761C173.157 602.633 172.138 601.998 171.119 601.362C170.881 601.773 170.643 602.183 170.406 602.593C171.484 603.57 172.562 604.546 173.922 605.98C175.248 607.319 176.292 608.202 177.255 609.83C172.574 625.161 171.021 639.721 176.642 654.265C167.707 654.241 159.578 654.168 151.141 653.542C149.332 651.495 147.84 649.99 146.33 648.508C130.961 633.428 115.585 618.359 100.224 603.27C96.8981 600.003 93.6265 596.665 90.33 593.36C90.33 593.36 90.4419 593.241 90.3878 592.687C89.5326 591.581 88.7316 591.029 87.9306 590.477C87.9306 590.477 87.8829 589.933 88.0314 589.347C87.7328 588.298 87.2857 587.834 86.8386 587.371C72.3452 568.641 56.6332 550.799 50.3771 525.852C46.1499 508.995 60.874 498.981 72.4058 502.423ZM111.153 554.668C110.676 554.778 110.199 554.888 109.722 554.997C110.098 555.458 110.473 555.919 111.287 557.233C111.808 557.508 112.328 557.782 113.352 558.998C114.214 559.483 115.077 559.968 116.443 561.237C116.877 561.686 117.381 561.984 118.52 563.052C119.382 563.579 120.244 564.105 121.806 565.664C126.139 569.06 130.472 572.456 134.804 575.852C135.177 575.242 135.55 574.632 135.923 574.022C132.718 569.551 129.513 565.079 125.832 559.407C124.157 555.631 122.481 551.856 120.806 548.08C120.03 548.549 119.255 549.018 118.48 549.487C120.607 553.71 122.734 557.932 124.5 562.964C123.715 563.058 122.931 563.153 121.576 562.374C120.72 561.902 119.864 561.43 118.481 560.189C118.039 559.746 117.529 559.462 116.377 558.442C115.492 557.998 114.608 557.554 113.218 556.297C112.695 556.013 112.173 555.729 111.153 554.668ZM141.158 577.515C140.112 576.906 139.066 576.298 138.019 575.69C137.777 576.094 137.535 576.497 137.293 576.9C138.381 577.908 139.468 578.916 141.243 580.98C143.861 583.318 146.479 585.656 150.256 589.029C145.091 590.301 141.407 591.209 139.142 591.766C146.292 592.918 154.82 594.291 165.785 596.057C156.648 589.342 149.24 583.897 141.158 577.515ZM167.514 598.019C166.818 598.175 166.123 598.331 165.427 598.486C165.919 599.195 166.411 599.904 166.904 600.612C167.403 600.043 167.903 599.475 167.514 598.019ZM106.507 552.765C106.888 552.798 107.268 552.831 107.648 552.864C107.471 552.653 107.294 552.442 106.507 552.765Z" fill="#52CD99"/>
<path d="M725.694 524.013C735.819 523.99 746.145 522.523 756.021 524.286C770.185 526.815 770.334 543.494 764.158 556.027C759.518 565.444 752.678 573.47 746.021 582.974C738.947 591.468 732.67 599.104 725.811 607.012C707.966 622.901 690.702 638.517 672.742 654.215C670.18 654.273 668.314 654.249 666.553 653.467C670.394 641.401 670.214 630.118 666.982 618.31C671.835 617.292 676.197 616.822 682.184 616.177C674.784 612.992 666.536 618.762 662.945 608.158C657.453 598.802 652.085 590.119 646.508 580.892C644.964 578.13 643.63 575.913 642.712 573.408C643.944 572.006 644.759 570.892 646.079 569.424C670.333 548.149 696.546 532.777 725.694 524.013ZM674.823 603.133C674.848 602.68 674.872 602.227 674.897 601.773C674.293 602.074 673.688 602.375 672.266 603.055C671.951 603.587 671.636 604.12 670.302 604.73C669.527 605.407 668.753 606.084 667.108 607.159C667.069 607.598 667.031 608.038 666.992 608.477C667.584 608.199 668.176 607.921 669.721 607.35C670.421 606.625 671.121 605.899 672.695 605.009C673.116 604.559 673.537 604.109 674.823 603.133ZM687.284 593.742C688.012 593.064 688.741 592.386 690.507 591.404C691.87 590.155 693.234 588.906 695.837 587.27C704.168 584.46 712.499 581.65 720.83 578.84C720.936 579.66 721.043 580.479 721.149 581.299C716.109 579.733 711.069 578.168 705.226 576.353C701.844 579.3 697.766 582.852 692.702 586.827C691.296 588.017 689.89 589.206 687.592 590.83C686.827 591.489 686.062 592.147 684.553 592.956C684.553 592.956 683.874 593.331 683.103 592.436C681.336 594.378 679.569 596.321 677.134 599.055C677.17 599.539 677.206 600.024 677.242 600.508C677.867 600.229 678.492 599.951 680.119 599.378C681.486 598.226 682.853 597.075 685.053 595.487C685.489 595.011 685.924 594.535 687.284 593.742Z" fill="#52CE99"/>
<path d="M673.117 430.246C653.567 405.609 651.615 377.185 669.885 352.653C683.987 333.718 709.545 327.262 732.918 344.338C751.148 357.656 758.874 387.579 750.123 409.438C739.391 436.245 718.375 448.749 694.845 441.383C687.453 439.069 680.64 434.38 673.117 430.246Z" fill="#334C5B"/>
<path d="M725.498 523.401C696.546 532.777 670.333 548.15 645.557 568.826C644.328 539.948 644.126 511.315 643.924 482.682C675.32 484.937 702.834 497.298 725.498 523.401Z" fill="#0BA360" fill-opacity="0.5"/>
<path d="M90.4314 594.141C93.6262 596.665 96.8978 600.003 100.223 603.27C115.584 618.359 130.961 633.428 146.33 648.508C147.84 649.989 149.332 651.495 150.346 653.634C134.093 654.513 134.093 654.513 133.937 666.024C129.775 665.442 125.613 664.86 120.755 664.369C99.4538 659.688 79.375 653.049 62.5023 638.246C57.9675 634.267 53.6858 627.576 52.5906 621.381C50.0329 606.914 57.0615 604.571 74.6288 601.29C80.1803 600.254 86.0101 601.129 92.4159 601.129C91.5789 598.369 91.056 596.646 90.4314 594.141Z" fill="#67DDA8"/>
<path d="M643.902 481.77C644.126 511.315 644.328 539.948 645.053 569.179C644.759 570.892 643.944 572.006 642.171 573.112C636.846 569.382 632.477 565.661 627.963 561.425C627.674 560.589 627.528 560.268 627.567 559.034C627.85 501.441 628.003 444.762 628.019 388.082C628.025 366.631 630.243 368.638 610.869 368.69C610.862 363.283 610.854 357.876 610.895 351.571C616.274 351.374 621.812 351.263 626.893 352.935C639.17 356.975 643.843 364.516 643.86 378.777C643.902 412.804 643.877 446.831 643.902 481.77Z" fill="#B4B4B4"/>
<path d="M476.69 133.245C474.76 134.532 472.612 135.773 470.462 135.781C436.61 135.9 402.759 135.871 368.908 135.818C367.505 135.816 366.103 135.244 364.162 134.38C376.671 122.105 389.918 110.658 402.711 98.5938C415.19 86.8252 427.588 89.609 439.185 99.0146C452.083 109.475 464.081 121.36 476.69 133.245Z" fill="#334C5B"/>
<path d="M673.438 654.132C690.702 638.517 707.966 622.901 726.53 606.945C734.081 607.324 740.332 608.043 746.584 608.762C749.902 610.324 753.829 611.077 756.43 613.59C766.169 623.001 763.405 632.209 751.85 645.06C748.147 649.177 742.945 651.564 738.027 655.208C727.663 659.784 717.7 663.895 707.042 667.212C706.346 662.693 706.346 658.967 706.346 654.132C694.505 654.132 683.972 654.132 673.438 654.132Z" fill="#67DDA8"/>
<path d="M649.557 205.029C657.203 205.301 663.935 207.776 665.772 215.632C667.344 222.359 668.629 230.085 662.449 236.435C656.209 242.846 649.09 242.356 643.607 238.364C639.461 235.346 636.34 228.052 635.566 222.187C634.581 214.715 638.71 208.828 645.841 206.804C646.905 206.501 647.851 205.662 649.557 205.029ZM659.53 215.816C658.412 214.838 657.365 213.725 656.163 212.904C650.551 209.07 645.695 210.729 642.293 216.495C638.849 222.331 639.685 227.74 644.643 232.627C648.988 236.91 653.549 236.56 657.544 233.545C662.929 229.482 662.928 223.233 659.53 215.816Z" fill="#FF7382"/>
<path d="M686.859 152.151C681.106 143.998 675.8 136.318 669.413 127.073C683.263 124.953 694.563 123.224 708.275 121.126C702.357 133.224 697.879 142.758 692.939 151.974C692.349 153.076 689.245 152.45 686.859 152.151ZM694.855 128.157C690.295 129.269 685.734 130.381 679.464 131.909C683.4 137.34 686.477 141.585 690.872 147.648C693.032 139.842 694.638 134.038 694.855 128.157Z" fill="#16BECF"/>
<path d="M163.579 158.293C164.149 146.539 165.332 145.785 173.047 151.457C178.459 155.437 183.997 159.241 189.102 163.679C190.191 164.626 190.481 169.455 189.74 169.984C181.786 175.667 173.55 180.846 163.579 187.344C163.579 176.388 163.579 167.792 163.579 158.293ZM179.046 170.708C180.19 169.317 181.334 167.926 182.726 166.233C178.249 162.761 173.964 159.438 169.361 155.868C169.361 163.404 169.361 169.885 169.361 176.338C172.519 174.513 175.221 172.952 179.046 170.708Z" fill="#FBAD18"/>
<path d="M746.573 607.871C740.333 608.043 734.081 607.324 727.111 606.672C732.67 599.103 738.947 591.468 745.749 583.571C746.37 591.2 746.466 599.09 746.573 607.871Z" fill="#0BA360" fill-opacity="0.5"/>
<path d="M728.382 253.199C724.306 252.254 720.763 251.946 717.219 251.639C717.185 250.841 717.151 250.042 717.117 249.244C720.789 248.75 724.46 248.256 728.671 247.69C729.018 243.47 729.372 239.164 729.727 234.859C730.466 234.791 731.206 234.724 731.945 234.656C732.298 238.778 732.651 242.9 733.062 247.703C737.373 248.119 741.789 248.545 746.205 248.971C746.266 249.794 746.327 250.617 746.388 251.441C742.236 251.865 738.083 252.29 733.186 252.79C732.828 257.583 732.452 262.61 732.076 267.638C731.388 267.711 730.7 267.783 730.012 267.856C729.646 263.183 729.28 258.51 728.382 253.199Z" fill="#707DC4"/>
<path d="M73.1051 301.949C74.3884 306.068 74.9105 310.185 75.5116 314.925C79.7607 315.234 84.1096 315.55 88.4586 315.866C88.4945 316.757 88.5305 317.648 88.5665 318.539C84.3224 318.953 80.0784 319.368 75.2572 319.839C74.9453 324.807 74.6349 329.75 74.3246 334.692C73.585 334.747 72.8453 334.802 72.1057 334.857C71.6922 330.086 71.2788 325.316 70.8091 319.897C67.111 319.487 63.2808 319.062 59.4506 318.638C59.3854 317.798 59.3201 316.958 59.2549 316.118C62.8689 315.738 66.483 315.358 70.616 314.923C71.1797 310.689 71.7617 306.317 73.1051 301.949Z" fill="#707DC4"/>
<path d="M609.117 278.968C605.509 282.297 601.852 284.943 597.6 287.688C596.97 280.437 596.936 273.09 596.959 264.825C601.034 268.701 605.051 273.493 609.117 278.968Z" fill="#99AAE0"/>
<path d="M88.0801 590.973C88.7314 591.029 89.5324 591.581 90.3619 592.769C89.6703 592.76 88.95 592.114 88.0801 590.973Z" fill="#67DDA8"/>
<path d="M86.9424 587.956C87.2859 587.834 87.733 588.298 88.2649 589.277C87.9151 589.376 87.4805 588.959 86.9424 587.956Z" fill="#67DDA8"/>
<path d="M469.234 431.465C477.706 440.095 485.61 448.624 493.458 457.22C524.357 491.062 555.238 524.925 585.95 559.838C576.292 567.173 566.646 573.158 557.362 579.794C543.557 589.662 529.344 596.028 512.376 593.189C501.377 591.348 490.062 591.303 478.905 591.532C472.351 591.666 465.865 594.215 459.289 595.147C441.703 597.64 425.279 593.556 410.43 582.574C394.877 571.069 378.347 566.63 360.069 571.917C340.702 577.52 323.417 573.341 306.899 560.012C296.67 551.759 284.503 546.586 273.455 539.437C291.898 518.727 309.989 498.489 328.321 478.535C342.864 462.705 357.702 447.223 372.41 431.587C378.613 426.091 384.816 420.595 391.874 414.398C394.839 411.763 396.95 409.829 399.618 407.715C413.552 395.989 426.936 394.83 440.36 407.461C440.77 407.847 441.445 407.873 442.261 408.615C444.695 410.721 446.865 412.279 449.035 413.837C455.57 419.689 462.105 425.542 469.234 431.465Z" fill="#334C5B"/>
<path d="M372.129 431.018C357.703 447.223 342.864 462.705 328.321 478.535C309.989 498.489 291.898 518.727 272.885 539.429C271.308 539.977 270.549 539.94 269.259 539.434C256.168 535.37 243.666 534.076 230.963 540.072C230.575 539.965 229.798 539.753 229.79 538.962C229.786 535.533 229.789 532.895 230.246 529.75C230.776 526.358 230.852 523.475 231.051 519.68C231.091 512.624 231.01 506.48 231.043 499.568C231.082 496.209 231.005 493.618 231.05 490.169C231.095 486.409 231.018 483.508 231.042 479.836C231.071 476.483 231 473.901 231.05 470.43C231.09 465.352 231.009 461.164 231.042 456.207C231.08 452.848 231.004 450.258 231.052 446.737C231.166 420.163 231.157 394.519 231.219 367.963C231.169 362.087 231.048 357.122 230.926 352.156C231.021 329.322 231.115 306.488 231.915 282.82C236.772 284.596 240.923 287.205 245.074 289.815C264.149 310.245 283.501 330.355 302.229 351.186C325.704 377.297 348.666 404.001 372.129 431.018Z" fill="#334C5B"/>
<path d="M399.061 407.895C396.951 409.829 394.84 411.763 392.153 413.821C383.641 403.604 375.542 393.842 373.635 379C370.778 356.767 378.733 335.462 396.409 322.88C411.974 311.8 433.682 313.056 448.696 325.905C474.758 348.208 475.347 387.242 449.524 413.495C446.866 412.279 444.696 410.721 442.709 408.184C445.271 404.822 447.855 402.653 449.995 400.02C464.75 381.871 463.457 352.714 447.27 336.413C430.735 319.763 405.919 321.477 391.163 339.962C378.17 356.239 374.592 386.966 399.061 407.895Z" fill="#F6FBF9"/>
<path d="M392.824 209.071C419.657 209.655 445.67 210.062 471.67 210.968C475.848 211.113 483.387 207.255 483.389 215.84C483.391 224.483 475.814 220.623 471.696 220.644C422.181 220.902 372.663 220.78 323.147 220.744C320.833 220.743 318.302 221.261 316.27 220.371C314.461 219.578 312.104 217.238 312.013 215.448C311.921 213.638 313.988 210.807 315.698 209.975C317.956 208.877 320.786 209.092 323.371 209.086C346.247 209.034 369.123 209.058 392.824 209.071Z" fill="#FCFEFE"/>
<path d="M361.963 183.278C379.358 183.303 395.89 183.059 412.402 183.603C415.285 183.699 418.084 187.107 420.922 188.986C418.079 191.006 415.229 194.792 412.396 194.776C381.136 194.599 349.877 193.943 318.628 192.996C316.324 192.927 314.097 189.613 311.835 187.808C314.049 186.278 316.235 183.485 318.48 183.425C332.677 183.039 346.887 183.259 361.963 183.278Z" fill="#FCFDFD"/>
<path d="M529.029 266.08C527.671 280.087 522.812 287.2 512.397 290.245C503.673 292.795 496.333 289.057 490.823 281.669C484.117 272.676 483.968 262.996 489.383 253.462C494.624 244.235 503.009 240.349 512.732 242.643C521.712 244.762 527.683 253.052 529.029 266.08ZM518.678 265.39C518.242 256.412 513.274 252.033 506.175 253.096C500.292 253.978 495.702 258.645 495.975 266.622C496.235 274.199 499.717 279.293 506.425 279.599C513.579 279.924 518.655 276.244 518.678 265.39Z" fill="#FCFEFE"/>
<path d="M314.837 279.54C309.893 269.309 310.056 260.153 316.151 251.374C322.037 242.898 330.03 240.587 338.695 242.856C347.375 245.129 352.042 252.619 354.169 262.199C356.29 271.751 351.56 282.871 343.354 287.557C332.08 293.994 323.924 291.871 314.837 279.54ZM344.578 265.375C341.903 255.463 336.462 251.104 330.04 253.594C323.111 256.28 319.957 262.514 322.351 269.514C323.834 273.853 329.019 278.582 333.085 279.324C339.993 280.586 343.954 274.95 344.578 265.375Z" fill="#FCFEFE"/>
<path d="M443.784 289.994C431.686 284.175 426.232 273.711 428.249 261.231C430.024 250.255 438.344 242.544 448.614 242.357C460.211 242.146 468.007 249.237 470.811 262.549C474.071 278.023 459.342 293.458 443.784 289.994ZM438.821 260.459C438.693 263.075 437.737 266.144 438.617 268.209C440.233 272.004 442.35 276.825 445.342 278.205C448.323 279.581 453.364 278.483 456.212 276.306C462.404 271.571 462.664 263.82 457.933 257.609C452.686 250.72 446.877 251.156 438.821 260.459Z" fill="#FDFEFE"/>
<path d="M402.822 287.106C390.338 293.147 380.749 290.786 373.85 280.5C368.191 272.062 368.3 259.831 374.108 251.434C381.787 240.332 397.669 239.037 406.513 248.792C415.634 258.851 414.264 275.454 402.822 287.106ZM401.607 272.439C404.005 262.287 401.227 255.669 393.613 253.393C387.818 251.661 381.779 256.049 379.859 263.228C377.989 270.215 381.381 274.716 385.869 277.976C391.87 282.334 396.78 278.993 401.607 272.439Z" fill="#FDFEFE"/>
<path d="M245.161 288.898C240.923 287.205 236.772 284.596 232.007 281.899C235.676 276.094 239.959 270.377 244.761 264.384C245.268 272.065 245.258 280.023 245.161 288.898Z" fill="#9DADE0"/>
<path d="M230.181 352.284C231.048 357.122 231.169 362.087 230.45 367.896C227.291 368.714 224.93 369.005 222.662 368.607C214.176 367.118 211.852 371.176 212.125 380.57C212.774 402.865 212.46 425.197 212.456 448.311C212.429 451.782 212.482 454.456 212.465 458.004C212.442 462.974 212.488 467.069 212.456 471.961C212.429 475.431 212.481 478.104 212.458 481.618C212.434 485.263 212.484 488.068 212.456 491.671C212.43 495.143 212.482 497.816 212.465 501.392C212.442 508.343 212.488 514.39 212.456 521.235C212.432 524.708 212.487 527.383 212.469 530.916C212.442 535.215 212.487 538.656 212.451 542.907C212.29 546.435 212.21 549.152 211.628 552.172C206.489 557.555 201.853 562.636 197.217 567.717C197.014 565.811 196.81 563.905 196.583 561.292C196.598 502.317 197.178 444.041 196.379 385.788C196.102 365.558 203.943 349.736 225.973 352.541C227.108 352.686 228.28 352.463 230.181 352.284Z" fill="#B5B4B5"/>
<path d="M672.742 654.215C683.971 654.132 694.505 654.132 706.346 654.132C706.346 658.967 706.346 662.693 706.382 667.298C702.162 670.068 697.911 673.593 693.651 673.607C599.707 673.922 505.763 673.847 411.818 673.847C323.383 673.847 234.948 673.837 146.512 673.875C141.503 673.878 136.398 674.513 134.196 666.706C134.094 654.513 134.094 654.513 150.655 654.187C159.578 654.168 167.707 654.241 177.443 654.305C184.939 654.253 190.827 654.21 197.495 654.211C202.978 654.205 207.68 654.155 213.188 654.181C238.96 654.189 263.926 654.12 289.703 654.138C316.676 654.313 342.838 654.4 368.961 655.211C372.696 666.198 381.136 665.788 388.576 665.954C410.209 666.437 431.858 666.268 453.497 666.01C458.027 665.956 462.901 665.321 466.942 663.259C469.666 661.868 471.204 657.499 474.09 654.385C525.963 654.21 577.02 654.111 628.861 654.106C634.355 654.185 639.064 654.172 644.588 654.219C652.419 654.26 659.434 654.243 666.449 654.226C668.314 654.25 670.18 654.273 672.742 654.215Z" fill="#0BA360" fill-opacity="0.5"/>
<path d="M269.79 539.903C270.549 539.94 271.308 539.977 272.637 540.022C284.504 546.586 296.67 551.759 306.899 560.012C323.418 573.341 340.702 577.52 360.069 571.917C378.347 566.63 394.877 571.069 410.431 582.574C425.279 593.557 441.703 597.64 459.289 595.148C465.865 594.215 472.352 591.666 478.906 591.532C490.062 591.304 501.377 591.348 512.376 593.189C529.344 596.028 543.557 589.662 557.362 579.794C566.646 573.159 576.292 567.173 586.219 560.445C586.662 559.995 587.504 560.005 588.181 560.567C596.106 568.58 603.354 576.031 610.649 584.314C610.813 602.835 607.136 606.982 591.273 606.985C490.471 607.007 389.67 607.023 288.054 607.023C269.818 606.326 252.397 605.647 234.692 604.296C233.456 596.24 232.504 588.857 232.141 581.371C245.083 567.48 257.436 553.691 269.79 539.903Z" fill="#C2CAE7"/>
<path d="M610.818 369.6C630.243 368.639 628.024 366.631 628.018 388.082C628.002 444.762 627.85 501.441 626.979 558.939C621.079 558.444 615.951 557.131 610.799 555.246C610.746 554.293 610.717 553.913 610.688 553.533C610.714 492.525 610.74 431.518 610.818 369.6Z" fill="#CCDBFA"/>
<path d="M609.98 553.648C610.716 553.913 610.746 554.293 610.788 556.159C610.735 566.257 610.668 574.87 610.6 583.482C603.353 576.031 596.105 568.58 588.602 560.581C595.321 557.943 602.296 555.853 609.98 553.648Z" fill="#CDD7EF"/>
<path d="M212.382 654.104C207.68 654.155 202.978 654.205 197.476 653.309C196.577 625.285 196.478 598.208 196.379 571.13C196.538 570.363 196.697 569.597 197.037 568.273C201.853 562.636 206.489 557.555 211.727 552.115C212.329 551.756 212.55 551.76 212.469 552.612C212.378 556.88 212.37 560.294 212.34 564.525C212.333 568.06 212.347 570.78 212.344 574.424C212.334 586.565 212.341 597.781 212.336 609.922C212.343 625.265 212.362 639.685 212.382 654.104Z" fill="#DBE0E0"/>
<path d="M195.926 571.563C196.478 598.208 196.578 625.285 196.696 653.265C190.827 654.21 184.939 654.253 178.25 654.256C171.022 639.721 172.574 625.161 177.713 609.777C178.591 607.704 178.93 606.431 179.268 605.158C179.689 604.203 180.111 603.248 180.746 601.21C180.969 599.35 180.98 598.573 180.99 597.797C185.818 589.197 190.646 580.597 195.926 571.563Z" fill="#B4EAD5"/>
<path d="M141.833 578.452C149.24 583.897 156.648 589.341 165.785 596.057C154.82 594.291 146.292 592.918 139.143 591.766C141.408 591.208 145.091 590.301 150.256 589.029C146.479 585.656 143.861 583.318 141.226 580.092C141.417 578.953 141.625 578.703 141.833 578.452Z" fill="#CFF2E5"/>
<path d="M122.146 563.247C122.931 563.153 123.715 563.058 125.052 562.185C125.84 561.14 126.074 560.874 126.308 560.608C129.513 565.079 132.718 569.55 135.923 574.022C135.55 574.632 135.177 575.242 134.804 575.852C130.471 572.456 126.139 569.06 121.718 564.799C121.63 563.934 122.146 563.247 122.146 563.247Z" fill="#CFF2E5"/>
<path d="M125.233 561.779C122.734 557.931 120.607 553.709 118.479 549.487C119.255 549.018 120.03 548.549 120.805 548.08C122.481 551.856 124.156 555.631 126.07 560.007C126.073 560.874 125.839 561.14 125.233 561.779Z" fill="#CFF2E5"/>
<path d="M178.698 605.187C178.929 606.431 178.59 607.704 177.794 609.031C176.292 608.201 175.247 607.319 174.214 605.661C174.225 604.885 174.814 604.254 174.814 604.254C175.918 604.574 177.023 604.895 178.698 605.187Z" fill="#CFF2E5"/>
<path d="M140.882 579.564C139.468 578.916 138.381 577.908 137.293 576.9C137.535 576.497 137.777 576.093 138.019 575.69C139.066 576.298 140.112 576.906 141.495 577.983C141.625 578.703 141.416 578.953 140.882 579.564Z" fill="#CFF2E5"/>
<path d="M167.958 598.462C167.903 599.474 167.403 600.043 166.903 600.612C166.411 599.903 165.919 599.195 165.427 598.486C166.122 598.331 166.818 598.175 167.958 598.462Z" fill="#CFF2E5"/>
<path d="M173.932 605.204C172.562 604.546 171.484 603.57 170.405 602.593C170.643 602.183 170.881 601.773 171.118 601.362C172.138 601.998 173.157 602.633 174.495 603.761C174.814 604.254 174.225 604.886 173.932 605.204Z" fill="#CFF2E5"/>
<path d="M115.939 560.453C115.076 559.968 114.214 559.483 113.318 558.289C113.284 557.581 113.723 557.109 113.723 557.109C114.608 557.553 115.492 557.998 116.41 559.17C116.444 559.898 115.939 560.453 115.939 560.453Z" fill="#CFF2E5"/>
<path d="M180.554 597.891C180.979 598.573 180.968 599.35 180.94 600.713C180.654 600.195 180.386 599.09 180.554 597.891Z" fill="#B4EAD4"/>
<path d="M119.008 560.958C119.864 561.43 120.72 561.902 121.862 562.81C122.147 563.247 121.631 563.934 121.369 564.283C120.245 564.105 119.382 563.578 118.501 562.299C118.481 561.545 119.008 560.958 119.008 560.958Z" fill="#CFF2E5"/>
<path d="M118.218 561.839C117.381 561.984 116.878 561.686 116.192 560.845C115.939 560.453 116.444 559.898 116.697 559.618C117.529 559.462 118.04 559.746 118.745 560.574C119.008 560.958 118.481 561.545 118.218 561.839Z" fill="#CFF2E5"/>
<path d="M113.067 557.818C112.329 557.782 111.808 557.507 111.27 556.574C111.253 555.915 111.651 555.445 111.651 555.445C112.173 555.729 112.696 556.013 113.471 556.703C113.724 557.11 113.285 557.581 113.067 557.818Z" fill="#CFF2E5"/>
<path d="M111.051 556.147C110.473 555.918 110.098 555.458 109.723 554.997C110.199 554.887 110.676 554.778 111.401 555.057C111.65 555.445 111.252 555.915 111.051 556.147Z" fill="#CFF2E5"/>
<path d="M106.812 552.498C107.294 552.441 107.47 552.652 107.647 552.863C107.267 552.83 106.888 552.798 106.812 552.498Z" fill="#CFF2E5"/>
<path d="M643.774 654.16C639.064 654.172 634.355 654.185 628.896 653.214C628.134 622.134 628.121 592.037 628.107 561.94C632.476 565.661 636.845 569.382 641.755 573.399C643.63 575.913 644.964 578.13 645.893 581.148C644.939 585.315 643.939 588.676 643.912 592.048C643.744 612.75 643.795 633.455 643.774 654.16Z" fill="#DAE0DF"/>
<path d="M644.589 654.219C643.795 633.455 643.744 612.751 643.912 592.048C643.94 588.676 644.939 585.315 646.103 581.693C652.085 590.119 657.453 598.802 662.598 608.702C658.144 613.377 653.912 616.835 647.706 621.905C655.683 620.611 661.087 619.735 666.492 618.858C670.214 630.119 670.394 641.401 666.553 653.467C659.434 654.243 652.419 654.26 644.589 654.219Z" fill="#B4EAD4"/>
<path d="M666.982 618.31C661.087 619.735 655.683 620.611 647.706 621.905C653.912 616.835 658.144 613.377 662.723 609.375C666.536 618.762 674.784 612.992 682.184 616.177C676.197 616.822 671.835 617.292 666.982 618.31Z" fill="#DDF6EE"/>
<path d="M693.689 586.405C697.767 582.852 701.844 579.3 705.227 576.353C711.069 578.168 716.11 579.733 721.15 581.299C721.043 580.479 720.937 579.66 720.83 578.84C712.499 581.65 704.168 584.46 694.988 587.152C694.139 587.035 693.689 586.405 693.689 586.405Z" fill="#CFF2E5"/>
<path d="M677.802 598.264C679.569 596.321 681.335 594.378 683.557 593.534C684.08 595.063 684.15 595.493 684.219 595.923C682.853 597.075 681.486 598.226 679.297 599.163C678.251 598.72 678.026 598.492 677.802 598.264Z" fill="#DDF6EE"/>
<path d="M694.368 587.346C693.234 588.906 691.87 590.155 689.74 591.23C688.973 591.056 688.484 590.396 688.484 590.396C689.89 589.207 691.296 588.017 693.195 586.616C693.689 586.405 694.139 587.035 694.368 587.346Z" fill="#CFF2E5"/>
<path d="M671.821 605.173C671.121 605.899 670.421 606.625 669.048 607.276C668.375 607.201 667.979 606.761 667.979 606.761C668.753 606.084 669.527 605.407 670.937 604.82C671.573 604.91 671.821 605.173 671.821 605.173Z" fill="#DDF6EE"/>
<path d="M689.222 591.383C688.741 592.387 688.013 593.064 686.554 593.585C685.823 593.428 685.297 592.806 685.297 592.806C686.062 592.147 686.827 591.489 688.039 590.613C688.485 590.396 688.974 591.056 689.222 591.383Z" fill="#CFF2E5"/>
<path d="M678.797 599.31C678.493 599.951 677.868 600.229 677.243 600.508C677.206 600.024 677.17 599.539 677.468 598.659C678.027 598.492 678.251 598.72 678.797 599.31Z" fill="#DDF6EE"/>
<path d="M673.084 602.677C673.689 602.375 674.293 602.074 674.898 601.773C674.873 602.227 674.848 602.68 674.171 603.149C673.518 603.165 673.084 602.677 673.084 602.677Z" fill="#DDF6EE"/>
<path d="M671.447 604.781C671.636 604.12 671.952 603.587 672.675 602.866C673.083 602.677 673.517 603.165 673.737 603.412C673.537 604.109 673.116 604.559 672.258 605.091C671.821 605.173 671.573 604.91 671.447 604.781Z" fill="#DDF6EE"/>
<path d="M684.636 595.705C684.15 595.493 684.08 595.063 683.942 593.982C683.874 593.331 684.553 592.956 684.925 592.881C685.296 592.806 685.823 593.428 686.091 593.743C685.924 594.535 685.488 595.011 684.636 595.705Z" fill="#CFF2E5"/>
<path d="M668.572 607.423C668.177 607.922 667.584 608.199 666.992 608.477C667.031 608.038 667.069 607.599 667.544 606.96C667.979 606.761 668.375 607.201 668.572 607.423Z" fill="#DDF6EE"/>
<path d="M627.963 561.425C628.121 592.037 628.134 622.134 628.113 653.122C577.021 654.111 525.964 654.21 473.28 654.333C437.436 654.401 403.218 654.444 369.001 654.488C342.839 654.4 316.677 654.313 289.696 653.241C288.875 637.185 288.872 622.113 288.869 607.041C389.67 607.023 490.471 607.007 591.272 606.985C607.136 606.981 610.813 602.835 610.649 584.314C610.668 574.87 610.735 566.257 610.814 556.731C615.952 557.131 621.079 558.444 626.794 559.852C627.528 560.268 627.674 560.589 627.963 561.425Z" fill="#E7F1FE"/>
<path d="M660.001 216.354C662.928 223.233 662.929 229.482 657.544 233.546C653.549 236.56 648.988 236.91 644.643 232.627C639.685 227.74 638.849 222.332 642.293 216.495C645.695 210.73 650.551 209.071 656.163 212.904C657.365 213.725 658.412 214.838 660.001 216.354Z" fill="black"/>
<path d="M695.55 128.195C694.638 134.038 693.032 139.842 690.873 147.648C686.478 141.585 683.401 137.34 679.465 131.909C685.735 130.381 690.296 129.269 695.55 128.195Z" fill="black"/>
<path d="M178.484 171.049C175.221 172.952 172.519 174.513 169.361 176.338C169.361 169.885 169.361 163.404 169.361 155.868C173.964 159.438 178.249 162.761 182.726 166.233C181.333 167.926 180.189 169.317 178.484 171.049Z" fill="black"/>
<path d="M399.617 407.716C374.591 386.966 378.169 356.239 391.163 339.962C405.918 321.477 430.734 319.763 447.269 336.413C463.456 352.714 464.749 381.871 449.994 400.02C447.854 402.653 445.27 404.822 442.443 407.636C441.444 407.873 440.77 407.847 440.359 407.461C426.936 394.83 413.552 395.989 399.617 407.716ZM432.399 370.432C434.236 368.358 436.688 366.623 437.762 364.127C439.267 360.634 439.745 356.574 440.662 352.757C437.505 353.808 433.59 353.874 431.341 356.101C425.551 361.832 420.499 368.52 414.943 375.073C411.795 371.847 409.73 368.944 407.061 367.288C405.401 366.257 402.491 366.384 400.791 367.393C399.778 367.995 399.263 371.631 399.825 373.36C404.301 387.14 415.213 389.896 424.18 379.737C426.626 376.966 429.071 374.194 432.399 370.432Z" fill="#049348"/>
<path d="M212.534 447.513C212.459 425.197 212.773 402.865 212.125 380.57C211.851 371.176 214.175 367.118 222.662 368.607C224.929 369.005 227.29 368.715 230.378 368.807C231.156 394.519 231.166 420.163 230.304 446.665C223.8 447.52 218.167 447.517 212.534 447.513Z" fill="#CDDCFD"/>
<path d="M269.259 539.434C257.436 553.691 245.083 567.48 232.099 580.568C231.417 577.727 231.366 575.588 231.349 572.643C231.361 569.145 231.338 566.453 231.348 562.905C231.352 558.616 231.322 555.183 231.321 550.921C231.35 546.788 231.35 543.483 231.35 540.179C243.665 534.076 256.168 535.37 269.259 539.434Z" fill="#CDD7EF"/>
<path d="M212.534 520.437C212.488 514.39 212.442 508.343 213.235 501.432C219.692 500.491 225.31 500.413 230.928 500.336C231.01 506.48 231.092 512.624 230.303 519.607C223.801 520.443 218.168 520.44 212.534 520.437Z" fill="#CDDCFD"/>
<path d="M212.534 471.164C212.488 467.069 212.442 462.974 213.235 458.044C219.692 457.131 225.31 457.054 230.928 456.976C231.009 461.164 231.09 465.352 230.302 470.357C223.8 471.171 218.167 471.167 212.534 471.164Z" fill="#CDDCFD"/>
<path d="M212.531 542.098C212.487 538.656 212.442 535.215 213.239 530.953C219.319 530.174 224.556 530.216 229.793 530.258C229.789 532.895 229.786 535.533 229.288 539.55C223.373 541.319 217.952 541.708 212.531 542.098Z" fill="#CDDDFE"/>
<path d="M212.45 542.908C217.952 541.709 223.372 541.319 229.295 540.342C229.797 539.753 230.574 539.966 230.963 540.072C231.35 543.483 231.35 546.788 230.544 550.952C224.008 551.794 218.279 551.777 212.55 551.76C212.55 551.76 212.329 551.756 212.23 551.813C212.21 549.152 212.289 546.435 212.45 542.908Z" fill="#FDFEFE"/>
<path d="M230.246 529.75C224.556 530.216 219.318 530.174 213.311 530.096C212.486 527.383 212.431 524.708 212.455 521.235C218.167 520.44 223.8 520.443 230.181 520.519C230.852 523.475 230.776 526.358 230.246 529.75Z" fill="white"/>
<path d="M231.042 456.207C225.31 457.053 219.692 457.131 213.304 457.169C212.481 454.456 212.429 451.782 212.455 448.311C218.167 447.516 223.8 447.52 230.181 447.596C231.004 450.258 231.08 452.848 231.042 456.207Z" fill="white"/>
<path d="M212.456 471.961C218.167 471.167 223.8 471.171 230.181 471.246C230.999 473.901 231.07 476.483 230.294 479.916C223.808 480.77 218.17 480.774 212.531 480.778C212.48 478.105 212.429 475.432 212.456 471.961Z" fill="white"/>
<path d="M212.457 481.618C218.169 480.773 223.808 480.769 230.194 480.686C231.018 483.508 231.094 486.409 230.302 490.096C223.8 490.879 218.167 490.876 212.534 490.873C212.484 488.068 212.433 485.263 212.457 481.618Z" fill="#CDDCFD"/>
<path d="M212.456 491.671C218.167 490.876 223.8 490.88 230.181 490.955C231.005 493.619 231.082 496.209 231.043 499.568C225.31 500.413 219.692 500.491 213.304 500.529C212.482 497.816 212.43 495.143 212.456 491.671Z" fill="white"/>
<path d="M518.684 266.19C518.655 276.244 513.578 279.924 506.425 279.598C499.717 279.293 496.234 274.199 495.975 266.622C495.701 258.645 500.291 253.978 506.175 253.096C513.274 252.032 518.241 256.412 518.684 266.19Z" fill="#C5E1DF"/>
<path d="M344.577 266.157C343.955 274.951 339.993 280.586 333.086 279.325C329.02 278.582 323.835 273.853 322.351 269.514C319.957 262.514 323.111 256.28 330.04 253.594C336.462 251.104 341.903 255.463 344.577 266.157Z" fill="#C5E1DF"/>
<path d="M439.093 259.732C446.877 251.156 452.686 250.72 457.933 257.609C462.664 263.821 462.404 271.571 456.212 276.306C453.364 278.483 448.323 279.581 445.342 278.206C442.35 276.825 440.233 272.005 438.617 268.209C437.737 266.144 438.693 263.075 439.093 259.732Z" fill="#C5E1DF"/>
<path d="M401.297 273.085C396.779 278.994 391.87 282.334 385.869 277.976C381.381 274.716 377.989 270.215 379.858 263.228C381.779 256.049 387.818 251.661 393.613 253.393C401.227 255.669 404.005 262.287 401.297 273.085Z" fill="#C5E1DF"/>
<path d="M288.054 607.023C288.872 622.113 288.875 637.185 288.885 653.154C263.927 654.12 238.961 654.189 213.188 654.181C212.362 639.685 212.343 625.265 213.136 609.925C218.192 609.004 222.497 609.499 226.657 608.835C229.533 608.375 232.21 606.314 234.977 604.968C252.397 605.647 269.818 606.326 288.054 607.023Z" fill="#DDEAFE"/>
<path d="M368.962 655.211C403.218 654.444 437.436 654.401 472.464 654.41C471.205 657.499 469.666 661.868 466.943 663.258C462.902 665.321 458.028 665.956 453.498 666.01C431.859 666.268 410.21 666.437 388.577 665.954C381.137 665.788 372.697 666.197 368.962 655.211Z" fill="#8E8E8E"/>
<path d="M234.691 604.296C232.21 606.314 229.533 608.375 226.656 608.835C222.496 609.5 218.191 609.004 213.148 609C212.341 597.781 212.334 586.565 213.132 574.436C219.73 573.499 225.522 573.474 231.314 573.449C231.366 575.588 231.417 577.727 231.51 580.67C232.503 588.857 233.455 596.24 234.691 604.296Z" fill="#E7F0FE"/>
<path d="M212.468 552.612C218.279 551.777 224.008 551.794 230.515 551.78C231.322 555.182 231.352 558.616 230.568 562.878C223.956 563.707 218.158 563.708 212.36 563.709C212.369 560.294 212.378 556.879 212.468 552.612Z" fill="#E7F0FE"/>
<path d="M212.34 564.524C218.158 563.708 223.956 563.707 230.534 563.733C231.338 566.452 231.361 569.145 231.349 572.643C225.522 573.474 219.73 573.499 213.149 573.512C212.347 570.78 212.333 568.06 212.34 564.524Z" fill="#FBFEFE"/>
<path d="M431.958 370.927C429.071 374.194 426.626 376.966 424.18 379.737C415.213 389.896 404.302 387.14 399.825 373.36C399.263 371.63 399.779 367.995 400.791 367.393C402.491 366.383 405.401 366.257 407.062 367.288C409.73 368.944 411.795 371.847 414.944 375.073C420.499 368.52 425.551 361.832 431.341 356.101C433.59 353.874 437.506 353.808 440.662 352.757C439.745 356.574 439.267 360.634 437.763 364.127C436.688 366.622 434.237 368.357 431.958 370.927Z" fill="#F3FAF6"/>
</svg>
